<svg width="193" height="39" viewBox="0 0 193 39" fill="none" xmlns="http://www.w3.org/2000/svg">
<path d="M1.56582 38H0.96582L15.9158 3L16.4658 2.75L29.0658 38H24.8158L20.9158 27H6.31582L1.56582 38ZM14.3658 8.4L6.51582 26.5H20.7658L14.3658 8.4ZM32.0811 0.549999H35.5811V19.2C36.1477 17.6667 37.1977 16.2167 38.7311 14.85C40.2644 13.4833 41.9977 12.8 43.9311 12.8C50.6977 12.8 54.0811 16.7667 54.0811 24.7C54.0811 33.7 49.7144 38.2 40.9811 38.2C38.4144 38.2 35.4477 37.7833 32.0811 36.95V0.549999ZM43.8811 13.2C41.8144 13.2 39.9477 14.1 38.2811 15.9C36.6144 17.6667 35.7144 19.2667 35.5811 20.7V36.65C37.6144 37.4167 39.3977 37.8 40.9311 37.8C47.3644 37.8 50.5811 33.4167 50.5811 24.65C50.5811 17.0167 48.3477 13.2 43.8811 13.2ZM69.9076 38.2C66.4076 38.2 63.5576 37.2 61.3576 35.2C59.1576 33.2 58.0576 30.1167 58.0576 25.95C58.0576 21.7833 59.191 18.55 61.4576 16.25C63.7576 13.95 66.6576 12.8 70.1576 12.8C73.691 12.8 76.5576 13.8 78.7576 15.8C80.9576 17.8 82.0576 20.8833 82.0576 25.05C82.0576 29.2167 80.9076 32.45 78.6076 34.75C76.341 37.05 73.441 38.2 69.9076 38.2ZM70.2576 13.2C67.7243 13.2 65.6243 14.3333 63.9576 16.6C62.291 18.8333 61.4576 21.9667 61.4576 26C61.4576 30 62.2243 32.9667 63.7576 34.9C65.291 36.8333 67.3243 37.8 69.8576 37.8C72.391 37.8 74.491 36.6833 76.1576 34.45C77.8243 32.1833 78.6576 29.05 78.6576 25.05C78.6576 21.0167 77.891 18.0333 76.3576 16.1C74.8243 14.1667 72.791 13.2 70.2576 13.2ZM89.5361 32.25C89.5361 34.8833 90.2361 36.5667 91.6361 37.3C92.3028 37.6333 93.1528 37.8 94.1861 37.8C96.2861 37.8 98.1528 37 99.7861 35.4C101.453 33.8 102.353 32.3167 102.486 30.95V13H105.986V34.45C105.986 35.4167 106.169 36.1667 106.536 36.7C106.936 37.2 107.336 37.4667 107.736 37.5L108.286 37.6H109.836V38H106.786C105.419 38 104.369 37.7 103.636 37.1C102.936 36.5 102.569 35.9 102.536 35.3L102.486 34.45V32.3C101.886 33.7333 100.819 35.0833 99.2861 36.35C97.7528 37.5833 96.0695 38.2 94.2361 38.2C92.4361 38.2 90.9528 38.0333 89.7861 37.7C88.6528 37.3333 87.8361 36.8333 87.3361 36.2C86.4695 35.1667 86.0361 33.8333 86.0361 32.2V13H89.5361V32.25ZM112.104 13.4V13H113.154V8H116.654V13H124.304V13.4H116.654V31.6C116.654 33.7667 116.888 35.3333 117.354 36.3C117.854 37.2667 118.871 37.75 120.404 37.75C121.971 37.75 123.554 37.4333 125.154 36.8L125.304 37.2C123.638 37.8333 121.721 38.15 119.554 38.15C117.421 38.15 115.821 37.7167 114.754 36.85C113.688 35.95 113.154 34.1833 113.154 31.55V13.4H112.104ZM169.545 3H170.195V23C170.195 28.2333 169.162 32.0833 167.095 34.55C165.028 36.9833 162.328 38.2 158.995 38.2C156.895 38.2 155.112 38.0167 153.645 37.65C152.178 37.25 150.795 36.5333 149.495 35.5C146.828 33.4333 145.495 29.2667 145.495 23V3H149.645V22.95C149.645 29.0167 150.562 33.0667 152.395 35.1C153.328 36.1 154.295 36.7833 155.295 37.15C156.328 37.5167 157.562 37.7 158.995 37.7C162.195 37.7 164.745 36.5333 166.645 34.2C168.578 31.8333 169.545 28.0833 169.545 22.95V3ZM190.04 14.75C189.507 14.3167 188.64 13.95 187.44 13.65C186.274 13.35 185.39 13.2 184.79 13.2C184.19 13.2 183.84 13.2 183.74 13.2C181.94 13.2333 180.64 13.7 179.84 14.6C179.04 15.4667 178.64 16.45 178.64 17.55C178.64 18.65 178.99 19.5833 179.69 20.35C180.39 21.0833 181.257 21.6667 182.29 22.1C183.357 22.5 184.49 22.9667 185.69 23.5C186.924 24.0333 188.057 24.5833 189.09 25.15C190.157 25.6833 191.04 26.4833 191.74 27.55C192.44 28.5833 192.79 29.8833 192.79 31.45C192.79 33.0167 192.24 34.35 191.14 35.45C190.04 36.55 188.807 37.2833 187.44 37.65C186.107 38.0167 184.657 38.2 183.09 38.2C179.69 38.2 177.14 37.45 175.44 35.95L175.74 35.65C176.407 36.2833 177.39 36.8 178.69 37.2C180.024 37.6 181.307 37.8 182.54 37.8C184.507 37.8 186.124 37.2667 187.39 36.2C188.69 35.1 189.34 33.75 189.34 32.15C189.34 30.5167 188.857 29.2167 187.89 28.25C186.924 27.25 185.74 26.4833 184.34 25.95C182.974 25.3833 181.59 24.8333 180.19 24.3C178.79 23.7333 177.607 22.9667 176.64 22C175.674 21 175.19 19.85 175.19 18.55C175.19 17.25 175.49 16.2 176.09 15.4C176.69 14.5667 177.49 13.9833 178.49 13.65C180.19 13.0833 181.89 12.8 183.59 12.8C186.457 12.8 188.69 13.3333 190.29 14.4L190.04 14.75Z" fill="white"/>
</svg>
