<svg width="75" height="81" viewBox="0 0 75 81" fill="none" xmlns="http://www.w3.org/2000/svg">
<path d="M74.5 40.3216C74.5 62.0322 57.9074 79.5814 37.5 79.5814C17.0926 79.5814 0.5 62.0322 0.5 40.3216C0.5 18.6111 17.0926 1.06189 37.5 1.06189C57.9074 1.06189 74.5 18.6111 74.5 40.3216Z" fill="#D9D9D9" stroke="white"/>
<path d="M50.0811 63.0008L14.0388 40.9378L50.0811 18.8748L50.0811 63.0008Z" fill="#8F6060"/>
<path d="M50.0811 63.0008L14.0388 40.9378L50.0811 18.8748L50.0811 63.0008Z" fill="#8F6060"/>
<path d="M50.0811 63.0008L14.0388 40.9378L50.0811 18.8748L50.0811 63.0008Z" fill="#F5F1E4"/>
<path d="M50.0811 63.0008L14.0388 40.9378L50.0811 18.8748L50.0811 63.0008Z" stroke="white"/>
</svg>
