<svg width="229" height="39" viewBox="0 0 229 39" fill="none" xmlns="http://www.w3.org/2000/svg">
<path d="M17.8855 36.2C11.6522 36.2 7.03555 34.4333 4.03555 30.9C2.96888 29.6333 2.10221 27.95 1.43555 25.85C0.76888 23.75 0.435547 21.2 0.435547 18.2C0.435547 15.2 0.91888 12.5167 1.88555 10.15C2.88555 7.75 4.23555 5.9 5.93555 4.6C9.23555 2.16667 13.2189 0.949998 17.8855 0.949998C19.2189 0.949998 20.5189 1.06667 21.7855 1.3C23.0522 1.5 24.0022 1.71666 24.6355 1.95L25.5355 2.3L25.3855 2.8C23.1189 1.9 20.6189 1.45 17.8855 1.45C14.3522 1.45 11.4022 2.6 9.03555 4.9C7.23555 6.6 5.96888 9.1 5.23555 12.4C4.80221 14.2667 4.58555 16.55 4.58555 19.25C4.58555 21.95 4.96888 24.45 5.73555 26.75C6.50221 29.0167 7.36888 30.7 8.33555 31.8C9.33555 32.9 10.5355 33.7833 11.9355 34.45C13.3355 35.0833 14.4522 35.45 15.2855 35.55C16.1189 35.65 17.1189 35.7 18.2855 35.7C19.4855 35.7 20.8355 35.5833 22.3355 35.35C23.8355 35.1167 24.9689 34.9 25.7355 34.7L26.8855 34.35L27.0355 34.85C24.5022 35.75 21.4522 36.2 17.8855 36.2ZM41.6684 36.2C38.1684 36.2 35.3184 35.2 33.1184 33.2C30.9184 31.2 29.8184 28.1167 29.8184 23.95C29.8184 19.7833 30.9517 16.55 33.2184 14.25C35.5184 11.95 38.4184 10.8 41.9184 10.8C45.4517 10.8 48.3184 11.8 50.5184 13.8C52.7184 15.8 53.8184 18.8833 53.8184 23.05C53.8184 27.2167 52.6684 30.45 50.3684 32.75C48.1017 35.05 45.2017 36.2 41.6684 36.2ZM42.0184 11.2C39.485 11.2 37.385 12.3333 35.7184 14.6C34.0517 16.8333 33.2184 19.9667 33.2184 24C33.2184 28 33.985 30.9667 35.5184 32.9C37.0517 34.8333 39.085 35.8 41.6184 35.8C44.1517 35.8 46.2517 34.6833 47.9184 32.45C49.585 30.1833 50.4184 27.05 50.4184 23.05C50.4184 19.0167 49.6517 16.0333 48.1184 14.1C46.585 12.1667 44.5517 11.2 42.0184 11.2ZM77.5703 36C76.2036 36 75.1536 35.7 74.4203 35.1C73.7203 34.5 73.3536 33.9 73.3203 33.3L73.2703 32.45V16.75C73.2703 14.1167 72.587 12.4333 71.2203 11.7C70.5203 11.3667 69.6536 11.2 68.6203 11.2C66.487 11.2 64.5703 12.05 62.8703 13.75C61.1703 15.4167 60.3203 16.9167 60.3203 18.25V36H56.8203V11H60.3203V16.7C60.887 15.2667 61.937 13.9333 63.4703 12.7C65.0036 11.4333 66.687 10.8 68.5203 10.8C70.3536 10.8 71.837 10.9833 72.9703 11.35C74.137 11.6833 74.987 12.1667 75.5203 12.8C76.3536 13.8333 76.7703 15.1667 76.7703 16.8V32.45C76.7703 33.4167 76.9536 34.1667 77.3203 34.7C77.7203 35.2 78.1203 35.4667 78.5203 35.5L79.0703 35.6H80.6203V36H77.5703ZM82.8887 11.4V11H83.9387V6H87.4387V11H95.0887V11.4H87.4387V29.6C87.4387 31.7667 87.672 33.3333 88.1387 34.3C88.6387 35.2667 89.6553 35.75 91.1887 35.75C92.7553 35.75 94.3387 35.4333 95.9387 34.8L96.0887 35.2C94.422 35.8333 92.5053 36.15 90.3387 36.15C88.2053 36.15 86.6053 35.7167 85.5387 34.85C84.472 33.95 83.9387 32.1833 83.9387 29.55V11.4H82.8887ZM119.511 36C117.245 36 115.695 35.5667 114.861 34.7C114.095 33.9667 113.711 33.3333 113.711 32.8V31.75C112.078 34.7167 109.461 36.2 105.861 36.2C101.661 36.2 99.278 34.3 98.7113 30.5C98.6447 30.1 98.6113 29.7 98.6113 29.3C98.6113 28.8667 98.678 28.4 98.8113 27.9C98.9447 27.4 99.328 26.85 99.9613 26.25C101.228 25.05 104.011 24.3167 108.311 24.05C109.378 23.95 110.361 23.9 111.261 23.9C112.161 23.9 112.978 23.9333 113.711 24V15.7C113.645 15.6667 113.645 15.5167 113.711 15.25C113.778 14.95 113.711 14.5833 113.511 14.15C113.345 13.6833 113.111 13.2333 112.811 12.8C112.511 12.3667 111.978 12 111.211 11.7C110.445 11.3667 109.445 11.2 108.211 11.2C106.978 11.2 105.528 11.4333 103.861 11.9C102.228 12.3333 101.028 12.7667 100.261 13.2L100.061 12.85C103.028 11.4833 106.045 10.8 109.111 10.8C112.545 10.8 114.811 11.4167 115.911 12.65C116.778 13.6167 117.211 14.6333 117.211 15.7V32.45C117.211 33.4167 117.395 34.1667 117.761 34.7C118.161 35.2 118.561 35.4667 118.961 35.5L119.511 35.6H121.061V36H119.511ZM106.661 35.8C108.428 35.8 110.011 35.2 111.411 34C112.845 32.7667 113.611 31.5833 113.711 30.45V24.4C112.811 24.3333 111.895 24.3 110.961 24.3C110.061 24.3 109.161 24.35 108.261 24.45C105.728 24.75 104.078 25.3167 103.311 26.15C102.545 26.9833 102.161 28.1333 102.161 29.6C102.161 29.8667 102.178 30.1667 102.211 30.5C102.511 34.0333 103.995 35.8 106.661 35.8ZM135.513 11.2C133.146 11.2 131.163 12.3333 129.563 14.6C127.996 16.8667 127.213 20 127.213 24C127.213 28 127.929 30.9667 129.363 32.9C130.829 34.8333 132.746 35.8 135.113 35.8C138.079 35.8 140.713 35.3 143.013 34.3L143.163 34.65C140.796 35.6833 138.029 36.2 134.863 36.2C131.696 36.2 129.063 35.2 126.963 33.2C124.863 31.2 123.813 28.1167 123.813 23.95C123.813 19.7833 124.913 16.55 127.113 14.25C129.313 11.95 132.113 10.8 135.513 10.8C137.413 10.8 139.163 11.2333 140.763 12.1C142.396 12.9667 143.596 14.2833 144.363 16.05H141.163C140.663 14.4167 139.896 13.2 138.863 12.4C137.863 11.6 136.746 11.2 135.513 11.2ZM147.635 11.4V11H148.685V6H152.185V11H159.835V11.4H152.185V29.6C152.185 31.7667 152.418 33.3333 152.885 34.3C153.385 35.2667 154.401 35.75 155.935 35.75C157.501 35.75 159.085 35.4333 160.685 34.8L160.835 35.2C159.168 35.8333 157.251 36.15 155.085 36.15C152.951 36.15 151.351 35.7167 150.285 34.85C149.218 33.95 148.685 32.1833 148.685 29.55V11.4H147.635ZM205.075 0.999998H205.725V21C205.725 26.2333 204.692 30.0833 202.625 32.55C200.559 34.9833 197.859 36.2 194.525 36.2C192.425 36.2 190.642 36.0167 189.175 35.65C187.709 35.25 186.325 34.5333 185.025 33.5C182.359 31.4333 181.025 27.2667 181.025 21V0.999998H185.175V20.95C185.175 27.0167 186.092 31.0667 187.925 33.1C188.859 34.1 189.825 34.7833 190.825 35.15C191.859 35.5167 193.092 35.7 194.525 35.7C197.725 35.7 200.275 34.5333 202.175 32.2C204.109 29.8333 205.075 26.0833 205.075 20.95V0.999998ZM225.571 12.75C225.037 12.3167 224.171 11.95 222.971 11.65C221.804 11.35 220.921 11.2 220.321 11.2C219.721 11.2 219.371 11.2 219.271 11.2C217.471 11.2333 216.171 11.7 215.371 12.6C214.571 13.4667 214.171 14.45 214.171 15.55C214.171 16.65 214.521 17.5833 215.221 18.35C215.921 19.0833 216.787 19.6667 217.821 20.1C218.887 20.5 220.021 20.9667 221.221 21.5C222.454 22.0333 223.587 22.5833 224.621 23.15C225.687 23.6833 226.571 24.4833 227.271 25.55C227.971 26.5833 228.321 27.8833 228.321 29.45C228.321 31.0167 227.771 32.35 226.671 33.45C225.571 34.55 224.337 35.2833 222.971 35.65C221.637 36.0167 220.187 36.2 218.621 36.2C215.221 36.2 212.671 35.45 210.971 33.95L211.271 33.65C211.937 34.2833 212.921 34.8 214.221 35.2C215.554 35.6 216.837 35.8 218.071 35.8C220.037 35.8 221.654 35.2667 222.921 34.2C224.221 33.1 224.871 31.75 224.871 30.15C224.871 28.5167 224.387 27.2167 223.421 26.25C222.454 25.25 221.271 24.4833 219.871 23.95C218.504 23.3833 217.121 22.8333 215.721 22.3C214.321 21.7333 213.137 20.9667 212.171 20C211.204 19 210.721 17.85 210.721 16.55C210.721 15.25 211.021 14.2 211.621 13.4C212.221 12.5667 213.021 11.9833 214.021 11.65C215.721 11.0833 217.421 10.8 219.121 10.8C221.987 10.8 224.221 11.3333 225.821 12.4L225.571 12.75Z" fill="white"/>
</svg>
