<svg width="195" height="32" viewBox="0 0 195 32" fill="none" xmlns="http://www.w3.org/2000/svg">
<g opacity="0.63">
<mask id="path-1-outside-1_5_10" maskUnits="userSpaceOnUse" x="-1" y="-0.836426" width="197" height="33" fill="black">
<rect fill="white" x="-1" y="-0.836426" width="197" height="33"/>
<path d="M6.68182 12.5272C6.88636 11.2848 7.375 10.1522 8.14773 9.12948C8.92803 8.10676 9.87879 7.29236 11 6.6863C12.1212 6.08024 13.303 5.77721 14.5455 5.77721C15.4394 5.77721 16.2311 5.94009 16.9205 6.26585C17.6174 6.5916 18.1894 7.04236 18.6364 7.61812C19.0833 8.19388 19.3864 8.86054 19.5455 9.61812H18.7273C18.4924 8.6863 18.0189 7.9363 17.3068 7.36812C16.6023 6.79236 15.6818 6.50448 14.5455 6.50448C13.4394 6.50448 12.375 6.77721 11.3523 7.32266C10.3371 7.86054 9.47349 8.58403 8.76136 9.49312C8.04924 10.4022 7.59848 11.4136 7.40909 12.5272C7.22727 13.6333 7.31818 14.6446 7.68182 15.5613C8.04545 16.4704 8.625 17.1977 9.42045 17.7431C10.2159 18.281 11.1667 18.5499 12.2727 18.5499C13.4091 18.5499 14.4697 18.2658 15.4545 17.6977C16.447 17.1219 17.2197 16.3681 17.7727 15.4363H18.5909C18.1742 16.1939 17.6477 16.8605 17.0114 17.4363C16.375 18.0121 15.6553 18.4628 14.8523 18.7886C14.0568 19.1143 13.2121 19.2772 12.3182 19.2772C11.0758 19.2772 9.99242 18.9742 9.06818 18.3681C8.15152 17.7621 7.47348 16.9477 7.03409 15.9249C6.5947 14.9022 6.47727 13.7696 6.68182 12.5272ZM11.1364 24.5272C9.49242 24.5272 7.99621 24.2166 6.64773 23.5954C5.29924 22.9742 4.16288 22.1143 3.23864 21.0158C2.31439 19.9174 1.66288 18.6446 1.28409 17.1977C0.905303 15.7431 0.856061 14.1863 1.13636 12.5272C1.40909 10.8681 1.97348 9.31509 2.82955 7.86812C3.69318 6.41357 4.76515 5.13706 6.04545 4.03857C7.33333 2.94009 8.75 2.08024 10.2955 1.45903C11.8485 0.837816 13.447 0.52721 15.0909 0.52721C16.7652 0.52721 18.2727 0.837816 19.6136 1.45903C20.9621 2.08024 22.0947 2.94009 23.0114 4.03857C23.928 5.13706 24.5758 6.41357 24.9545 7.86812C25.3409 9.31509 25.4015 10.8681 25.1364 12.5272C24.8636 14.1863 24.2955 15.7431 23.4318 17.1977C22.5682 18.6446 21.4962 19.9174 20.2159 21.0158C18.9356 22.1143 17.5152 22.9742 15.9545 23.5954C14.4015 24.2166 12.7955 24.5272 11.1364 24.5272ZM11.1364 23.7999C12.7045 23.7999 14.2273 23.5045 15.7045 22.9136C17.1818 22.3227 18.5303 21.5045 19.75 20.459C20.9697 19.4136 21.9886 18.2052 22.8068 16.834C23.625 15.4552 24.1629 13.9818 24.4205 12.4136C24.6629 10.853 24.6061 9.39842 24.25 8.04994C23.8939 6.69388 23.2917 5.50827 22.4432 4.49312C21.5947 3.47797 20.5417 2.6863 19.2841 2.11812C18.0341 1.54236 16.6364 1.25448 15.0909 1.25448C13.5303 1.25448 12.0152 1.54994 10.5455 2.14085C9.07576 2.73176 7.73106 3.55373 6.51136 4.60676C5.29924 5.65221 4.28409 6.86433 3.46591 8.24312C2.64773 9.61433 2.10985 11.084 1.85227 12.6522C1.58712 14.1901 1.62879 15.6333 1.97727 16.9818C2.32576 18.3227 2.92424 19.5045 3.77273 20.5272C4.62879 21.5499 5.68182 22.353 6.93182 22.9363C8.18939 23.5121 9.59091 23.7999 11.1364 23.7999ZM37.7812 24.1636L37.8722 23.5727L46.7812 14.7545C48.1903 13.3757 49.3002 12.2242 50.1108 11.2999C50.9214 10.3681 51.5161 9.54236 51.8949 8.82266C52.2737 8.09539 52.5237 7.34539 52.6449 6.57266C52.8116 5.55751 52.7396 4.65221 52.429 3.85676C52.1184 3.0613 51.607 2.4363 50.8949 1.98176C50.1828 1.52721 49.3116 1.29994 48.2812 1.29994C47.2055 1.29994 46.2093 1.54615 45.2926 2.03857C44.3759 2.531 43.6108 3.1863 42.9972 4.00448C42.3835 4.82266 41.9934 5.72418 41.8267 6.70903H41.0994C41.2812 5.58782 41.7093 4.56509 42.3835 3.64085C43.0653 2.70903 43.9138 1.9666 44.929 1.41357C45.9517 0.852968 47.0691 0.572664 48.2812 0.572664C49.4479 0.572664 50.4479 0.834028 51.2812 1.35676C52.1146 1.87191 52.7206 2.58403 53.0994 3.49312C53.4782 4.39463 53.5691 5.42115 53.3722 6.57266C53.2358 7.4363 52.9631 8.25827 52.554 9.03857C52.1449 9.81888 51.5199 10.6901 50.679 11.6522C49.8381 12.6143 48.7055 13.7999 47.2812 15.209L39.054 23.3454V23.4363H51.9631L51.8267 24.1636H37.7812ZM64.0653 24.4818C62.5881 24.4818 61.3949 24.0045 60.4858 23.0499C59.5843 22.0878 58.9972 20.7128 58.7244 18.9249C58.4517 17.1371 58.5199 15.0045 58.929 12.5272C59.3381 10.0651 59.9744 7.94009 60.8381 6.15221C61.7093 4.36433 62.7547 2.98933 63.9744 2.02721C65.1941 1.05751 66.5426 0.572664 68.0199 0.572664C69.4972 0.572664 70.6903 1.05372 71.5994 2.01585C72.5161 2.97797 73.1146 4.35297 73.3949 6.14085C73.6752 7.92872 73.6108 10.0575 73.2017 12.5272C72.7926 14.9969 72.1525 17.1257 71.2812 18.9136C70.41 20.7015 69.357 22.0765 68.1222 23.0386C66.8949 24.0007 65.5426 24.4818 64.0653 24.4818ZM64.1108 23.7545C66.0578 23.7545 67.7888 22.7848 69.304 20.8454C70.8191 18.8984 71.8759 16.1257 72.4744 12.5272C72.8532 10.2545 72.9328 8.27721 72.7131 6.59539C72.5009 4.91357 72.0009 3.61054 71.2131 2.6863C70.4252 1.76206 69.3608 1.29994 68.0199 1.29994C66.0578 1.29994 64.3191 2.27721 62.804 4.23176C61.2964 6.17873 60.2472 8.94388 59.6562 12.5272C59.2775 14.7999 59.1903 16.7772 59.3949 18.459C59.607 20.1408 60.107 21.4439 60.8949 22.3681C61.6828 23.2924 62.7547 23.7545 64.1108 23.7545ZM76.5625 24.1636L76.6534 23.5727L85.5625 14.7545C86.9716 13.3757 88.0814 12.2242 88.892 11.2999C89.7027 10.3681 90.2973 9.54236 90.6761 8.82266C91.0549 8.09539 91.3049 7.34539 91.4261 6.57266C91.5928 5.55751 91.5208 4.65221 91.2102 3.85676C90.8996 3.0613 90.3883 2.4363 89.6761 1.98176C88.964 1.52721 88.0928 1.29994 87.0625 1.29994C85.9867 1.29994 84.9905 1.54615 84.0739 2.03857C83.1572 2.531 82.392 3.1863 81.7784 4.00448C81.1648 4.82266 80.7746 5.72418 80.608 6.70903H79.8807C80.0625 5.58782 80.4905 4.56509 81.1648 3.64085C81.8466 2.70903 82.6951 1.9666 83.7102 1.41357C84.733 0.852968 85.8504 0.572664 87.0625 0.572664C88.2292 0.572664 89.2292 0.834028 90.0625 1.35676C90.8958 1.87191 91.5019 2.58403 91.8807 3.49312C92.2595 4.39463 92.3504 5.42115 92.1534 6.57266C92.017 7.4363 91.7443 8.25827 91.3352 9.03857C90.9261 9.81888 90.3011 10.6901 89.4602 11.6522C88.6193 12.6143 87.4867 13.7999 86.0625 15.209L77.8352 23.3454V23.4363H90.7443L90.608 24.1636H76.5625ZM96.2557 18.709L96.3466 18.1636L109.892 0.890846H110.347L110.119 2.39085H109.574L97.4375 17.8908V17.9818H110.71L110.574 18.709H96.2557ZM106.028 24.1636L106.983 18.4818L107.028 18.2545L109.892 0.890846H110.619L106.756 24.1636H106.028ZM124.651 24.1636L128.514 0.890846H129.241L125.514 23.4363H137.151L137.014 24.1636H124.651ZM148.287 24.5272C146.908 24.5272 145.734 24.1295 144.764 23.334C143.802 22.5386 143.113 21.4515 142.696 20.0727C142.287 18.6939 142.226 17.1333 142.514 15.3908C142.802 13.6939 143.37 12.1711 144.219 10.8227C145.075 9.4666 146.105 8.39842 147.31 7.61812C148.522 6.83024 149.802 6.4363 151.151 6.4363C152.545 6.4363 153.723 6.83782 154.685 7.64085C155.654 8.44388 156.344 9.53479 156.753 10.9136C157.17 12.2924 157.241 13.8454 156.969 15.5727C156.681 17.2696 156.109 18.7961 155.253 20.1522C154.397 21.5007 153.363 22.5689 152.151 23.3568C150.938 24.1371 149.651 24.5272 148.287 24.5272ZM148.287 23.7999C149.545 23.7999 150.73 23.4363 151.844 22.709C152.957 21.9742 153.904 20.9742 154.685 19.709C155.465 18.4363 155.984 16.9969 156.241 15.3908C156.499 13.8302 156.45 12.4287 156.094 11.1863C155.738 9.94388 155.135 8.96282 154.287 8.24312C153.438 7.52342 152.408 7.16357 151.196 7.16357C149.954 7.16357 148.776 7.53479 147.662 8.27721C146.548 9.01206 145.598 10.0158 144.81 11.2886C144.022 12.5537 143.499 13.9818 143.241 15.5727C142.969 17.1333 143.01 18.5348 143.366 19.7772C143.73 21.0196 144.336 22.0007 145.185 22.7204C146.041 23.4401 147.075 23.7999 148.287 23.7999ZM165.455 31.0727C164.485 31.0727 163.606 30.9401 162.818 30.6749C162.03 30.4174 161.375 30.0272 160.852 29.5045C160.33 28.9893 159.985 28.3454 159.818 27.5727L160.5 27.3454C160.652 28.0272 160.951 28.5878 161.398 29.0272C161.845 29.4742 162.413 29.8037 163.102 30.0158C163.792 30.2355 164.576 30.3454 165.455 30.3454C167.273 30.3454 168.784 29.8643 169.989 28.9022C171.193 27.9401 171.955 26.4818 172.273 24.5272L173.045 19.7999H172.955C172.5 20.7696 171.917 21.5802 171.205 22.2318C170.5 22.8757 169.723 23.3605 168.875 23.6863C168.034 24.0045 167.182 24.1636 166.318 24.1636C164.955 24.1636 163.83 23.7961 162.943 23.0613C162.057 22.3265 161.447 21.3075 161.114 20.0045C160.78 18.7015 160.758 17.1939 161.045 15.4818C161.333 13.7545 161.864 12.209 162.636 10.8454C163.409 9.48176 164.364 8.406 165.5 7.61812C166.636 6.83024 167.894 6.4363 169.273 6.4363C170.212 6.4363 171.034 6.62948 171.739 7.01585C172.451 7.39463 173.03 7.94009 173.477 8.65221C173.932 9.35676 174.242 10.1939 174.409 11.1636H174.5L175.227 6.70903H175.955L173 24.5272C172.758 25.9666 172.299 27.1711 171.625 28.1408C170.951 29.1105 170.091 29.8416 169.045 30.334C168 30.8265 166.803 31.0727 165.455 31.0727ZM166.318 23.4363C167.53 23.4363 168.648 23.1143 169.67 22.4704C170.701 21.8265 171.572 20.9098 172.284 19.7204C173.004 18.531 173.5 17.1181 173.773 15.4818C174.03 13.906 174.027 12.4931 173.761 11.2431C173.504 9.98554 172.992 8.99312 172.227 8.26585C171.47 7.531 170.47 7.16357 169.227 7.16357C168 7.16357 166.867 7.531 165.83 8.26585C164.799 8.99312 163.928 9.98554 163.216 11.2431C162.511 12.4931 162.03 13.906 161.773 15.4818C161.515 17.0575 161.519 18.4439 161.784 19.6408C162.057 20.8302 162.572 21.7621 163.33 22.4363C164.095 23.103 165.091 23.4363 166.318 23.4363ZM185.506 24.5272C184.127 24.5272 182.953 24.1295 181.983 23.334C181.021 22.5386 180.331 21.4515 179.915 20.0727C179.506 18.6939 179.445 17.1333 179.733 15.3908C180.021 13.6939 180.589 12.1711 181.438 10.8227C182.294 9.4666 183.324 8.39842 184.528 7.61812C185.741 6.83024 187.021 6.4363 188.369 6.4363C189.763 6.4363 190.941 6.83782 191.903 7.64085C192.873 8.44388 193.563 9.53479 193.972 10.9136C194.388 12.2924 194.46 13.8454 194.188 15.5727C193.9 17.2696 193.328 18.7961 192.472 20.1522C191.616 21.5007 190.581 22.5689 189.369 23.3568C188.157 24.1371 186.869 24.5272 185.506 24.5272ZM185.506 23.7999C186.763 23.7999 187.949 23.4363 189.062 22.709C190.176 21.9742 191.123 20.9742 191.903 19.709C192.684 18.4363 193.203 16.9969 193.46 15.3908C193.718 13.8302 193.669 12.4287 193.312 11.1863C192.956 9.94388 192.354 8.96282 191.506 8.24312C190.657 7.52342 189.627 7.16357 188.415 7.16357C187.172 7.16357 185.994 7.53479 184.881 8.27721C183.767 9.01206 182.816 10.0158 182.028 11.2886C181.241 12.5537 180.718 13.9818 180.46 15.5727C180.188 17.1333 180.229 18.5348 180.585 19.7772C180.949 21.0196 181.555 22.0007 182.403 22.7204C183.259 23.4401 184.294 23.7999 185.506 23.7999Z"/>
</mask>
<path d="M6.68182 12.5272C6.88636 11.2848 7.375 10.1522 8.14773 9.12948C8.92803 8.10676 9.87879 7.29236 11 6.6863C12.1212 6.08024 13.303 5.77721 14.5455 5.77721C15.4394 5.77721 16.2311 5.94009 16.9205 6.26585C17.6174 6.5916 18.1894 7.04236 18.6364 7.61812C19.0833 8.19388 19.3864 8.86054 19.5455 9.61812H18.7273C18.4924 8.6863 18.0189 7.9363 17.3068 7.36812C16.6023 6.79236 15.6818 6.50448 14.5455 6.50448C13.4394 6.50448 12.375 6.77721 11.3523 7.32266C10.3371 7.86054 9.47349 8.58403 8.76136 9.49312C8.04924 10.4022 7.59848 11.4136 7.40909 12.5272C7.22727 13.6333 7.31818 14.6446 7.68182 15.5613C8.04545 16.4704 8.625 17.1977 9.42045 17.7431C10.2159 18.281 11.1667 18.5499 12.2727 18.5499C13.4091 18.5499 14.4697 18.2658 15.4545 17.6977C16.447 17.1219 17.2197 16.3681 17.7727 15.4363H18.5909C18.1742 16.1939 17.6477 16.8605 17.0114 17.4363C16.375 18.0121 15.6553 18.4628 14.8523 18.7886C14.0568 19.1143 13.2121 19.2772 12.3182 19.2772C11.0758 19.2772 9.99242 18.9742 9.06818 18.3681C8.15152 17.7621 7.47348 16.9477 7.03409 15.9249C6.5947 14.9022 6.47727 13.7696 6.68182 12.5272ZM11.1364 24.5272C9.49242 24.5272 7.99621 24.2166 6.64773 23.5954C5.29924 22.9742 4.16288 22.1143 3.23864 21.0158C2.31439 19.9174 1.66288 18.6446 1.28409 17.1977C0.905303 15.7431 0.856061 14.1863 1.13636 12.5272C1.40909 10.8681 1.97348 9.31509 2.82955 7.86812C3.69318 6.41357 4.76515 5.13706 6.04545 4.03857C7.33333 2.94009 8.75 2.08024 10.2955 1.45903C11.8485 0.837816 13.447 0.52721 15.0909 0.52721C16.7652 0.52721 18.2727 0.837816 19.6136 1.45903C20.9621 2.08024 22.0947 2.94009 23.0114 4.03857C23.928 5.13706 24.5758 6.41357 24.9545 7.86812C25.3409 9.31509 25.4015 10.8681 25.1364 12.5272C24.8636 14.1863 24.2955 15.7431 23.4318 17.1977C22.5682 18.6446 21.4962 19.9174 20.2159 21.0158C18.9356 22.1143 17.5152 22.9742 15.9545 23.5954C14.4015 24.2166 12.7955 24.5272 11.1364 24.5272ZM11.1364 23.7999C12.7045 23.7999 14.2273 23.5045 15.7045 22.9136C17.1818 22.3227 18.5303 21.5045 19.75 20.459C20.9697 19.4136 21.9886 18.2052 22.8068 16.834C23.625 15.4552 24.1629 13.9818 24.4205 12.4136C24.6629 10.853 24.6061 9.39842 24.25 8.04994C23.8939 6.69388 23.2917 5.50827 22.4432 4.49312C21.5947 3.47797 20.5417 2.6863 19.2841 2.11812C18.0341 1.54236 16.6364 1.25448 15.0909 1.25448C13.5303 1.25448 12.0152 1.54994 10.5455 2.14085C9.07576 2.73176 7.73106 3.55373 6.51136 4.60676C5.29924 5.65221 4.28409 6.86433 3.46591 8.24312C2.64773 9.61433 2.10985 11.084 1.85227 12.6522C1.58712 14.1901 1.62879 15.6333 1.97727 16.9818C2.32576 18.3227 2.92424 19.5045 3.77273 20.5272C4.62879 21.5499 5.68182 22.353 6.93182 22.9363C8.18939 23.5121 9.59091 23.7999 11.1364 23.7999ZM37.7812 24.1636L37.8722 23.5727L46.7812 14.7545C48.1903 13.3757 49.3002 12.2242 50.1108 11.2999C50.9214 10.3681 51.5161 9.54236 51.8949 8.82266C52.2737 8.09539 52.5237 7.34539 52.6449 6.57266C52.8116 5.55751 52.7396 4.65221 52.429 3.85676C52.1184 3.0613 51.607 2.4363 50.8949 1.98176C50.1828 1.52721 49.3116 1.29994 48.2812 1.29994C47.2055 1.29994 46.2093 1.54615 45.2926 2.03857C44.3759 2.531 43.6108 3.1863 42.9972 4.00448C42.3835 4.82266 41.9934 5.72418 41.8267 6.70903H41.0994C41.2812 5.58782 41.7093 4.56509 42.3835 3.64085C43.0653 2.70903 43.9138 1.9666 44.929 1.41357C45.9517 0.852968 47.0691 0.572664 48.2812 0.572664C49.4479 0.572664 50.4479 0.834028 51.2812 1.35676C52.1146 1.87191 52.7206 2.58403 53.0994 3.49312C53.4782 4.39463 53.5691 5.42115 53.3722 6.57266C53.2358 7.4363 52.9631 8.25827 52.554 9.03857C52.1449 9.81888 51.5199 10.6901 50.679 11.6522C49.8381 12.6143 48.7055 13.7999 47.2812 15.209L39.054 23.3454V23.4363H51.9631L51.8267 24.1636H37.7812ZM64.0653 24.4818C62.5881 24.4818 61.3949 24.0045 60.4858 23.0499C59.5843 22.0878 58.9972 20.7128 58.7244 18.9249C58.4517 17.1371 58.5199 15.0045 58.929 12.5272C59.3381 10.0651 59.9744 7.94009 60.8381 6.15221C61.7093 4.36433 62.7547 2.98933 63.9744 2.02721C65.1941 1.05751 66.5426 0.572664 68.0199 0.572664C69.4972 0.572664 70.6903 1.05372 71.5994 2.01585C72.5161 2.97797 73.1146 4.35297 73.3949 6.14085C73.6752 7.92872 73.6108 10.0575 73.2017 12.5272C72.7926 14.9969 72.1525 17.1257 71.2812 18.9136C70.41 20.7015 69.357 22.0765 68.1222 23.0386C66.8949 24.0007 65.5426 24.4818 64.0653 24.4818ZM64.1108 23.7545C66.0578 23.7545 67.7888 22.7848 69.304 20.8454C70.8191 18.8984 71.8759 16.1257 72.4744 12.5272C72.8532 10.2545 72.9328 8.27721 72.7131 6.59539C72.5009 4.91357 72.0009 3.61054 71.2131 2.6863C70.4252 1.76206 69.3608 1.29994 68.0199 1.29994C66.0578 1.29994 64.3191 2.27721 62.804 4.23176C61.2964 6.17873 60.2472 8.94388 59.6562 12.5272C59.2775 14.7999 59.1903 16.7772 59.3949 18.459C59.607 20.1408 60.107 21.4439 60.8949 22.3681C61.6828 23.2924 62.7547 23.7545 64.1108 23.7545ZM76.5625 24.1636L76.6534 23.5727L85.5625 14.7545C86.9716 13.3757 88.0814 12.2242 88.892 11.2999C89.7027 10.3681 90.2973 9.54236 90.6761 8.82266C91.0549 8.09539 91.3049 7.34539 91.4261 6.57266C91.5928 5.55751 91.5208 4.65221 91.2102 3.85676C90.8996 3.0613 90.3883 2.4363 89.6761 1.98176C88.964 1.52721 88.0928 1.29994 87.0625 1.29994C85.9867 1.29994 84.9905 1.54615 84.0739 2.03857C83.1572 2.531 82.392 3.1863 81.7784 4.00448C81.1648 4.82266 80.7746 5.72418 80.608 6.70903H79.8807C80.0625 5.58782 80.4905 4.56509 81.1648 3.64085C81.8466 2.70903 82.6951 1.9666 83.7102 1.41357C84.733 0.852968 85.8504 0.572664 87.0625 0.572664C88.2292 0.572664 89.2292 0.834028 90.0625 1.35676C90.8958 1.87191 91.5019 2.58403 91.8807 3.49312C92.2595 4.39463 92.3504 5.42115 92.1534 6.57266C92.017 7.4363 91.7443 8.25827 91.3352 9.03857C90.9261 9.81888 90.3011 10.6901 89.4602 11.6522C88.6193 12.6143 87.4867 13.7999 86.0625 15.209L77.8352 23.3454V23.4363H90.7443L90.608 24.1636H76.5625ZM96.2557 18.709L96.3466 18.1636L109.892 0.890846H110.347L110.119 2.39085H109.574L97.4375 17.8908V17.9818H110.71L110.574 18.709H96.2557ZM106.028 24.1636L106.983 18.4818L107.028 18.2545L109.892 0.890846H110.619L106.756 24.1636H106.028ZM124.651 24.1636L128.514 0.890846H129.241L125.514 23.4363H137.151L137.014 24.1636H124.651ZM148.287 24.5272C146.908 24.5272 145.734 24.1295 144.764 23.334C143.802 22.5386 143.113 21.4515 142.696 20.0727C142.287 18.6939 142.226 17.1333 142.514 15.3908C142.802 13.6939 143.37 12.1711 144.219 10.8227C145.075 9.4666 146.105 8.39842 147.31 7.61812C148.522 6.83024 149.802 6.4363 151.151 6.4363C152.545 6.4363 153.723 6.83782 154.685 7.64085C155.654 8.44388 156.344 9.53479 156.753 10.9136C157.17 12.2924 157.241 13.8454 156.969 15.5727C156.681 17.2696 156.109 18.7961 155.253 20.1522C154.397 21.5007 153.363 22.5689 152.151 23.3568C150.938 24.1371 149.651 24.5272 148.287 24.5272ZM148.287 23.7999C149.545 23.7999 150.73 23.4363 151.844 22.709C152.957 21.9742 153.904 20.9742 154.685 19.709C155.465 18.4363 155.984 16.9969 156.241 15.3908C156.499 13.8302 156.45 12.4287 156.094 11.1863C155.738 9.94388 155.135 8.96282 154.287 8.24312C153.438 7.52342 152.408 7.16357 151.196 7.16357C149.954 7.16357 148.776 7.53479 147.662 8.27721C146.548 9.01206 145.598 10.0158 144.81 11.2886C144.022 12.5537 143.499 13.9818 143.241 15.5727C142.969 17.1333 143.01 18.5348 143.366 19.7772C143.73 21.0196 144.336 22.0007 145.185 22.7204C146.041 23.4401 147.075 23.7999 148.287 23.7999ZM165.455 31.0727C164.485 31.0727 163.606 30.9401 162.818 30.6749C162.03 30.4174 161.375 30.0272 160.852 29.5045C160.33 28.9893 159.985 28.3454 159.818 27.5727L160.5 27.3454C160.652 28.0272 160.951 28.5878 161.398 29.0272C161.845 29.4742 162.413 29.8037 163.102 30.0158C163.792 30.2355 164.576 30.3454 165.455 30.3454C167.273 30.3454 168.784 29.8643 169.989 28.9022C171.193 27.9401 171.955 26.4818 172.273 24.5272L173.045 19.7999H172.955C172.5 20.7696 171.917 21.5802 171.205 22.2318C170.5 22.8757 169.723 23.3605 168.875 23.6863C168.034 24.0045 167.182 24.1636 166.318 24.1636C164.955 24.1636 163.83 23.7961 162.943 23.0613C162.057 22.3265 161.447 21.3075 161.114 20.0045C160.78 18.7015 160.758 17.1939 161.045 15.4818C161.333 13.7545 161.864 12.209 162.636 10.8454C163.409 9.48176 164.364 8.406 165.5 7.61812C166.636 6.83024 167.894 6.4363 169.273 6.4363C170.212 6.4363 171.034 6.62948 171.739 7.01585C172.451 7.39463 173.03 7.94009 173.477 8.65221C173.932 9.35676 174.242 10.1939 174.409 11.1636H174.5L175.227 6.70903H175.955L173 24.5272C172.758 25.9666 172.299 27.1711 171.625 28.1408C170.951 29.1105 170.091 29.8416 169.045 30.334C168 30.8265 166.803 31.0727 165.455 31.0727ZM166.318 23.4363C167.53 23.4363 168.648 23.1143 169.67 22.4704C170.701 21.8265 171.572 20.9098 172.284 19.7204C173.004 18.531 173.5 17.1181 173.773 15.4818C174.03 13.906 174.027 12.4931 173.761 11.2431C173.504 9.98554 172.992 8.99312 172.227 8.26585C171.47 7.531 170.47 7.16357 169.227 7.16357C168 7.16357 166.867 7.531 165.83 8.26585C164.799 8.99312 163.928 9.98554 163.216 11.2431C162.511 12.4931 162.03 13.906 161.773 15.4818C161.515 17.0575 161.519 18.4439 161.784 19.6408C162.057 20.8302 162.572 21.7621 163.33 22.4363C164.095 23.103 165.091 23.4363 166.318 23.4363ZM185.506 24.5272C184.127 24.5272 182.953 24.1295 181.983 23.334C181.021 22.5386 180.331 21.4515 179.915 20.0727C179.506 18.6939 179.445 17.1333 179.733 15.3908C180.021 13.6939 180.589 12.1711 181.438 10.8227C182.294 9.4666 183.324 8.39842 184.528 7.61812C185.741 6.83024 187.021 6.4363 188.369 6.4363C189.763 6.4363 190.941 6.83782 191.903 7.64085C192.873 8.44388 193.563 9.53479 193.972 10.9136C194.388 12.2924 194.46 13.8454 194.188 15.5727C193.9 17.2696 193.328 18.7961 192.472 20.1522C191.616 21.5007 190.581 22.5689 189.369 23.3568C188.157 24.1371 186.869 24.5272 185.506 24.5272ZM185.506 23.7999C186.763 23.7999 187.949 23.4363 189.062 22.709C190.176 21.9742 191.123 20.9742 191.903 19.709C192.684 18.4363 193.203 16.9969 193.46 15.3908C193.718 13.8302 193.669 12.4287 193.312 11.1863C192.956 9.94388 192.354 8.96282 191.506 8.24312C190.657 7.52342 189.627 7.16357 188.415 7.16357C187.172 7.16357 185.994 7.53479 184.881 8.27721C183.767 9.01206 182.816 10.0158 182.028 11.2886C181.241 12.5537 180.718 13.9818 180.46 15.5727C180.188 17.1333 180.229 18.5348 180.585 19.7772C180.949 21.0196 181.555 22.0007 182.403 22.7204C183.259 23.4401 184.294 23.7999 185.506 23.7999Z" fill="white"/>
<path d="M6.68182 12.5272L5.6951 12.3648L6.68182 12.5272ZM8.14773 9.12948L7.35269 8.5229L7.34986 8.52665L8.14773 9.12948ZM11 6.6863L10.5245 5.80659H10.5245L11 6.6863ZM16.9205 6.26585L16.4932 7.17L16.497 7.17178L16.9205 6.26585ZM18.6364 7.61812L19.4263 7.0049L18.6364 7.61812ZM19.5455 9.61812V10.6181H20.7773L20.5241 9.4126L19.5455 9.61812ZM18.7273 9.61812L17.7576 9.86251L17.948 10.6181H18.7273V9.61812ZM17.3068 7.36812L16.674 8.1425L16.6831 8.1498L17.3068 7.36812ZM11.3523 7.32266L11.8205 8.2063L11.8229 8.20502L11.3523 7.32266ZM8.76136 9.49312L9.54859 10.1098H9.54859L8.76136 9.49312ZM7.40909 12.5272L6.42323 12.3595L6.42233 12.365L7.40909 12.5272ZM7.68182 15.5613L6.75228 15.93L6.75334 15.9327L7.68182 15.5613ZM9.42045 17.7431L8.85491 18.5679L8.8603 18.5715L9.42045 17.7431ZM15.4545 17.6977L15.9543 18.5639L15.9564 18.5626L15.4545 17.6977ZM17.7727 15.4363V14.4363H17.2034L16.9128 14.9259L17.7727 15.4363ZM18.5909 15.4363L19.4671 15.9182L20.2822 14.4363H18.5909V15.4363ZM14.8523 18.7886L14.4764 17.8619L14.4733 17.8632L14.8523 18.7886ZM9.06818 18.3681L8.51666 19.2023L8.51982 19.2044L9.06818 18.3681ZM7.03409 15.9249L7.95288 15.5302L7.03409 15.9249ZM6.64773 23.5954L7.06614 22.6871L6.64773 23.5954ZM3.23864 21.0158L4.00382 20.372L3.23864 21.0158ZM1.28409 17.1977L0.316366 17.4497L0.316689 17.4509L1.28409 17.1977ZM1.13636 12.5272L2.1224 12.6938L2.12312 12.6894L1.13636 12.5272ZM2.82955 7.86812L1.96969 7.35758L1.96889 7.35893L2.82955 7.86812ZM6.04545 4.03857L5.39651 3.27774L5.39429 3.27963L6.04545 4.03857ZM10.2955 1.45903L9.92406 0.53055L9.9225 0.53118L10.2955 1.45903ZM19.6136 1.45903L19.1933 2.36639L19.1952 2.36729L19.6136 1.45903ZM23.0114 4.03857L22.2436 4.67928H22.2436L23.0114 4.03857ZM24.9545 7.86812L23.9868 8.12013L23.9884 8.1261L24.9545 7.86812ZM25.1364 12.5272L26.1231 12.6894L26.1238 12.685L25.1364 12.5272ZM23.4318 17.1977L24.2905 17.7102L24.2917 17.7082L23.4318 17.1977ZM15.9545 23.5954L15.5847 22.6663L15.5832 22.6669L15.9545 23.5954ZM15.7045 22.9136L15.3332 21.9851L15.7045 22.9136ZM19.75 20.459L19.0992 19.6998L19.75 20.459ZM22.8068 16.834L23.6656 17.3464L23.6668 17.3443L22.8068 16.834ZM24.4205 12.4136L25.4073 12.5757L25.4086 12.5671L24.4205 12.4136ZM24.25 8.04994L23.2828 8.3039L23.2831 8.30523L24.25 8.04994ZM22.4432 4.49312L21.6759 5.13443L22.4432 4.49312ZM19.2841 2.11812L18.8657 3.02642L18.8724 3.02942L19.2841 2.11812ZM10.5455 2.14085L10.9185 3.06866L10.5455 2.14085ZM6.51136 4.60676L7.16449 5.36401L7.16486 5.36368L6.51136 4.60676ZM3.46591 8.24312L4.32466 8.75552L4.32589 8.75344L3.46591 8.24312ZM1.85227 12.6522L2.83776 12.8221L2.83905 12.8143L1.85227 12.6522ZM1.97727 16.9818L1.00908 17.232L1.00942 17.2333L1.97727 16.9818ZM3.77273 20.5272L3.0031 21.1657L3.0059 21.1691L3.77273 20.5272ZM6.93182 22.9363L6.50892 23.8425L6.51554 23.8455L6.93182 22.9363ZM7.66854 12.6897C7.84626 11.6101 8.26875 10.6281 8.9456 9.73232L7.34986 8.52665C6.48126 9.67628 5.92647 10.9594 5.6951 12.3648L7.66854 12.6897ZM8.94275 9.73606C9.63793 8.8249 10.4801 8.10404 11.4755 7.56601L10.5245 5.80659C9.27743 6.48068 8.21813 7.38861 7.3527 8.52291L8.94275 9.73606ZM11.4755 7.56601C12.4546 7.03678 13.4735 6.77721 14.5455 6.77721V4.77721C13.1326 4.77721 11.7878 5.1237 10.5245 5.80659L11.4755 7.56601ZM14.5455 6.77721C15.3169 6.77721 15.9585 6.91733 16.4932 7.16999L17.3477 5.3617C16.5036 4.96284 15.5618 4.77721 14.5455 4.77721V6.77721ZM16.497 7.17178C17.0586 7.43423 17.5021 7.78779 17.8465 8.23134L19.4263 7.0049C18.8767 6.29693 18.1763 5.74897 17.3439 5.35991L16.497 7.17178ZM17.8465 8.23134C18.1947 8.67989 18.4369 9.20509 18.5668 9.82364L20.5241 9.4126C20.3358 8.51599 19.972 7.70786 19.4263 7.0049L17.8465 8.23134ZM19.5455 8.61812H18.7273V10.6181H19.5455V8.61812ZM19.697 9.37373C19.4118 8.24223 18.8234 7.29884 17.9305 6.58644L16.6831 8.1498C17.2145 8.57376 17.5731 9.13037 17.7576 9.86251L19.697 9.37373ZM17.9396 6.59379C17.0156 5.83871 15.8535 5.50448 14.5455 5.50448V7.50448C15.5101 7.50448 16.1889 7.74601 16.674 8.14245L17.9396 6.59379ZM14.5455 5.50448C13.2673 5.50448 12.0421 5.82144 10.8817 6.44031L11.8229 8.20502C12.7079 7.73298 13.6115 7.50448 14.5455 7.50448V5.50448ZM10.8841 6.43904C9.74439 7.04291 8.77225 7.85759 7.97414 8.87646L9.54859 10.1098C10.1747 9.31047 10.9299 8.67818 11.8205 8.20629L10.8841 6.43904ZM7.97414 8.87646C7.16191 9.91335 6.64115 11.0783 6.42325 12.3596L8.39494 12.6949C8.55582 11.7488 8.93658 10.8911 9.54859 10.1098L7.97414 8.87646ZM6.42233 12.365C6.21521 13.625 6.31305 14.8228 6.75229 15.93L8.61135 15.1926C8.32332 14.4665 8.23934 13.6415 8.39585 12.6894L6.42233 12.365ZM6.75334 15.9327C7.18927 17.0225 7.8937 17.9087 8.85493 18.5678L9.98598 16.9184C9.3563 16.4866 8.90164 15.9183 8.61029 15.1899L6.75334 15.9327ZM8.8603 18.5715C9.84525 19.2375 10.9982 19.5499 12.2727 19.5499V17.5499C11.3351 17.5499 10.5866 17.3245 9.98061 16.9147L8.8603 18.5715ZM12.2727 19.5499C13.5846 19.5499 14.8176 19.2196 15.9543 18.5639L14.9548 16.8315C14.1218 17.312 13.2336 17.5499 12.2727 17.5499V19.5499ZM15.9564 18.5626C17.0875 17.9064 17.9873 17.034 18.6327 15.9467L16.9128 14.9259C16.4521 15.7022 15.8065 16.3374 14.9527 16.8327L15.9564 18.5626ZM17.7727 16.4363H18.5909V14.4363H17.7727V16.4363ZM17.7147 14.9544C17.3512 15.6154 16.8938 16.1941 16.3405 16.6948L17.6823 18.1778C18.4016 17.527 18.9973 16.7724 19.4671 15.9182L17.7147 14.9544ZM16.3405 16.6948C15.7917 17.1913 15.1721 17.5797 14.4764 17.8619L15.2282 19.7152C16.1385 19.3459 16.9583 18.8329 17.6823 18.1778L16.3405 16.6948ZM14.4733 17.8632C13.8029 18.1377 13.0874 18.2772 12.3182 18.2772V20.2772C13.3368 20.2772 14.3107 20.091 15.2312 19.714L14.4733 17.8632ZM12.3182 18.2772C11.2456 18.2772 10.3581 18.0182 9.61654 17.5319L8.51982 19.2044C9.62671 19.9302 10.9059 20.2772 12.3182 20.2772V18.2772ZM9.6197 17.534C8.8679 17.0369 8.31637 16.3762 7.95288 15.5302L6.1153 16.3197C6.6306 17.5191 7.43513 18.4872 8.51667 19.2023L9.6197 17.534ZM7.95288 15.5302C7.59843 14.7052 7.49082 13.7691 7.66854 12.6897L5.6951 12.3648C5.46372 13.7702 5.59097 15.0993 6.1153 16.3197L7.95288 15.5302ZM11.1364 23.5272C9.62126 23.5272 8.26993 23.2417 7.06614 22.6871L6.22932 24.5037C7.72249 25.1915 9.36359 25.5272 11.1364 25.5272V23.5272ZM7.06614 22.6871C5.84659 22.1253 4.83006 21.354 4.00382 20.372L2.47345 21.6597C3.4957 22.8746 4.75189 23.823 6.22932 24.5037L7.06614 22.6871ZM4.00382 20.372C3.17916 19.3919 2.59431 18.254 2.25149 16.9444L0.316689 17.4509C0.731446 19.0353 1.44963 20.4428 2.47345 21.6597L4.00382 20.372ZM2.25182 16.9457C1.91265 15.6433 1.8628 14.2303 2.12239 12.6938L0.150337 12.3606C-0.150674 14.1423 -0.102046 15.843 0.316367 17.4497L2.25182 16.9457ZM2.12312 12.6894C2.37572 11.1528 2.89735 9.71743 3.6902 8.3773L1.96889 7.35893C1.04962 8.91274 0.442467 10.5834 0.149607 12.365L2.12312 12.6894ZM3.6894 8.37866C4.49761 7.01746 5.49917 5.82491 6.69662 4.79751L5.39429 3.27963C4.03114 4.44921 2.88875 5.80969 1.96969 7.35758L3.6894 8.37866ZM6.6944 4.79941C7.90129 3.77 9.22503 2.96706 10.6684 2.38688L9.9225 0.53118C8.27497 1.19342 6.76538 2.11018 5.39651 3.27774L6.6944 4.79941ZM10.6668 2.3875C12.1039 1.8127 13.5764 1.52721 15.0909 1.52721V-0.47279C13.3175 -0.47279 11.5931 -0.137064 9.92406 0.530551L10.6668 2.3875ZM15.0909 1.52721C16.6393 1.52721 18.0006 1.81384 19.1933 2.36639L20.034 0.55167C18.5449 -0.138207 16.891 -0.47279 15.0909 -0.47279V1.52721ZM19.1952 2.36729C20.4141 2.92877 21.4257 3.69916 22.2436 4.67928L23.7792 3.39787C22.7637 2.18102 21.5102 1.23171 20.032 0.55077L19.1952 2.36729ZM22.2436 4.67928C23.061 5.65881 23.6433 6.80092 23.9868 8.12013L25.9223 7.61611C25.5082 6.02623 24.7951 4.61531 23.7792 3.39787L22.2436 4.67928ZM23.9884 8.1261C24.3344 9.42187 24.3946 10.8319 24.1489 12.3694L26.1238 12.685C26.4084 10.9043 26.3474 9.20831 25.9207 7.61014L23.9884 8.1261ZM24.1496 12.365C23.8972 13.9003 23.3724 15.3391 22.572 16.6871L24.2917 17.7082C25.2186 16.1471 25.83 14.4723 26.1231 12.6894L24.1496 12.365ZM22.5731 16.6852C21.765 18.0392 20.7631 19.2287 19.5647 20.2569L20.8671 21.7748C22.2293 20.606 23.3714 19.2501 24.2905 17.7102L22.5731 16.6852ZM19.5647 20.2569C18.3678 21.2839 17.0423 22.0861 15.5847 22.6663L16.3244 24.5245C17.988 23.8623 19.5034 22.9448 20.8671 21.7748L19.5647 20.2569ZM15.5832 22.6669C14.1473 23.2413 12.6672 23.5272 11.1364 23.5272V25.5272C12.9237 25.5272 14.6558 25.1919 16.3259 24.5239L15.5832 22.6669ZM11.1364 24.7999C12.8337 24.7999 14.4823 24.4795 16.0759 23.8421L15.3332 21.9851C13.9722 22.5295 12.5754 22.7999 11.1364 22.7999V24.7999ZM16.0759 23.8421C17.656 23.21 19.0987 22.3344 20.4008 21.2183L19.0992 19.6998C17.9619 20.6746 16.7077 21.4353 15.3332 21.9851L16.0759 23.8421ZM20.4008 21.2183C21.7022 20.1028 22.7915 18.8112 23.6656 17.3464L21.9481 16.3216C21.1857 17.5993 20.2372 18.7244 19.0992 19.6998L20.4008 21.2183ZM23.6668 17.3443C24.548 15.8594 25.1293 14.2679 25.4072 12.5757L23.4337 12.2515C23.1965 13.6956 22.702 15.0511 21.9468 16.3237L23.6668 17.3443ZM25.4086 12.5671C25.6694 10.8882 25.6125 9.29303 25.2169 7.79464L23.2831 8.30523C23.5996 9.50381 23.6564 10.8177 23.4323 12.2601L25.4086 12.5671ZM25.2172 7.79598C24.8261 6.30634 24.1589 4.98649 23.2105 3.85181L21.6759 5.13443C22.4245 6.03005 22.9618 7.08141 23.2828 8.3039L25.2172 7.79598ZM23.2105 3.85181C22.2611 2.71601 21.0847 1.83431 19.6958 1.20681L18.8724 3.02942C19.9987 3.53829 20.9283 4.23993 21.6759 5.13443L23.2105 3.85181ZM19.7025 1.20984C18.306 0.56661 16.763 0.254482 15.0909 0.254482V2.25448C16.5098 2.25448 17.7622 2.51811 18.8657 3.0264L19.7025 1.20984ZM15.0909 0.254482C13.4005 0.254482 11.7589 0.575174 10.1724 1.21303L10.9185 3.06866C12.2714 2.5247 13.6601 2.25448 15.0909 2.25448V0.254482ZM10.1724 1.21303C8.59867 1.84577 7.15953 2.72603 5.85787 3.84983L7.16486 5.36368C8.30259 4.38142 9.55284 3.61774 10.9185 3.06866L10.1724 1.21303ZM5.85824 3.84951C4.56414 4.96567 3.47917 6.26122 2.60593 7.7328L4.32589 8.75344C5.08901 7.46745 6.03435 6.33875 7.16449 5.36401L5.85824 3.84951ZM2.60716 7.73072C1.72503 9.20912 1.1435 10.7976 0.865495 12.4901L2.83905 12.8143C3.0762 11.3705 3.57043 10.0195 4.32466 8.75552L2.60716 7.73072ZM0.866813 12.4823C0.58049 14.143 0.621081 15.7306 1.00908 17.232L2.94547 16.7315C2.63649 15.536 2.59375 14.2372 2.83773 12.8221L0.866813 12.4823ZM1.00942 17.2333C1.39319 18.71 2.05696 20.0253 3.00311 21.1657L4.54235 19.8887C3.79153 18.9837 3.25832 17.9354 2.94512 16.7302L1.00942 17.2333ZM3.0059 21.1691C3.95914 22.3079 5.131 23.1994 6.50893 23.8425L7.3547 22.0301C6.23264 21.5065 5.29843 20.792 4.53955 19.8854L3.0059 21.1691ZM6.51554 23.8455C7.91833 24.4878 9.46419 24.7999 11.1364 24.7999V22.7999C9.71763 22.7999 8.46046 22.5363 7.3481 22.0271L6.51554 23.8455ZM37.7812 24.1636L36.7929 24.0115L36.6156 25.1636H37.7812V24.1636ZM37.8722 23.5727L37.1687 22.8619L36.934 23.0942L36.8838 23.4206L37.8722 23.5727ZM46.7812 14.7545L46.0819 14.0397L46.0778 14.0438L46.7812 14.7545ZM50.1108 11.2999L50.8626 11.9593L50.8653 11.9563L50.1108 11.2999ZM51.8949 8.82266L52.7798 9.28841L52.7818 9.2846L51.8949 8.82266ZM52.6449 6.57266L51.6581 6.41065L51.657 6.4177L52.6449 6.57266ZM52.429 3.85676L53.3605 3.49303V3.49303L52.429 3.85676ZM50.8949 1.98176L50.3568 2.82468L50.3569 2.82468L50.8949 1.98176ZM45.2926 2.03857L45.7658 2.91951V2.91951L45.2926 2.03857ZM42.9972 4.00448L42.1972 3.40448V3.40448L42.9972 4.00448ZM41.8267 6.70903V7.70903H42.6717L42.8127 6.87589L41.8267 6.70903ZM41.0994 6.70903L40.1123 6.54896L39.9242 7.70903H41.0994V6.70903ZM42.3835 3.64085L41.5765 3.05034L41.5756 3.05149L42.3835 3.64085ZM44.929 1.41357L45.4074 2.29172L45.4096 2.29047L44.929 1.41357ZM51.2812 1.35676L50.7499 2.20391L50.7554 2.20735L51.2812 1.35676ZM53.0994 3.49312L52.1763 3.87774L52.1775 3.88048L53.0994 3.49312ZM53.3722 6.57266L52.3864 6.40405L52.3844 6.4167L53.3722 6.57266ZM52.554 9.03857L53.4396 9.5029V9.5029L52.554 9.03857ZM50.679 11.6522L51.4319 12.3103L50.679 11.6522ZM47.2812 15.209L47.9844 15.9201L47.9846 15.9199L47.2812 15.209ZM39.054 23.3454L38.3508 22.6344L38.054 22.9279V23.3454H39.054ZM39.054 23.4363H38.054V24.4363H39.054V23.4363ZM51.9631 23.4363L52.9459 23.6206L53.168 22.4363H51.9631V23.4363ZM51.8267 24.1636V25.1636H52.6566L52.8096 24.3479L51.8267 24.1636ZM38.7696 24.3156L38.8605 23.7247L36.8838 23.4206L36.7929 24.0115L38.7696 24.3156ZM38.5756 24.2834L47.4847 15.4652L46.0778 14.0438L37.1687 22.8619L38.5756 24.2834ZM47.4806 15.4692C48.8985 14.0819 50.0284 12.9105 50.8626 11.9593L49.359 10.6406C48.572 11.5378 47.4822 12.6695 46.0819 14.0397L47.4806 15.4692ZM50.8653 11.9563C51.7033 10.9929 52.3516 10.102 52.7798 9.28841L51.01 8.35692C50.6806 8.98276 50.1395 9.74334 49.3563 10.6436L50.8653 11.9563ZM52.7818 9.2846C53.2082 8.46584 53.494 7.61258 53.6328 6.72763L51.657 6.4177C51.5534 7.0782 51.3391 7.72494 51.008 8.36073L52.7818 9.2846ZM53.6317 6.73467C53.8214 5.5788 53.7485 4.48683 53.3605 3.49303L51.4975 4.22049C51.7306 4.81759 51.8017 5.53622 51.6581 6.41065L53.6317 6.73467ZM53.3605 3.49303C52.9737 2.50248 52.3257 1.70871 51.4329 1.13883L50.3569 2.82468C50.8883 3.1639 51.263 3.62012 51.4975 4.22049L53.3605 3.49303ZM51.4329 1.13883C50.528 0.561204 49.4601 0.299936 48.2812 0.299936V2.29994C49.163 2.29994 49.8376 2.49321 50.3568 2.82468L51.4329 1.13883ZM48.2812 0.299936C47.0461 0.299936 45.8866 0.584354 44.8194 1.15764L45.7658 2.91951C46.532 2.50794 47.3648 2.29994 48.2812 2.29994V0.299936ZM44.8194 1.15764C43.777 1.71761 42.8996 2.46795 42.1972 3.40448L43.7972 4.60448C44.322 3.90466 44.9749 3.34439 45.7658 2.91951L44.8194 1.15764ZM42.1972 3.40448C41.4903 4.347 41.0346 5.39633 40.8407 6.54217L42.8127 6.87589C42.9521 6.05203 43.2768 5.29833 43.7972 4.60448L42.1972 3.40448ZM41.8267 5.70903H41.0994V7.70903H41.8267V5.70903ZM42.0865 6.8691C42.243 5.90424 42.6091 5.02838 43.1914 4.2302L41.5756 3.05149C40.8094 4.1018 40.3195 5.27139 40.1123 6.54896L42.0865 6.8691ZM43.1906 4.23136C43.7852 3.41861 44.5215 2.77434 45.4074 2.29172L44.4506 0.535428C43.3062 1.15886 42.3454 1.99945 41.5765 3.05034L43.1906 4.23136ZM45.4096 2.29047C46.2791 1.81386 47.2303 1.57266 48.2812 1.57266V-0.427336C46.908 -0.427336 45.6243 -0.107929 44.4483 0.536674L45.4096 2.29047ZM48.2812 1.57266C49.2953 1.57266 50.1033 1.79832 50.7499 2.20389L51.8126 0.509624C50.7925 -0.130262 49.6005 -0.427336 48.2812 -0.427336V1.57266ZM50.7554 2.20735C51.4099 2.61192 51.8775 3.1606 52.1764 3.87773L54.0225 3.1085C53.5637 2.00746 52.8193 1.1319 51.8071 0.506161L50.7554 2.20735ZM52.1775 3.88048C52.4693 4.5749 52.5577 5.40321 52.3865 6.40406L54.3578 6.74127C54.5806 5.43909 54.4872 4.21437 54.0214 3.10575L52.1775 3.88048ZM52.3844 6.4167C52.2652 7.17183 52.0272 7.88973 51.6683 8.57425L53.4396 9.5029C53.8989 8.62681 54.2064 7.70077 54.3599 6.72863L52.3844 6.4167ZM51.6683 8.57425C51.308 9.26151 50.7362 10.0672 49.926 10.9941L51.4319 12.3103C52.3036 11.313 52.9818 10.3762 53.4396 9.5029L51.6683 8.57425ZM49.926 10.9941C49.1073 11.9309 47.9934 13.0977 46.5779 14.4981L47.9846 15.9199C49.4175 14.5022 50.5689 13.2978 51.4319 12.3103L49.926 10.9941ZM46.5781 14.498L38.3508 22.6344L39.7571 24.0564L47.9844 15.9201L46.5781 14.498ZM38.054 23.3454V23.4363H40.054V23.3454H38.054ZM39.054 24.4363H51.9631V22.4363H39.054V24.4363ZM50.9802 23.252L50.8438 23.9793L52.8096 24.3479L52.9459 23.6206L50.9802 23.252ZM51.8267 23.1636H37.7812V25.1636H51.8267V23.1636ZM60.4858 23.0499L59.7561 23.7337L59.7617 23.7396L60.4858 23.0499ZM58.7244 18.9249L59.713 18.7741L58.7244 18.9249ZM58.929 12.5272L57.9425 12.3633L57.9423 12.3643L58.929 12.5272ZM60.8381 6.15221L59.9391 5.71416L59.9376 5.71725L60.8381 6.15221ZM63.9744 2.02721L64.5938 2.81235L64.5968 2.80997L63.9744 2.02721ZM71.5994 2.01585L70.8726 2.70264L70.8754 2.70564L71.5994 2.01585ZM73.3949 6.14085L72.407 6.29573V6.29573L73.3949 6.14085ZM73.2017 12.5272L74.1883 12.6906L73.2017 12.5272ZM71.2812 18.9136L72.1802 19.3516L71.2812 18.9136ZM68.1222 23.0386L67.5075 22.2497L67.5052 22.2516L68.1222 23.0386ZM69.304 20.8454L70.092 21.461L70.0932 21.4595L69.304 20.8454ZM72.4744 12.5272L71.488 12.3628L71.488 12.3631L72.4744 12.5272ZM72.7131 6.59539L71.7209 6.72053L71.7215 6.72492L72.7131 6.59539ZM71.2131 2.6863L71.9741 2.03757L71.2131 2.6863ZM62.804 4.23176L62.0136 3.61909L62.0133 3.61952L62.804 4.23176ZM59.6562 12.5272L60.6426 12.6916L60.6429 12.6899L59.6562 12.5272ZM59.3949 18.459L58.4022 18.5798L58.4027 18.5842L59.3949 18.459ZM60.8949 22.3681L61.6559 21.7194L60.8949 22.3681ZM64.0653 23.4818C62.8254 23.4818 61.9066 23.0918 61.2099 22.3603L59.7617 23.7396C60.8832 24.9172 62.3508 25.4818 64.0653 25.4818V23.4818ZM61.2155 22.3662C60.4949 21.5971 59.9663 20.4345 59.713 18.7741L57.7359 19.0757C58.028 20.9911 58.6737 22.5786 59.7561 23.7337L61.2155 22.3662ZM59.713 18.7741C59.461 17.1219 59.5175 15.1008 59.9156 12.6901L57.9423 12.3643C57.5222 14.9082 57.4424 17.1522 57.7359 19.0757L59.713 18.7741ZM59.9155 12.6911C60.3127 10.3 60.9254 8.27055 61.7385 6.58717L59.9376 5.71725C59.0235 7.60963 58.3634 9.83017 57.9425 12.3633L59.9155 12.6911ZM61.737 6.59026C62.5602 4.90099 63.5205 3.65895 64.5938 2.81234L63.3551 1.24208C61.989 2.31971 60.8584 3.82768 59.9391 5.71416L61.737 6.59026ZM64.5968 2.80997C65.6499 1.97265 66.7816 1.57266 68.0199 1.57266V-0.427336C66.3036 -0.427336 64.7383 0.142375 63.3521 1.24445L64.5968 2.80997ZM68.0199 1.57266C69.2573 1.57266 70.1753 1.96468 70.8726 2.70264L72.3263 1.32905C71.2054 0.142767 69.737 -0.427336 68.0199 -0.427336V1.57266ZM70.8754 2.70564C71.6092 3.47581 72.147 4.63782 72.407 6.29573L74.3828 5.98596C74.0821 4.06812 73.423 2.48013 72.3234 1.32605L70.8754 2.70564ZM72.407 6.29573C72.6657 7.94632 72.613 9.96214 72.2151 12.3638L74.1883 12.6906C74.6086 10.1529 74.6846 7.91113 74.3828 5.98596L72.407 6.29573ZM72.2151 12.3638C71.818 14.7616 71.2019 16.7935 70.3823 18.4755L72.1802 19.3516C73.103 17.4579 73.7673 15.2322 74.1883 12.6906L72.2151 12.3638ZM70.3823 18.4755C69.5603 20.1623 68.5941 21.4032 67.5075 22.2497L68.7368 23.8274C70.1199 22.7497 71.2597 21.2406 72.1802 19.3516L70.3823 18.4755ZM67.5052 22.2516C66.4435 23.0839 65.3059 23.4818 64.0653 23.4818V25.4818C65.7793 25.4818 67.3463 24.9175 68.7391 23.8256L67.5052 22.2516ZM64.1108 24.7545C66.4449 24.7545 68.4422 23.5727 70.092 21.461L68.516 20.2297C67.1354 21.9968 65.6706 22.7545 64.1108 22.7545V24.7545ZM70.0932 21.4595C71.7478 19.3333 72.8472 16.3811 73.4609 12.6913L71.488 12.3631C70.9047 15.8703 69.8905 18.4635 68.5148 20.2312L70.0932 21.4595ZM73.4608 12.6916C73.8504 10.354 73.9407 8.27326 73.7046 6.46586L71.7215 6.72492C71.9248 8.28116 71.856 10.155 71.488 12.3628L73.4608 12.6916ZM73.7052 6.47026C73.478 4.66876 72.9292 3.15797 71.9741 2.03757L70.4521 3.33503C71.0727 4.06311 71.5239 5.15838 71.7209 6.72053L73.7052 6.47026ZM71.9741 2.03757C70.975 0.865562 69.6193 0.299936 68.0199 0.299936V2.29994C69.1023 2.29994 69.8754 2.65855 70.4521 3.33503L71.9741 2.03757ZM68.0199 0.299936C65.6697 0.299936 63.664 1.49016 62.0136 3.61909L63.5943 4.84442C64.9743 3.06426 66.4458 2.29994 68.0199 2.29994V0.299936ZM62.0133 3.61952C60.3672 5.7454 59.2756 8.68946 58.6696 12.3645L60.6429 12.6899C61.2187 9.19829 62.2256 6.61205 63.5947 4.84399L62.0133 3.61952ZM58.6699 12.3628C58.2806 14.6984 58.1828 16.7759 58.4022 18.5798L60.3876 18.3383C60.1979 16.7785 60.2743 14.9015 60.6426 12.6916L58.6699 12.3628ZM58.4027 18.5842C58.63 20.3857 59.1788 21.8964 60.1339 23.0169L61.6559 21.7194C61.0352 20.9913 60.5841 19.896 60.387 18.3339L58.4027 18.5842ZM60.1339 23.0169C61.1353 24.1916 62.5002 24.7545 64.1108 24.7545V22.7545C63.0093 22.7545 62.2302 22.3931 61.6559 21.7194L60.1339 23.0169ZM76.5625 24.1636L75.5741 24.0115L75.3969 25.1636H76.5625V24.1636ZM76.6534 23.5727L75.9499 22.8619L75.7152 23.0942L75.665 23.4206L76.6534 23.5727ZM85.5625 14.7545L84.8631 14.0397L84.859 14.0438L85.5625 14.7545ZM88.892 11.2999L89.6439 11.9593L89.6465 11.9563L88.892 11.2999ZM90.6761 8.82266L91.5611 9.28841L91.563 9.2846L90.6761 8.82266ZM91.4261 6.57266L90.4393 6.41065L90.4382 6.4177L91.4261 6.57266ZM91.2102 3.85676L92.1417 3.49303V3.49303L91.2102 3.85676ZM89.6761 1.98176L89.1381 2.82468V2.82468L89.6761 1.98176ZM84.0739 2.03857L84.5471 2.91951V2.91951L84.0739 2.03857ZM81.7784 4.00448L80.9784 3.40448V3.40448L81.7784 4.00448ZM80.608 6.70903V7.70903H81.4529L81.5939 6.87589L80.608 6.70903ZM79.8807 6.70903L78.8936 6.54896L78.7055 7.70903H79.8807V6.70903ZM81.1648 3.64085L80.3577 3.05034L80.3569 3.05149L81.1648 3.64085ZM83.7102 1.41357L84.1886 2.29172L84.1909 2.29047L83.7102 1.41357ZM90.0625 1.35676L89.5311 2.20391L89.5367 2.20735L90.0625 1.35676ZM91.8807 3.49312L90.9576 3.87774L90.9588 3.88048L91.8807 3.49312ZM92.1534 6.57266L91.1676 6.40405L91.1656 6.4167L92.1534 6.57266ZM91.3352 9.03857L92.2209 9.5029V9.5029L91.3352 9.03857ZM89.4602 11.6522L90.2132 12.3103L89.4602 11.6522ZM86.0625 15.209L86.7657 15.9201L86.7658 15.9199L86.0625 15.209ZM77.8352 23.3454L77.1321 22.6344L76.8352 22.9279V23.3454H77.8352ZM77.8352 23.4363H76.8352V24.4363H77.8352V23.4363ZM90.7443 23.4363L91.7272 23.6206L91.9492 22.4363H90.7443V23.4363ZM90.608 24.1636V25.1636H91.4379L91.5908 24.3479L90.608 24.1636ZM77.5509 24.3156L77.6418 23.7247L75.665 23.4206L75.5741 24.0115L77.5509 24.3156ZM77.3569 24.2834L86.266 15.4652L84.859 14.0438L75.9499 22.8619L77.3569 24.2834ZM86.2619 15.4692C87.6797 14.0819 88.8096 12.9105 89.6439 11.9593L88.1402 10.6406C87.3533 11.5378 86.2635 12.6695 84.8631 14.0397L86.2619 15.4692ZM89.6465 11.9563C90.4846 10.9929 91.1329 10.102 91.5611 9.28841L89.7912 8.35692C89.4618 8.98276 88.9207 9.74334 88.1376 10.6436L89.6465 11.9563ZM91.563 9.2846C91.9895 8.46584 92.2752 7.61258 92.4141 6.72763L90.4382 6.4177C90.3346 7.0782 90.1204 7.72494 89.7892 8.36073L91.563 9.2846ZM92.4129 6.73467C92.6027 5.5788 92.5298 4.48683 92.1417 3.49303L90.2787 4.22049C90.5119 4.81759 90.5829 5.53622 90.4393 6.41065L92.4129 6.73467ZM92.1417 3.49303C91.755 2.50248 91.107 1.70871 90.2142 1.13883L89.1381 2.82468C89.6695 3.1639 90.0443 3.62012 90.2787 4.22049L92.1417 3.49303ZM90.2142 1.13883C89.3092 0.561204 88.2414 0.299936 87.0625 0.299936V2.29994C87.9442 2.29994 88.6188 2.49321 89.1381 2.82468L90.2142 1.13883ZM87.0625 0.299936C85.8274 0.299936 84.6678 0.584354 83.6006 1.15764L84.5471 2.91951C85.3132 2.50794 86.1461 2.29994 87.0625 2.29994V0.299936ZM83.6006 1.15764C82.5582 1.71761 81.6808 2.46795 80.9784 3.40448L82.5784 4.60448C83.1033 3.90466 83.7562 3.34439 84.5471 2.91951L83.6006 1.15764ZM80.9784 3.40448C80.2715 4.347 79.8159 5.39633 79.622 6.54217L81.5939 6.87589C81.7334 6.05203 82.058 5.29833 82.5784 4.60448L80.9784 3.40448ZM80.608 5.70903H79.8807V7.70903H80.608V5.70903ZM80.8678 6.8691C81.0243 5.90424 81.3904 5.02838 81.9726 4.2302L80.3569 3.05149C79.5907 4.1018 79.1007 5.27139 78.8936 6.54896L80.8678 6.8691ZM81.9718 4.23136C82.5665 3.41861 83.3027 2.77434 84.1886 2.29172L83.2318 0.535428C82.0874 1.15886 81.1267 1.99945 80.3577 3.05034L81.9718 4.23136ZM84.1909 2.29047C85.0604 1.81386 86.0115 1.57266 87.0625 1.57266V-0.427336C85.6892 -0.427336 84.4055 -0.107929 83.2296 0.536674L84.1909 2.29047ZM87.0625 1.57266C88.0766 1.57266 88.8846 1.79832 89.5311 2.20389L90.5939 0.509624C89.5738 -0.130262 88.3818 -0.427336 87.0625 -0.427336V1.57266ZM89.5367 2.20735C90.1911 2.61192 90.6588 3.1606 90.9576 3.87773L92.8038 3.1085C92.345 2.00746 91.6005 1.1319 90.5883 0.506161L89.5367 2.20735ZM90.9588 3.88048C91.2505 4.5749 91.3389 5.40321 91.1677 6.40406L93.1391 6.74127C93.3618 5.43909 93.2684 4.21437 92.8026 3.10575L90.9588 3.88048ZM91.1656 6.4167C91.0464 7.17183 90.8084 7.88973 90.4496 8.57425L92.2209 9.5029C92.6802 8.62681 92.9877 7.70077 93.1412 6.72863L91.1656 6.4167ZM90.4496 8.57425C90.0892 9.26151 89.5175 10.0672 88.7073 10.9941L90.2132 12.3103C91.0848 11.313 91.763 10.3762 92.2209 9.5029L90.4496 8.57425ZM88.7073 10.9941C87.8885 11.9309 86.7747 13.0977 85.3592 14.4981L86.7658 15.9199C88.1988 14.5022 89.3501 13.2978 90.2132 12.3103L88.7073 10.9941ZM85.3593 14.498L77.1321 22.6344L78.5384 24.0564L86.7657 15.9201L85.3593 14.498ZM76.8352 23.3454V23.4363H78.8352V23.3454H76.8352ZM77.8352 24.4363H90.7443V22.4363H77.8352V24.4363ZM89.7614 23.252L89.6251 23.9793L91.5908 24.3479L91.7272 23.6206L89.7614 23.252ZM90.608 23.1636H76.5625V25.1636H90.608V23.1636ZM96.2557 18.709L95.2693 18.5446L95.0752 19.709H96.2557V18.709ZM96.3466 18.1636L95.5597 17.5465L95.4022 17.7474L95.3602 17.9992L96.3466 18.1636ZM109.892 0.890846V-0.109154H109.405L109.105 0.273757L109.892 0.890846ZM110.347 0.890846L111.335 1.04065L111.51 -0.109154H110.347V0.890846ZM110.119 2.39085V3.39085H110.979L111.108 2.54065L110.119 2.39085ZM109.574 2.39085V1.39085H109.087L108.787 1.77435L109.574 2.39085ZM97.4375 17.8908L96.6501 17.2744L96.4375 17.5459V17.8908H97.4375ZM97.4375 17.9818H96.4375V18.9818H97.4375V17.9818ZM110.71 17.9818L111.693 18.166L111.915 16.9818H110.71V17.9818ZM110.574 18.709V19.709H111.404L111.557 18.8933L110.574 18.709ZM106.028 24.1636L105.042 23.9979L104.846 25.1636H106.028V24.1636ZM106.983 18.4818L106.002 18.2856L105.999 18.3008L105.997 18.3161L106.983 18.4818ZM107.028 18.2545L108.009 18.4506L108.012 18.434L108.015 18.4172L107.028 18.2545ZM109.892 0.890846V-0.109154H109.043L108.905 0.728123L109.892 0.890846ZM110.619 0.890846L111.606 1.05462L111.799 -0.109154H110.619V0.890846ZM106.756 24.1636V25.1636H107.603L107.742 24.3273L106.756 24.1636ZM97.2421 18.8734L97.333 18.328L95.3602 17.9992L95.2693 18.5446L97.2421 18.8734ZM97.1335 18.7807L110.679 1.50794L109.105 0.273757L95.5597 17.5465L97.1335 18.7807ZM109.892 1.89085H110.347V-0.109154H109.892V1.89085ZM109.358 0.741041L109.131 2.24104L111.108 2.54065L111.335 1.04065L109.358 0.741041ZM110.119 1.39085H109.574V3.39085H110.119V1.39085ZM108.787 1.77435L96.6501 17.2744L98.2249 18.5073L110.361 3.00734L108.787 1.77435ZM96.4375 17.8908V17.9818H98.4375V17.8908H96.4375ZM97.4375 18.9818H110.71V16.9818H97.4375V18.9818ZM109.727 17.7975L109.591 18.5247L111.557 18.8933L111.693 18.166L109.727 17.7975ZM110.574 17.709H96.2557V19.709H110.574V17.709ZM107.015 24.3293L107.969 18.6474L105.997 18.3161L105.042 23.9979L107.015 24.3293ZM107.964 18.6779L108.009 18.4506L106.048 18.0584L106.002 18.2856L107.964 18.6779ZM108.015 18.4172L110.879 1.05357L108.905 0.728123L106.042 18.0918L108.015 18.4172ZM109.892 1.89085H110.619V-0.109154H109.892V1.89085ZM109.633 0.727072L105.769 23.9998L107.742 24.3273L111.606 1.05462L109.633 0.727072ZM106.756 23.1636H106.028V25.1636H106.756V23.1636ZM124.651 24.1636L123.664 23.9998L123.471 25.1636H124.651V24.1636ZM128.514 0.890846V-0.109154H127.667L127.528 0.727072L128.514 0.890846ZM129.241 0.890846L130.228 1.05396L130.42 -0.109154H129.241V0.890846ZM125.514 23.4363L124.528 23.2732L124.335 24.4363H125.514V23.4363ZM137.151 23.4363L138.133 23.6206L138.355 22.4363H137.151V23.4363ZM137.014 24.1636V25.1636H137.844L137.997 24.3479L137.014 24.1636ZM125.637 24.3273L129.501 1.05462L127.528 0.727072L123.664 23.9998L125.637 24.3273ZM128.514 1.89085H129.241V-0.109154H128.514V1.89085ZM128.255 0.727737L124.528 23.2732L126.501 23.5994L130.228 1.05396L128.255 0.727737ZM125.514 24.4363H137.151V22.4363H125.514V24.4363ZM136.168 23.252L136.031 23.9793L137.997 24.3479L138.133 23.6206L136.168 23.252ZM137.014 23.1636H124.651V25.1636H137.014V23.1636ZM144.764 23.334L144.127 24.1047L144.13 24.1072L144.764 23.334ZM142.696 20.0727L141.737 20.3571L141.739 20.3619L142.696 20.0727ZM142.514 15.3908L141.528 15.2236L141.528 15.2278L142.514 15.3908ZM144.219 10.8227L143.373 10.2888L143.372 10.2901L144.219 10.8227ZM147.31 7.61812L147.853 8.45741L147.855 8.45656L147.31 7.61812ZM154.685 7.64085L154.044 8.40858L154.047 8.41104L154.685 7.64085ZM156.753 10.9136L155.794 11.198L155.796 11.2029L156.753 10.9136ZM156.969 15.5727L157.955 15.7399L157.957 15.7286L156.969 15.5727ZM155.253 20.1522L156.097 20.6882L156.098 20.686L155.253 20.1522ZM152.151 23.3568L152.692 24.1976L152.696 24.1952L152.151 23.3568ZM151.844 22.709L152.391 23.5463L152.395 23.5437L151.844 22.709ZM154.685 19.709L155.536 20.234L155.537 20.2317L154.685 19.709ZM156.241 15.3908L155.255 15.228L155.254 15.2325L156.241 15.3908ZM156.094 11.1863L155.132 11.4618V11.4618L156.094 11.1863ZM154.287 8.24312L153.64 9.00573L154.287 8.24312ZM147.662 8.27721L148.213 9.11188L148.217 9.10926L147.662 8.27721ZM144.81 11.2886L145.659 11.8172L145.66 11.8149L144.81 11.2886ZM143.241 15.5727L144.227 15.7448L144.229 15.7325L143.241 15.5727ZM143.366 19.7772L142.405 20.0527L142.407 20.0581L143.366 19.7772ZM145.185 22.7204L144.538 23.483L144.541 23.4858L145.185 22.7204ZM148.287 23.5272C147.115 23.5272 146.171 23.1948 145.398 22.5609L144.13 24.1072C145.297 25.0642 146.701 25.5272 148.287 25.5272V23.5272ZM145.401 22.5633C144.613 21.9118 144.022 21.0035 143.653 19.7834L141.739 20.3619C142.203 21.8995 142.991 23.1654 144.127 24.1047L145.401 22.5633ZM143.655 19.7882C143.297 18.5838 143.232 17.1803 143.501 15.5539L141.528 15.2278C141.221 17.0862 141.276 18.8039 141.737 20.3571L143.655 19.7882ZM143.5 15.5581C143.768 13.9804 144.292 12.5836 145.065 11.3552L143.372 10.2901C142.448 11.7587 141.836 13.4074 141.528 15.2236L143.5 15.5581ZM145.064 11.3565C145.852 10.1084 146.784 9.15016 147.853 8.45741L146.766 6.77883C145.426 7.64669 144.297 8.82476 143.373 10.2888L145.064 11.3565ZM147.855 8.45656C148.917 7.76617 150.01 7.4363 151.151 7.4363V5.4363C149.595 5.4363 148.127 5.89431 146.765 6.77967L147.855 8.45656ZM151.151 7.4363C152.338 7.4363 153.282 7.77266 154.044 8.40857L155.325 6.87312C154.163 5.90297 152.751 5.4363 151.151 5.4363V7.4363ZM154.047 8.41104C154.843 9.07019 155.433 9.98149 155.794 11.198L157.712 10.6291C157.254 9.08808 156.466 7.81756 155.322 6.87066L154.047 8.41104ZM155.796 11.2029C156.16 12.4099 156.235 13.8069 155.981 15.4167L157.957 15.7286C158.248 13.8839 158.179 12.1749 157.71 10.6243L155.796 11.2029ZM155.983 15.4054C155.715 16.9818 155.188 18.382 154.407 19.6184L156.098 20.686C157.03 19.2103 157.646 17.5575 157.955 15.7399L155.983 15.4054ZM154.409 19.6163C153.621 20.8564 152.685 21.8165 151.606 22.5183L152.696 24.1952C154.04 23.3213 155.172 22.145 156.097 20.6882L154.409 19.6163ZM151.609 22.5159C150.549 23.1985 149.447 23.5272 148.287 23.5272V25.5272C149.854 25.5272 151.328 25.0756 152.692 24.1976L151.609 22.5159ZM148.287 24.7999C149.75 24.7999 151.124 24.3733 152.391 23.5463L151.297 21.8718C150.336 22.4993 149.339 22.7999 148.287 22.7999V24.7999ZM152.395 23.5437C153.643 22.72 154.688 21.6088 155.536 20.234L153.834 19.1841C153.121 20.3396 152.272 21.2284 151.293 21.8744L152.395 23.5437ZM155.537 20.2317C156.392 18.8379 156.952 17.2727 157.229 15.5492L155.254 15.2325C155.015 16.7211 154.538 18.0347 153.832 19.1863L155.537 20.2317ZM157.228 15.5537C157.505 13.879 157.46 12.3239 157.055 10.9108L155.132 11.4618C155.44 12.5335 155.494 13.7815 155.255 15.228L157.228 15.5537ZM157.055 10.9108C156.654 9.50998 155.956 8.3476 154.934 7.48051L153.64 9.00573C154.315 9.57803 154.822 10.3778 155.132 11.4618L157.055 10.9108ZM154.934 7.48051C153.888 6.59343 152.622 6.16357 151.196 6.16357V8.16357C152.194 8.16357 152.989 8.45342 153.64 9.00573L154.934 7.48051ZM151.196 6.16357C149.741 6.16357 148.372 6.60209 147.107 7.44516L148.217 9.10926C149.179 8.46748 150.166 8.16357 151.196 8.16357V6.16357ZM147.111 7.44255C145.863 8.26647 144.814 9.38132 143.959 10.7622L145.66 11.8149C146.381 10.6504 147.234 9.75764 148.213 9.11187L147.111 7.44255ZM143.961 10.7599C143.097 12.1465 142.531 13.7018 142.254 15.4128L144.229 15.7325C144.467 14.2617 144.946 12.9609 145.659 11.8172L143.961 10.7599ZM142.256 15.4005C141.963 17.0772 141.999 18.6357 142.405 20.0527L144.328 19.5017C144.022 18.4339 143.974 17.1894 144.227 15.7448L142.256 15.4005ZM142.407 20.0581C142.816 21.4568 143.517 22.6172 144.538 23.483L145.832 21.9578C145.155 21.3842 144.644 20.5824 144.326 19.4963L142.407 20.0581ZM144.541 23.4858C145.593 24.3701 146.861 24.7999 148.287 24.7999V22.7999C147.289 22.7999 146.488 22.51 145.828 21.955L144.541 23.4858ZM162.818 30.6749L163.137 29.7271L163.129 29.7244L162.818 30.6749ZM160.852 29.5045L161.559 28.7974L161.554 28.7922L160.852 29.5045ZM159.818 27.5727L159.502 26.624L158.652 26.9074L158.841 27.7835L159.818 27.5727ZM160.5 27.3454L161.476 27.1285L161.236 26.0461L160.184 26.3967L160.5 27.3454ZM161.398 29.0272L162.105 28.3201L162.099 28.3141L161.398 29.0272ZM163.102 30.0158L163.406 29.063L163.396 29.0601L163.102 30.0158ZM169.989 28.9022L170.613 29.6836L169.989 28.9022ZM172.273 24.5272L171.286 24.3659L171.286 24.3665L172.273 24.5272ZM173.045 19.7999L174.032 19.9613L174.222 18.7999H173.045V19.7999ZM172.955 19.7999V18.7999H172.319L172.049 19.3755L172.955 19.7999ZM171.205 22.2318L171.879 22.9699L171.88 22.9696L171.205 22.2318ZM168.875 23.6863L169.229 24.6216L169.233 24.6199L168.875 23.6863ZM162.943 23.0613L162.305 23.8311L162.943 23.0613ZM161.114 20.0045L162.082 19.7567V19.7566L161.114 20.0045ZM161.045 15.4818L162.032 15.6476L162.032 15.6462L161.045 15.4818ZM162.636 10.8454L163.506 11.3384L162.636 10.8454ZM165.5 7.61812L164.93 6.79632L165.5 7.61812ZM171.739 7.01585L171.258 7.89273L171.269 7.89872L171.739 7.01585ZM173.477 8.65221L172.63 9.18387L172.637 9.19434L173.477 8.65221ZM174.409 11.1636L173.424 11.333L173.566 12.1636H174.409V11.1636ZM174.5 11.1636V12.1636H175.35L175.487 11.3247L174.5 11.1636ZM175.227 6.70903V5.70903H174.377L174.24 6.5479L175.227 6.70903ZM175.955 6.70903L176.941 6.87261L177.134 5.70903H175.955V6.70903ZM173 24.5272L173.986 24.6933L173.987 24.6908L173 24.5272ZM171.625 28.1408L170.804 27.57L171.625 28.1408ZM169.045 30.334L168.619 29.4294L169.045 30.334ZM169.67 22.4704L169.14 21.6224L169.138 21.6242L169.67 22.4704ZM172.284 19.7204L171.429 19.2027L171.426 19.2067L172.284 19.7204ZM173.773 15.4818L174.759 15.6462L174.76 15.6431L173.773 15.4818ZM173.761 11.2431L172.782 11.4438L172.783 11.4506L173.761 11.2431ZM172.227 8.26585L171.531 8.98368L171.538 8.99067L172.227 8.26585ZM165.83 8.26585L166.406 9.08282L166.407 9.08199L165.83 8.26585ZM163.216 11.2431L162.346 10.7504L162.345 10.7521L163.216 11.2431ZM161.773 15.4818L160.786 15.3204L161.773 15.4818ZM161.784 19.6408L160.808 19.8571L160.809 19.8643L161.784 19.6408ZM163.33 22.4363L162.665 23.1833L162.673 23.1903L163.33 22.4363ZM165.455 30.0727C164.576 30.0727 163.807 29.9525 163.137 29.7272L162.499 31.6227C163.405 31.9277 164.394 32.0727 165.455 32.0727V30.0727ZM163.129 29.7244C162.472 29.5097 161.958 29.1961 161.559 28.7974L160.145 30.2116C160.792 30.8583 161.588 31.325 162.507 31.6254L163.129 29.7244ZM161.554 28.7922C161.181 28.4244 160.925 27.9595 160.796 27.3618L158.841 27.7835C159.045 28.7313 159.478 29.5542 160.15 30.2167L161.554 28.7922ZM160.134 28.5213L160.816 28.2941L160.184 26.3967L159.502 26.624L160.134 28.5213ZM159.524 27.5623C159.712 28.4103 160.097 29.1504 160.697 29.7403L162.099 28.3141C161.805 28.0252 161.591 27.6441 161.476 27.1285L159.524 27.5623ZM160.691 29.7343C161.268 30.312 161.985 30.7184 162.808 30.9716L163.396 29.0601C162.841 28.8891 162.421 28.6364 162.105 28.3201L160.691 29.7343ZM162.799 30.9686C163.605 31.2255 164.494 31.3454 165.455 31.3454V29.3454C164.657 29.3454 163.979 29.2456 163.406 29.0631L162.799 30.9686ZM165.455 31.3454C167.457 31.3454 169.2 30.8116 170.613 29.6836L169.365 28.1209C168.368 28.9171 167.088 29.3454 165.455 29.3454V31.3454ZM170.613 29.6836C172.061 28.5266 172.913 26.8154 173.26 24.6879L171.286 24.3665C170.996 26.1482 170.325 27.3536 169.365 28.1209L170.613 29.6836ZM173.26 24.6885L174.032 19.9613L172.059 19.6386L171.286 24.3659L173.26 24.6885ZM173.045 18.7999H172.955V20.7999H173.045V18.7999ZM172.049 19.3755C171.644 20.2397 171.135 20.94 170.53 21.4939L171.88 22.9696C172.698 22.2205 173.356 21.2996 173.86 20.2244L172.049 19.3755ZM170.53 21.4936C169.913 22.0575 169.243 22.474 168.517 22.7527L169.233 24.6199C170.204 24.2471 171.087 23.6939 171.879 22.9699L170.53 21.4936ZM168.521 22.751C167.789 23.0282 167.056 23.1636 166.318 23.1636V25.1636C167.308 25.1636 168.28 24.9808 169.229 24.6216L168.521 22.751ZM166.318 23.1636C165.143 23.1636 164.257 22.8512 163.581 22.2915L162.305 23.8311C163.403 24.7411 164.766 25.1636 166.318 25.1636V23.1636ZM163.581 22.2915C162.884 21.713 162.373 20.8907 162.082 19.7567L160.145 20.2523C160.521 21.7243 161.23 22.9399 162.305 23.8311L163.581 22.2915ZM162.082 19.7566C161.792 18.622 161.76 17.2605 162.032 15.6476L160.059 15.3159C159.755 17.1273 159.768 18.7809 160.145 20.2523L162.082 19.7566ZM162.032 15.6462C162.303 14.0209 162.798 12.5889 163.506 11.3384L161.766 10.3524C160.93 11.8291 160.364 13.488 160.059 15.3174L162.032 15.6462ZM163.506 11.3384C164.215 10.088 165.072 9.13137 166.07 8.43992L164.93 6.79632C163.655 7.68062 162.603 8.87551 161.766 10.3524L163.506 11.3384ZM166.07 8.43992C167.039 7.76771 168.098 7.4363 169.273 7.4363V5.4363C167.69 5.4363 166.233 5.89277 164.93 6.79632L166.07 8.43992ZM169.273 7.4363C170.073 7.4363 170.724 7.59981 171.258 7.89266L172.219 6.13903C171.344 5.65915 170.352 5.4363 169.273 5.4363V7.4363ZM171.269 7.89872C171.82 8.19187 172.272 8.61323 172.63 9.18383L174.324 8.12059C173.788 7.26695 173.081 6.5974 172.208 6.13297L171.269 7.89872ZM172.637 9.19434C173.007 9.7678 173.276 10.4733 173.424 11.333L175.395 10.9942C175.209 9.91445 174.857 8.94571 174.318 8.11008L172.637 9.19434ZM174.409 12.1636H174.5V10.1636H174.409V12.1636ZM175.487 11.3247L176.214 6.87016L174.24 6.5479L173.513 11.0024L175.487 11.3247ZM175.227 7.70903H175.955V5.70903H175.227V7.70903ZM174.968 6.54545L172.013 24.3636L173.987 24.6908L176.941 6.87261L174.968 6.54545ZM172.014 24.3611C171.79 25.6886 171.377 26.7465 170.804 27.57L172.446 28.7117C173.222 27.5958 173.725 26.2446 173.986 24.6933L172.014 24.3611ZM170.804 27.57C170.228 28.399 169.503 29.0134 168.619 29.4294L169.472 31.2387C170.679 30.6699 171.674 29.8221 172.446 28.7117L170.804 27.57ZM168.619 29.4294C167.728 29.8494 166.68 30.0727 165.455 30.0727V32.0727C166.926 32.0727 168.272 31.8035 169.472 31.2387L168.619 29.4294ZM166.318 24.4363C167.718 24.4363 169.02 24.0613 170.203 23.3166L169.138 21.6242C168.275 22.1673 167.342 22.4363 166.318 22.4363V24.4363ZM170.2 23.3184C171.383 22.5794 172.36 21.54 173.142 20.2341L171.426 19.2067C170.784 20.2795 170.019 21.0735 169.14 21.6224L170.2 23.3184ZM173.14 20.2381C173.936 18.9215 174.469 17.3839 174.759 15.6462L172.786 15.3174C172.531 16.8524 172.071 18.1405 171.429 19.2027L173.14 20.2381ZM174.76 15.6431C175.032 13.9743 175.036 12.433 174.74 11.0356L172.783 11.4506C173.017 12.5532 173.028 13.8377 172.786 15.3204L174.76 15.6431ZM174.741 11.0425C174.451 9.6285 173.859 8.43722 172.916 7.54103L171.538 8.99067C172.126 9.54902 172.556 10.3426 172.782 11.4438L174.741 11.0425ZM172.924 7.54805C171.947 6.60054 170.68 6.16357 169.227 6.16357V8.16357C170.259 8.16357 170.993 8.46146 171.531 8.98364L172.924 7.54805ZM169.227 6.16357C167.785 6.16357 166.452 6.59985 165.252 7.4497L166.407 9.08199C167.283 8.46214 168.215 8.16357 169.227 8.16357V6.16357ZM165.253 7.44888C164.086 8.27285 163.12 9.38313 162.346 10.7504L164.086 11.7359C164.736 10.588 165.513 9.71339 166.406 9.08281L165.253 7.44888ZM162.345 10.7521C161.576 12.1152 161.06 13.6418 160.786 15.3204L162.76 15.6431C163 14.1702 163.446 12.871 164.087 11.7341L162.345 10.7521ZM160.786 15.3204C160.514 16.9855 160.508 18.5048 160.808 19.8571L162.76 19.4246C162.53 18.3829 162.517 17.1295 162.76 15.6431L160.786 15.3204ZM160.809 19.8643C161.119 21.2142 161.723 22.3448 162.665 23.1833L163.994 21.6893C163.421 21.1793 162.995 20.4463 162.759 19.4173L160.809 19.8643ZM162.673 23.1903C163.656 24.0472 164.902 24.4363 166.318 24.4363V22.4363C165.28 22.4363 164.533 22.1588 163.986 21.6823L162.673 23.1903ZM181.983 23.334L181.346 24.1047L181.349 24.1072L181.983 23.334ZM179.915 20.0727L178.956 20.3571L178.958 20.3619L179.915 20.0727ZM179.733 15.3908L178.747 15.2236L178.746 15.2278L179.733 15.3908ZM181.438 10.8227L180.592 10.2888L180.591 10.2901L181.438 10.8227ZM184.528 7.61812L185.072 8.45741L185.073 8.45656L184.528 7.61812ZM191.903 7.64085L191.263 8.40858L191.266 8.41104L191.903 7.64085ZM193.972 10.9136L193.013 11.198L193.014 11.2029L193.972 10.9136ZM194.188 15.5727L195.173 15.7399L195.175 15.7286L194.188 15.5727ZM192.472 20.1522L193.316 20.6882L193.317 20.686L192.472 20.1522ZM189.369 23.3568L189.911 24.1976L189.914 24.1952L189.369 23.3568ZM189.062 22.709L189.609 23.5463L189.613 23.5437L189.062 22.709ZM191.903 19.709L192.755 20.234L192.756 20.2317L191.903 19.709ZM193.46 15.3908L192.474 15.228L192.473 15.2325L193.46 15.3908ZM193.312 11.1863L192.351 11.4618V11.4618L193.312 11.1863ZM191.506 8.24312L190.859 9.00573L191.506 8.24312ZM184.881 8.27721L185.431 9.11188L185.435 9.10926L184.881 8.27721ZM182.028 11.2886L182.877 11.8172L182.879 11.8149L182.028 11.2886ZM180.46 15.5727L181.445 15.7448L181.447 15.7325L180.46 15.5727ZM180.585 19.7772L179.624 20.0527L179.625 20.0581L180.585 19.7772ZM182.403 22.7204L181.757 23.483L181.76 23.4858L182.403 22.7204ZM185.506 23.5272C184.334 23.5272 183.39 23.1948 182.617 22.5609L181.349 24.1072C182.515 25.0642 183.92 25.5272 185.506 25.5272V23.5272ZM182.62 22.5633C181.832 21.9118 181.241 21.0035 180.872 19.7834L178.958 20.3619C179.422 21.8995 180.21 23.1654 181.346 24.1047L182.62 22.5633ZM180.873 19.7882C180.516 18.5838 180.451 17.1803 180.72 15.5539L178.746 15.2278C178.439 17.0862 178.495 18.8039 178.956 20.3571L180.873 19.7882ZM180.719 15.5581C180.987 13.9804 181.511 12.5836 182.284 11.3552L180.591 10.2901C179.667 11.7587 179.055 13.4074 178.747 15.2236L180.719 15.5581ZM182.283 11.3565C183.071 10.1084 184.003 9.15016 185.072 8.45741L183.985 6.77883C182.645 7.64669 181.516 8.82476 180.592 10.2888L182.283 11.3565ZM185.073 8.45656C186.136 7.76617 187.228 7.4363 188.369 7.4363V5.4363C186.813 5.4363 185.346 5.89431 183.983 6.77967L185.073 8.45656ZM188.369 7.4363C189.557 7.4363 190.501 7.77266 191.263 8.40857L192.544 6.87312C191.382 5.90297 189.969 5.4363 188.369 5.4363V7.4363ZM191.266 8.41104C192.062 9.07019 192.652 9.98149 193.013 11.198L194.93 10.6291C194.473 9.08808 193.685 7.81756 192.541 6.87066L191.266 8.41104ZM193.014 11.2029C193.379 12.4099 193.454 13.8069 193.2 15.4167L195.175 15.7286C195.467 13.8839 195.397 12.1749 194.929 10.6243L193.014 11.2029ZM193.202 15.4054C192.934 16.9818 192.406 18.382 191.626 19.6184L193.317 20.686C194.249 19.2103 194.865 17.5575 195.173 15.7399L193.202 15.4054ZM191.627 19.6163C190.84 20.8564 189.904 21.8165 188.824 22.5183L189.914 24.1952C191.259 23.3213 192.391 22.145 193.316 20.6882L191.627 19.6163ZM188.828 22.5159C187.768 23.1985 186.666 23.5272 185.506 23.5272V25.5272C187.072 25.5272 188.547 25.0756 189.911 24.1976L188.828 22.5159ZM185.506 24.7999C186.969 24.7999 188.343 24.3733 189.609 23.5463L188.516 21.8718C187.555 22.4993 186.558 22.7999 185.506 22.7999V24.7999ZM189.613 23.5437C190.862 22.72 191.907 21.6088 192.755 20.234L191.052 19.1841C190.34 20.3396 189.491 21.2284 188.512 21.8744L189.613 23.5437ZM192.756 20.2317C193.61 18.8379 194.171 17.2727 194.448 15.5492L192.473 15.2325C192.234 16.7211 191.757 18.0347 191.051 19.1863L192.756 20.2317ZM194.447 15.5537C194.723 13.879 194.679 12.3239 194.274 10.9108L192.351 11.4618C192.658 12.5335 192.712 13.7815 192.474 15.228L194.447 15.5537ZM194.274 10.9108C193.872 9.50998 193.175 8.3476 192.153 7.48051L190.859 9.00573C191.534 9.57803 192.041 10.3778 192.351 11.4618L194.274 10.9108ZM192.153 7.48051C191.107 6.59343 189.841 6.16357 188.415 6.16357V8.16357C189.413 8.16357 190.208 8.45342 190.859 9.00573L192.153 7.48051ZM188.415 6.16357C186.96 6.16357 185.591 6.60209 184.326 7.44516L185.435 9.10926C186.398 8.46748 187.385 8.16357 188.415 8.16357V6.16357ZM184.33 7.44255C183.081 8.26647 182.033 9.38132 181.178 10.7622L182.879 11.8149C183.6 10.6504 184.453 9.75764 185.431 9.11187L184.33 7.44255ZM181.18 10.7599C180.316 12.1465 179.75 13.7018 179.473 15.4128L181.447 15.7325C181.686 14.2617 182.165 12.9609 182.877 11.8172L181.18 10.7599ZM179.475 15.4005C179.182 17.0772 179.218 18.6357 179.624 20.0527L181.547 19.5017C181.241 18.4339 181.193 17.1894 181.445 15.7448L179.475 15.4005ZM179.625 20.0581C180.035 21.4568 180.736 22.6172 181.757 23.483L183.05 21.9578C182.374 21.3842 181.863 20.5824 181.545 19.4963L179.625 20.0581ZM181.76 23.4858C182.812 24.3701 184.079 24.7999 185.506 24.7999V22.7999C184.508 22.7999 183.707 22.51 183.047 21.955L181.76 23.4858Z" fill="white" mask="url(#path-1-outside-1_5_10)"/>
</g>
</svg>
