<svg width="141" height="39" viewBox="0 0 141 39" fill="none" xmlns="http://www.w3.org/2000/svg">
<path d="M17.9529 38.2C11.7196 38.2 7.10293 36.4333 4.10293 32.9C3.03626 31.6333 2.1696 29.95 1.50293 27.85C0.836263 25.75 0.50293 23.2 0.50293 20.2C0.50293 17.2 0.986263 14.5167 1.95293 12.15C2.95293 9.75 4.30293 7.9 6.00293 6.6C9.30293 4.16667 13.2863 2.95 17.9529 2.95C19.4529 2.95 20.9196 3.06667 22.3529 3.3C23.7863 3.5 24.8529 3.71666 25.5529 3.95L26.6029 4.3L26.4529 4.8C23.8529 3.9 21.0196 3.45 17.9529 3.45C14.4196 3.45 11.4696 4.6 9.10293 6.9C7.30293 8.6 6.03626 11.1 5.30293 14.4C4.8696 16.2667 4.65293 18.55 4.65293 21.25C4.65293 23.95 5.03626 26.45 5.80293 28.75C6.5696 31.0167 7.43626 32.7 8.40293 33.8C9.40293 34.9 10.6029 35.7833 12.0029 36.45C13.4029 37.0833 14.5196 37.45 15.3529 37.55C16.1863 37.65 17.1696 37.7 18.3029 37.7C19.4696 37.7 21.0196 37.5667 22.9529 37.3V27H16.9029V26.5H29.2529V27H27.1029V36.85C24.5696 37.75 21.5196 38.2 17.9529 38.2ZM52.1471 38C49.8804 38 48.3304 37.5667 47.4971 36.7C46.7304 35.9667 46.3471 35.3333 46.3471 34.8V33.75C44.7137 36.7167 42.0971 38.2 38.4971 38.2C34.2971 38.2 31.9137 36.3 31.3471 32.5C31.2804 32.1 31.2471 31.7 31.2471 31.3C31.2471 30.8667 31.3137 30.4 31.4471 29.9C31.5804 29.4 31.9637 28.85 32.5971 28.25C33.8637 27.05 36.6471 26.3167 40.9471 26.05C42.0137 25.95 42.9971 25.9 43.8971 25.9C44.7971 25.9 45.6137 25.9333 46.3471 26V17.7C46.2804 17.6667 46.2804 17.5167 46.3471 17.25C46.4137 16.95 46.3471 16.5833 46.1471 16.15C45.9804 15.6833 45.7471 15.2333 45.4471 14.8C45.1471 14.3667 44.6137 14 43.8471 13.7C43.0804 13.3667 42.0804 13.2 40.8471 13.2C39.6137 13.2 38.1637 13.4333 36.4971 13.9C34.8637 14.3333 33.6637 14.7667 32.8971 15.2L32.6971 14.85C35.6637 13.4833 38.6804 12.8 41.7471 12.8C45.1804 12.8 47.4471 13.4167 48.5471 14.65C49.4137 15.6167 49.8471 16.6333 49.8471 17.7V34.45C49.8471 35.4167 50.0304 36.1667 50.3971 36.7C50.7971 37.2 51.1971 37.4667 51.5971 37.5L52.1471 37.6H53.6971V38H52.1471ZM39.2971 37.8C41.0637 37.8 42.6471 37.2 44.0471 36C45.4804 34.7667 46.2471 33.5833 46.3471 32.45V26.4C45.4471 26.3333 44.5304 26.3 43.5971 26.3C42.6971 26.3 41.7971 26.35 40.8971 26.45C38.3637 26.75 36.7137 27.3167 35.9471 28.15C35.1804 28.9833 34.7971 30.1333 34.7971 31.6C34.7971 31.8667 34.8137 32.1667 34.8471 32.5C35.1471 36.0333 36.6304 37.8 39.2971 37.8ZM63.7748 38C60.8415 38 58.9915 37.2333 58.2248 35.7C58.0581 35.3667 57.9748 35.0667 57.9748 34.8V0.549999H61.4748V34.45C61.4748 35.4167 61.6581 36.1667 62.0248 36.7C62.4248 37.2 62.8248 37.4667 63.2248 37.5L63.7748 37.6H65.3248V38H63.7748ZM75.4447 38C72.5114 38 70.6614 37.2333 69.8947 35.7C69.7281 35.3667 69.6447 35.0667 69.6447 34.8V0.549999H73.1447V34.45C73.1447 35.4167 73.3281 36.1667 73.6947 36.7C74.0947 37.2 74.4947 37.4667 74.8947 37.5L75.4447 37.6H76.9947V38H75.4447ZM81.6744 25.8C81.6744 29.9333 82.3911 32.9667 83.8244 34.9C85.2911 36.8333 87.2077 37.8 89.5744 37.8C92.9077 37.8 95.8744 37.3 98.4744 36.3L98.6244 36.65C95.9577 37.6833 92.9411 38.2 89.5744 38.2C86.2411 38.2 83.5244 37.2 81.4244 35.2C79.3244 33.2 78.2744 30.1167 78.2744 25.95C78.2744 21.7833 79.3744 18.55 81.5744 16.25C83.7744 13.95 86.5744 12.8 89.9744 12.8C92.7077 12.8 95.0077 13.6167 96.8744 15.25C98.7411 16.8833 99.6744 19.3 99.6744 22.5C99.6744 22.6667 99.6744 22.8333 99.6744 23H81.8244C81.7244 23.9 81.6744 24.8333 81.6744 25.8ZM96.2744 22.6C96.2411 19.4 95.6244 17.0333 94.4244 15.5C93.2244 13.9667 91.6744 13.2 89.7744 13.2C87.8744 13.2 86.1744 14.0333 84.6744 15.7C83.2077 17.3667 82.2744 19.6667 81.8744 22.6H96.2744ZM111.262 15.15V14.1C109.762 14.7 108.395 15.9167 107.162 17.75C105.929 19.55 105.279 21.25 105.212 22.85V38H101.712V13H105.212V20.95C105.745 19.0167 106.762 17.2 108.262 15.5C109.762 13.7667 111.462 12.8667 113.362 12.8H113.562C114.229 12.8 114.779 13.0333 115.212 13.5C115.679 13.9333 115.912 14.4833 115.912 15.15C115.912 15.8167 115.679 16.3667 115.212 16.8C114.779 17.2333 114.229 17.45 113.562 17.45C112.895 17.45 112.345 17.2333 111.912 16.8C111.479 16.3667 111.262 15.8167 111.262 15.15ZM125.831 46.95C124.764 49.3167 123.447 50.5 121.881 50.5C121.181 50.5 120.364 50.3833 119.431 50.15V49.75C120.197 49.95 120.881 50.05 121.481 50.05C123.181 50.05 124.481 49.0167 125.381 46.95L129.581 38H129.531L120.231 13H123.731L131.481 33.85L139.131 18C139.531 17.3 139.731 16.4667 139.731 15.5C139.731 14.5333 139.464 13.8 138.931 13.3L139.231 13C139.364 13.0667 139.531 13.2667 139.731 13.6C139.964 13.9333 140.097 14.2333 140.131 14.5C140.197 14.7667 140.231 15.0167 140.231 15.25C140.231 16.15 140.031 17.0667 139.631 18L130.031 38L125.831 46.95Z" fill="white"/>
</svg>
