<svg width="169" height="25" viewBox="0 0 169 25" fill="none" xmlns="http://www.w3.org/2000/svg">
<path d="M4.82797 24.0679C4.54797 24.0679 4.31464 23.9687 4.12797 23.7704L0.627969 20.2704C0.429636 20.0837 0.330469 19.8504 0.330469 19.5704V5.22037C0.330469 4.95204 0.429636 4.7187 0.627969 4.52037L4.12797 1.02037C4.31464 0.833703 4.54797 0.74037 4.82797 0.74037H15.1705C15.4621 0.74037 15.608 0.886203 15.608 1.17787V4.95787C15.608 5.24954 15.4621 5.39537 15.1705 5.39537H6.75297C6.58964 5.39537 6.44964 5.4537 6.33297 5.57037C6.2163 5.68704 6.15797 5.82704 6.15797 5.99037V18.7829C6.15797 18.9462 6.2163 19.0862 6.33297 19.2029C6.44964 19.3195 6.58964 19.3779 6.75297 19.3779H10.533V14.7054H8.29297C8.0013 14.7054 7.85547 14.5595 7.85547 14.2679V10.5054C7.85547 10.2137 8.0013 10.0679 8.29297 10.0679H15.468C15.7596 10.0679 15.9055 10.2137 15.9055 10.5054V19.5704C15.9055 19.8504 15.8063 20.0837 15.608 20.2704L12.108 23.7704C11.9213 23.9687 11.688 24.0679 11.408 24.0679H4.82797ZM27.4136 24.0679C27.297 24.0679 27.1686 24.0504 27.0286 24.0154C26.9003 23.9804 26.7778 23.9512 26.6611 23.9279L23.5461 23.1579L19.9761 21.9679C19.6261 21.8512 19.4511 21.5129 19.4511 20.9529V9.31537C19.4511 9.03537 19.5503 8.80204 19.7486 8.61537L23.2486 5.11537C23.447 4.91704 23.6803 4.81787 23.9486 4.81787H29.5486C29.817 4.81787 30.0503 4.91704 30.2486 5.11537L33.7486 8.61537C33.947 8.80204 34.0461 9.03537 34.0461 9.31537V16.4904H24.6486L24.5261 18.8179L27.0111 19.6404L31.4736 19.9554C31.672 19.9904 31.7711 20.1245 31.7711 20.3579V23.6304C31.7711 23.922 31.6253 24.0679 31.3336 24.0679H27.4136ZM26.7136 13.7429H27.0461C27.6178 13.7429 28.0728 13.527 28.4111 13.0954C28.7611 12.6637 28.9361 12.0804 28.9361 11.3454V10.9954C28.9361 10.272 28.7611 9.69454 28.4111 9.26287C28.0728 8.8312 27.6178 8.61537 27.0461 8.61537H26.6961C26.1361 8.61537 25.687 8.8312 25.3486 9.26287C25.022 9.69454 24.8586 10.272 24.8586 10.9954V11.3454C24.8586 12.0804 25.022 12.6637 25.3486 13.0954C25.687 13.527 26.142 13.7429 26.7136 13.7429ZM41.7139 24.0679C41.4455 24.0679 41.2122 23.9687 41.0139 23.7704L38.0914 20.8654C37.9047 20.667 37.8114 20.4337 37.8114 20.1654V8.89537H37.0764C36.7847 8.89537 36.6389 8.74954 36.6389 8.45787V5.25537C36.6389 4.9637 36.7847 4.81787 37.0764 4.81787H37.8114V2.63037C37.8114 2.3387 37.9572 2.19287 38.2489 2.19287H42.9039C43.1955 2.19287 43.3414 2.3387 43.3414 2.63037V4.81787H45.0389C45.3305 4.81787 45.4764 4.9637 45.4764 5.25537V8.45787C45.4764 8.74954 45.3305 8.89537 45.0389 8.89537H43.3414V18.2404C43.3414 18.462 43.4114 18.6429 43.5514 18.7829L45.2664 20.5154C45.383 20.6204 45.4414 20.7954 45.4414 21.0404V23.6304C45.4414 23.922 45.2955 24.0679 45.0039 24.0679H41.7139ZM54.6352 24.0679C54.3435 24.0679 54.1977 23.922 54.1977 23.6304V1.17787C54.1977 0.886203 54.3435 0.74037 54.6352 0.74037H59.5877C59.8793 0.74037 60.0252 0.886203 60.0252 1.17787V23.6304C60.0252 23.922 59.8793 24.0679 59.5877 24.0679H54.6352ZM64.6498 24.0679C64.3581 24.0679 64.2123 23.922 64.2123 23.6304V5.25537C64.2123 4.9637 64.3581 4.81787 64.6498 4.81787H74.0123C74.2806 4.81787 74.514 4.91704 74.7123 5.11537L78.2123 8.61537C78.4106 8.80204 78.5098 9.03537 78.5098 9.31537V23.6304C78.5098 23.922 78.364 24.0679 78.0723 24.0679H73.3998C73.1081 24.0679 72.9623 23.922 72.9623 23.6304V10.0154C72.9623 9.46704 72.6881 9.19287 72.1398 9.19287H69.7598V23.6304C69.7598 23.922 69.614 24.0679 69.3223 24.0679H64.6498ZM92.1098 24.0679C91.8181 24.0679 91.6723 23.922 91.6723 23.6304V5.39537H88.6098C88.3181 5.39537 88.1723 5.24954 88.1723 4.95787V1.17787C88.1723 0.886203 88.3181 0.74037 88.6098 0.74037H100.562C100.854 0.74037 101 0.886203 101 1.17787V4.95787C101 5.24954 100.854 5.39537 100.562 5.39537H97.4998V23.6304C97.4998 23.922 97.3539 24.0679 97.0623 24.0679H92.1098ZM109.569 24.0679C109.3 24.0679 109.067 23.9687 108.869 23.7704L105.369 20.2704C105.17 20.0837 105.071 19.8504 105.071 19.5704V9.31537C105.071 9.03537 105.17 8.80204 105.369 8.61537L108.869 5.11537C109.067 4.91704 109.3 4.81787 109.569 4.81787H114.871C115.151 4.81787 115.385 4.91704 115.571 5.11537L119.071 8.61537C119.27 8.80204 119.369 9.03537 119.369 9.31537V19.5704C119.369 19.8504 119.27 20.0837 119.071 20.2704L115.571 23.7704C115.385 23.9687 115.151 24.0679 114.871 24.0679H109.569ZM111.616 19.9904H112.841C113.215 19.9904 113.471 19.9145 113.611 19.7629C113.751 19.6112 113.821 19.3429 113.821 18.9579V9.92787C113.821 9.54287 113.751 9.27454 113.611 9.12287C113.471 8.9712 113.215 8.89537 112.841 8.89537H111.616C111.231 8.89537 110.969 8.9712 110.829 9.12287C110.689 9.27454 110.619 9.54287 110.619 9.92787V18.9579C110.619 19.3429 110.689 19.6112 110.829 19.7629C110.969 19.9145 111.231 19.9904 111.616 19.9904ZM127.943 24.0679C127.663 24.0679 127.43 23.9687 127.243 23.7704L123.743 20.2704C123.545 20.0837 123.446 19.8504 123.446 19.5704V5.25537C123.446 4.9637 123.592 4.81787 123.883 4.81787H128.556C128.847 4.81787 128.993 4.9637 128.993 5.25537V18.8704C128.993 19.4187 129.262 19.6929 129.798 19.6929H132.196V5.25537C132.196 4.9637 132.342 4.81787 132.633 4.81787H137.306C137.597 4.81787 137.743 4.9637 137.743 5.25537V23.6304C137.743 23.922 137.597 24.0679 137.306 24.0679H127.943ZM147.522 24.0679C147.289 24.0679 147.055 23.992 146.822 23.8404L143.969 21.9154L142.009 18.7654C141.928 18.6137 141.858 18.5145 141.799 18.4679C141.741 18.4095 141.712 18.2929 141.712 18.1179V10.7679C141.712 10.5929 141.735 10.4762 141.782 10.4179C141.829 10.3595 141.904 10.2545 142.009 10.1029L143.794 7.12787L146.822 5.04537C146.927 4.97537 147.032 4.92287 147.137 4.88787C147.242 4.8412 147.37 4.81787 147.522 4.81787H150.549C150.841 4.81787 150.987 4.9637 150.987 5.25537V8.52787C150.987 8.6212 150.975 8.72037 150.952 8.82537C150.94 8.93037 150.888 9.01204 150.794 9.07037L148.799 10.0679L147.259 12.0804V16.7529L148.887 18.6079L150.794 19.8154C150.911 19.8854 150.969 19.9729 150.969 20.0779C150.981 20.1712 150.987 20.2645 150.987 20.3579V23.6304C150.987 23.922 150.841 24.0679 150.549 24.0679H147.522ZM154.918 24.0679C154.627 24.0679 154.481 23.922 154.481 23.6304V1.17787C154.481 0.886203 154.627 0.74037 154.918 0.74037H159.591C159.883 0.74037 160.028 0.886203 160.028 1.17787V4.81787H164.281C164.549 4.81787 164.783 4.91704 164.981 5.11537L168.481 8.61537C168.679 8.80204 168.778 9.03537 168.778 9.31537V23.6304C168.778 23.922 168.633 24.0679 168.341 24.0679H163.668C163.377 24.0679 163.231 23.922 163.231 23.6304V9.92787C163.231 9.43787 162.986 9.19287 162.496 9.19287H160.028V23.6304C160.028 23.922 159.883 24.0679 159.591 24.0679H154.918Z" fill="white"/>
</svg>
