<svg width="615" height="66" viewBox="0 0 615 66" fill="none" xmlns="http://www.w3.org/2000/svg">
<mask id="path-1-outside-1_2_163" maskUnits="userSpaceOnUse" x="-1" y="-1" width="618" height="68" fill="black">
<rect fill="white" x="-1" y="-1" width="618" height="68"/>
<path d="M5.90763 51L0.41899 0.81818H2.08518L7.18177 48.5497H7.3778L28.1562 0.81818H30.3125L35.115 48.5497H35.311L56.3835 0.81818H58.1477L35.9971 51H33.7429L28.9403 3.26847H28.7443L8.06388 51H5.90763ZM68.8248 51.7841C65.5251 51.7841 62.7889 50.9265 60.6163 49.2113C58.4438 47.4961 56.9246 45.1683 56.0588 42.228C55.193 39.2876 55.0705 35.9716 55.6913 32.2798C56.312 28.5881 57.5453 25.272 59.3912 22.3317C61.2371 19.3913 63.475 17.0636 66.105 15.3484C68.735 13.6332 71.5364 12.7756 74.5095 12.7756C76.6984 12.7756 78.6423 13.2493 80.3411 14.1967C82.0563 15.1278 83.4693 16.4183 84.5801 18.0682C85.7073 19.7017 86.4832 21.5966 86.9079 23.7528C87.3326 25.8928 87.3489 28.1797 86.9569 30.6136L86.6629 32.1818H56.4754L56.7694 30.6136H85.3887C85.8788 27.608 85.7236 24.88 84.9232 22.4297C84.1391 19.9631 82.8404 18.0028 81.0272 16.549C79.2303 15.0788 77.0578 14.3438 74.5095 14.3438C71.9285 14.3438 69.4455 15.1115 67.0606 16.647C64.6756 18.1825 62.6174 20.2734 60.8859 22.9197C59.1543 25.566 57.9782 28.5554 57.3575 31.8878L57.2595 31.9858C56.7041 35.2855 56.7612 38.3157 57.431 41.0763C58.1007 43.837 59.3912 46.0504 61.3024 47.7166C63.2136 49.3828 65.7538 50.2159 68.9228 50.2159C71.2097 50.2159 73.219 49.8075 74.9505 48.9908C76.6984 48.174 78.1522 47.2347 79.312 46.1729C80.4881 45.1112 81.3703 44.2045 81.9583 43.4531L83.0364 44.3352C82.3504 45.2827 81.3621 46.3363 80.0716 47.4961C78.7811 48.6559 77.1966 49.6605 75.3181 50.5099C73.4395 51.3594 71.2751 51.7841 68.8248 51.7841ZM104.532 0.81818L96.2006 51H94.6324L102.963 0.81818H104.532ZM122.952 51.7841C119.848 51.7841 117.251 50.9265 115.16 49.2113C113.085 47.4961 111.623 45.1683 110.774 42.228C109.924 39.2713 109.802 35.9553 110.406 32.2798C111.011 28.5717 112.236 25.2475 114.082 22.3072C115.927 19.3668 118.182 17.0472 120.844 15.3484C123.523 13.6332 126.382 12.7756 129.42 12.7756C131.707 12.7756 133.708 13.2656 135.424 14.2457C137.139 15.2095 138.478 16.5653 139.442 18.3132C140.406 20.0447 140.888 22.054 140.888 24.3409H139.221C139.221 21.2699 138.323 18.8359 136.526 17.0391C134.746 15.2422 132.377 14.3438 129.42 14.3438C126.66 14.3438 124.054 15.1278 121.604 16.696C119.17 18.2479 117.095 20.3714 115.38 23.0668C113.681 25.7621 112.546 28.8331 111.974 32.2798C111.419 35.6122 111.492 38.6342 112.195 41.3459C112.914 44.0575 114.188 46.2138 116.017 47.8146C117.847 49.4155 120.158 50.2159 122.952 50.2159C124.993 50.2159 126.946 49.7912 128.808 48.9418C130.67 48.0923 132.303 46.8999 133.708 45.3643C135.113 43.8288 136.134 42.0483 136.771 40.0227H138.437C137.67 42.424 136.502 44.5067 134.933 46.271C133.365 48.0188 131.544 49.3746 129.469 50.3384C127.411 51.3022 125.239 51.7841 122.952 51.7841ZM160.992 51.7841C158.019 51.7841 155.487 50.9265 153.396 49.2113C151.322 47.4961 149.835 45.152 148.937 42.179C148.055 39.206 147.924 35.8409 148.545 32.0838C149.166 28.4247 150.391 25.1413 152.22 22.2337C154.066 19.3097 156.288 17.0064 158.885 15.3239C161.499 13.625 164.259 12.7756 167.167 12.7756C170.173 12.7756 172.713 13.6413 174.787 15.3729C176.878 17.1044 178.365 19.4567 179.247 22.4297C180.145 25.4027 180.3 28.7514 179.712 32.4759C179.092 36.1349 177.858 39.4265 176.012 42.3505C174.167 45.2582 171.937 47.5614 169.323 49.2603C166.71 50.9428 163.933 51.7841 160.992 51.7841ZM160.992 50.2159C163.704 50.2159 166.26 49.4318 168.662 47.8636C171.063 46.2791 173.105 44.1229 174.787 41.3949C176.47 38.6506 177.589 35.5469 178.144 32.0838C178.7 28.7187 178.593 25.6967 177.826 23.0178C177.058 20.3388 175.759 18.2234 173.93 16.6715C172.1 15.1197 169.879 14.3438 167.265 14.3438C164.586 14.3438 162.046 15.1442 159.645 16.745C157.243 18.3295 155.193 20.494 153.494 23.2383C151.795 25.9663 150.668 29.0455 150.113 32.4759C149.525 35.8409 149.615 38.8629 150.383 41.5419C151.167 44.2209 152.473 46.3363 154.303 47.8881C156.149 49.44 158.379 50.2159 160.992 50.2159ZM187.621 51L193.893 13.3636H195.462L194.481 18.9503H194.678C195.707 17.1371 197.201 15.6751 199.162 14.5643C201.122 13.4371 203.352 12.8736 205.851 12.8736C208.693 12.8736 210.833 13.576 212.271 14.9808C213.708 16.3857 214.574 18.2642 214.868 20.6165H215.064C216.044 18.2642 217.604 16.3857 219.744 14.9808C221.884 13.576 224.375 12.8736 227.217 12.8736C230.991 12.8736 233.58 14.0742 234.985 16.4755C236.39 18.8604 236.773 21.9396 236.136 25.7131L231.922 51H230.354L234.568 25.7131C235.107 22.3807 234.83 19.669 233.735 17.5781C232.657 15.4872 230.452 14.4418 227.119 14.4418C223.787 14.4418 221.026 15.5036 218.837 17.6271C216.665 19.7344 215.309 22.4297 214.77 25.7131L210.555 51H208.987L213.202 25.7131C213.741 22.3807 213.463 19.669 212.369 17.5781C211.29 15.4872 209.085 14.4418 205.753 14.4418C203.531 14.4418 201.555 14.9236 199.823 15.8874C198.108 16.8512 196.695 18.1825 195.584 19.8814C194.49 21.5803 193.763 23.5241 193.403 25.7131L189.189 51H187.621ZM259.249 51.7841C255.949 51.7841 253.213 50.9265 251.04 49.2113C248.868 47.4961 247.348 45.1683 246.483 42.228C245.617 39.2876 245.494 35.9716 246.115 32.2798C246.736 28.5881 247.969 25.272 249.815 22.3317C251.661 19.3913 253.899 17.0636 256.529 15.3484C259.159 13.6332 261.96 12.7756 264.933 12.7756C267.122 12.7756 269.066 13.2493 270.765 14.1967C272.48 15.1278 273.893 16.4183 275.004 18.0682C276.131 19.7017 276.907 21.5966 277.332 23.7528C277.756 25.8928 277.773 28.1797 277.381 30.6136L277.087 32.1818H246.899L247.193 30.6136H275.813C276.303 27.608 276.147 24.88 275.347 22.4297C274.563 19.9631 273.264 18.0028 271.451 16.549C269.654 15.0788 267.482 14.3438 264.933 14.3438C262.352 14.3438 259.869 15.1115 257.484 16.647C255.099 18.1825 253.041 20.2734 251.31 22.9197C249.578 25.566 248.402 28.5554 247.781 31.8878L247.683 31.9858C247.128 35.2855 247.185 38.3157 247.855 41.0763C248.525 43.837 249.815 46.0504 251.726 47.7166C253.637 49.3828 256.178 50.2159 259.347 50.2159C261.634 50.2159 263.643 49.8075 265.374 48.9908C267.122 48.174 268.576 47.2347 269.736 46.1729C270.912 45.1112 271.794 44.2045 272.382 43.4531L273.46 44.3352C272.774 45.2827 271.786 46.3363 270.495 47.4961C269.205 48.6559 267.62 49.6605 265.742 50.5099C263.863 51.3594 261.699 51.7841 259.249 51.7841ZM322.497 13.3636L322.203 14.9318H307.305L307.599 13.3636H322.497ZM314.558 4.34659H316.126L309.755 43.0611C309.494 44.5312 309.6 45.7972 310.074 46.859C310.547 47.9045 311.274 48.7131 312.254 49.2848C313.235 49.8402 314.362 50.1179 315.636 50.1179C316.077 50.1179 316.502 50.0771 316.91 49.9954C317.335 49.8974 317.792 49.7749 318.282 49.6278L318.478 51.098C317.939 51.294 317.424 51.4411 316.934 51.5391C316.461 51.6371 315.93 51.6861 315.342 51.6861C313.806 51.6861 312.442 51.3349 311.25 50.6325C310.074 49.93 309.192 48.9336 308.603 47.6431C308.032 46.3526 307.893 44.8253 308.187 43.0611L314.558 4.34659ZM341.376 51.7841C338.403 51.7841 335.871 50.9265 333.78 49.2113C331.706 47.4961 330.219 45.152 329.321 42.179C328.439 39.206 328.308 35.8409 328.929 32.0838C329.549 28.4247 330.774 25.1413 332.604 22.2337C334.45 19.3097 336.671 17.0064 339.269 15.3239C341.882 13.625 344.643 12.7756 347.551 12.7756C350.556 12.7756 353.097 13.6413 355.171 15.3729C357.262 17.1044 358.749 19.4567 359.631 22.4297C360.529 25.4027 360.684 28.7514 360.096 32.4759C359.475 36.1349 358.242 39.4265 356.396 42.3505C354.55 45.2582 352.321 47.5614 349.707 49.2603C347.093 50.9428 344.316 51.7841 341.376 51.7841ZM341.376 50.2159C344.088 50.2159 346.644 49.4318 349.045 47.8636C351.447 46.2791 353.489 44.1229 355.171 41.3949C356.854 38.6506 357.973 35.5469 358.528 32.0838C359.083 28.7187 358.977 25.6967 358.209 23.0178C357.442 20.3388 356.143 18.2234 354.314 16.6715C352.484 15.1197 350.262 14.3438 347.649 14.3438C344.97 14.3438 342.43 15.1442 340.028 16.745C337.627 18.3295 335.577 20.494 333.878 23.2383C332.179 25.9663 331.052 29.0455 330.497 32.4759C329.909 35.8409 329.999 38.8629 330.766 41.5419C331.55 44.2209 332.857 46.3363 334.687 47.8881C336.533 49.44 338.762 50.2159 341.376 50.2159ZM396.722 51.7841C394.664 51.7841 392.834 51.3594 391.233 50.5099C389.649 49.6605 388.456 48.419 387.656 46.7855C386.872 45.152 386.659 43.1591 387.019 40.8068C387.247 39.5327 387.656 38.3402 388.244 37.2294C388.848 36.1023 389.739 35.0813 390.915 34.1665C392.107 33.2518 393.683 32.4677 395.644 31.8143C397.604 31.1609 400.054 30.6626 402.995 30.3196C404.759 30.1236 406.433 29.8949 408.018 29.6335C409.602 29.3722 410.917 28.9801 411.963 28.4574C413.008 27.9347 413.612 27.1832 413.776 26.2031L414.168 23.9489C414.658 21.0575 414.119 18.7379 412.551 16.9901C410.982 15.2259 408.581 14.3438 405.347 14.3438C402.701 14.3438 400.242 14.94 397.971 16.1325C395.717 17.3249 394.027 18.9503 392.899 21.0085L391.527 20.4205C392.377 18.8523 393.504 17.4964 394.909 16.353C396.33 15.2095 397.931 14.3274 399.711 13.7067C401.508 13.0859 403.387 12.7756 405.347 12.7756C407.258 12.7756 408.924 13.0614 410.345 13.6332C411.767 14.1886 412.918 14.9727 413.8 15.9854C414.699 16.9819 415.311 18.158 415.638 19.5138C415.981 20.8697 416.014 22.348 415.736 23.9489L411.227 51H409.659L410.933 43.3551H410.737C409.692 45.054 408.434 46.5405 406.964 47.8146C405.51 49.0724 403.909 50.0526 402.161 50.755C400.43 51.4411 398.617 51.7841 396.722 51.7841ZM396.722 50.2159C399.107 50.2159 401.394 49.5788 403.583 48.3047C405.788 47.0142 407.666 45.2255 409.218 42.9386C410.786 40.6353 411.816 37.9645 412.306 34.9261L413.286 29.2415C412.779 29.5845 412.175 29.8867 411.473 30.1481C410.786 30.4094 410.019 30.6463 409.169 30.8587C408.336 31.0547 407.43 31.2262 406.449 31.3732C405.486 31.5202 404.465 31.6591 403.387 31.7898C399.956 32.1818 397.212 32.7781 395.154 33.5785C393.095 34.3789 391.56 35.3835 390.547 36.5923C389.534 37.8011 388.881 39.206 388.587 40.8068C388.146 43.6491 388.693 45.9279 390.229 47.6431C391.764 49.3583 393.928 50.2159 396.722 50.2159ZM435.13 65.8977C433.039 65.8977 431.144 65.6119 429.445 65.0401C427.746 64.4847 426.333 63.6435 425.206 62.5163C424.079 61.4055 423.336 60.017 422.977 58.3509L424.447 57.8608C424.773 59.331 425.419 60.5398 426.383 61.4872C427.346 62.451 428.571 63.1616 430.058 63.619C431.544 64.0927 433.235 64.3295 435.13 64.3295C439.05 64.3295 442.309 63.2923 444.907 61.2177C447.504 59.1431 449.146 55.9986 449.832 51.7841L451.498 41.5909H451.302C450.322 43.6818 449.064 45.4297 447.528 46.8345C446.009 48.223 444.335 49.2685 442.505 49.9709C440.692 50.657 438.854 51 436.992 51C434.052 51 431.626 50.2077 429.715 48.6232C427.804 47.0387 426.489 44.8416 425.77 42.032C425.051 39.2223 425.002 35.9716 425.623 32.2798C426.244 28.5554 427.387 25.223 429.053 22.2827C430.72 19.3423 432.778 17.0227 435.228 15.3239C437.678 13.625 440.39 12.7756 443.363 12.7756C445.389 12.7756 447.161 13.1921 448.68 14.0252C450.216 14.842 451.465 16.0181 452.429 17.5536C453.409 19.0728 454.079 20.8778 454.438 22.9688H454.634L456.202 13.3636H457.771L451.4 51.7841C450.877 54.8878 449.889 57.4851 448.435 59.576C446.981 61.6669 445.127 63.2433 442.873 64.305C440.619 65.3668 438.038 65.8977 435.13 65.8977ZM436.992 49.4318C439.606 49.4318 442.015 48.7376 444.221 47.3491C446.442 45.9606 448.321 43.984 449.856 41.4194C451.408 38.8548 452.478 35.8082 453.066 32.2798C453.621 28.8821 453.613 25.8356 453.042 23.1403C452.486 20.4286 451.384 18.2887 449.734 16.7205C448.1 15.136 445.944 14.3438 443.265 14.3438C440.619 14.3438 438.177 15.136 435.939 16.7205C433.717 18.2887 431.838 20.4286 430.303 23.1403C428.784 25.8356 427.746 28.8821 427.191 32.2798C426.636 35.6776 426.644 38.6669 427.216 41.2479C427.804 43.8125 428.914 45.8217 430.548 47.2756C432.198 48.7131 434.346 49.4318 436.992 49.4318ZM479.051 51.7841C475.752 51.7841 473.015 50.9265 470.843 49.2113C468.67 47.4961 467.151 45.1683 466.285 42.228C465.42 39.2876 465.297 35.9716 465.918 32.2798C466.539 28.5881 467.772 25.272 469.618 22.3317C471.464 19.3913 473.702 17.0636 476.332 15.3484C478.962 13.6332 481.763 12.7756 484.736 12.7756C486.925 12.7756 488.869 13.2493 490.568 14.1967C492.283 15.1278 493.696 16.4183 494.807 18.0682C495.934 19.7017 496.71 21.5966 497.134 23.7528C497.559 25.8928 497.576 28.1797 497.183 30.6136L496.889 32.1818H466.702L466.996 30.6136H495.615C496.105 27.608 495.95 24.88 495.15 22.4297C494.366 19.9631 493.067 18.0028 491.254 16.549C489.457 15.0788 487.284 14.3438 484.736 14.3438C482.155 14.3438 479.672 15.1115 477.287 16.647C474.902 18.1825 472.844 20.2734 471.112 22.9197C469.381 25.566 468.205 28.5554 467.584 31.8878L467.486 31.9858C466.931 35.2855 466.988 38.3157 467.658 41.0763C468.327 43.837 469.618 46.0504 471.529 47.7166C473.44 49.3828 475.98 50.2159 479.149 50.2159C481.436 50.2159 483.446 49.8075 485.177 48.9908C486.925 48.174 488.379 47.2347 489.539 46.1729C490.715 45.1112 491.597 44.2045 492.185 43.4531L493.263 44.3352C492.577 45.2827 491.589 46.3363 490.298 47.4961C489.008 48.6559 487.423 49.6605 485.545 50.5099C483.666 51.3594 481.502 51.7841 479.051 51.7841ZM510.642 25.7131L506.427 51H504.859L511.132 13.3636H512.7L511.72 19.3423H511.916C513.092 17.3821 514.791 15.8139 517.012 14.6378C519.25 13.4616 521.668 12.8736 524.265 12.8736C526.781 12.8736 528.913 13.4208 530.66 14.5153C532.408 15.6097 533.666 17.1207 534.434 19.0483C535.202 20.9759 535.373 23.1974 534.948 25.7131L530.734 51H529.166L533.38 25.7131C533.919 22.3807 533.348 19.669 531.665 17.5781C529.999 15.4872 527.5 14.4418 524.167 14.4418C521.946 14.4418 519.871 14.9236 517.943 15.8874C516.032 16.8512 514.423 18.1825 513.116 19.8814C511.826 21.5803 511.001 23.5241 510.642 25.7131ZM557.503 51.7841C554.4 51.7841 551.802 50.9265 549.711 49.2113C547.637 47.4961 546.175 45.1683 545.325 42.228C544.476 39.2713 544.353 35.9553 544.958 32.2798C545.562 28.5717 546.787 25.2475 548.633 22.3072C550.479 19.3668 552.733 17.0472 555.396 15.3484C558.075 13.6332 560.934 12.7756 563.972 12.7756C566.259 12.7756 568.26 13.2656 569.975 14.2457C571.69 15.2095 573.03 16.5653 573.994 18.3132C574.958 20.0447 575.439 22.054 575.439 24.3409H573.773C573.773 21.2699 572.875 18.8359 571.078 17.0391C569.297 15.2422 566.929 14.3438 563.972 14.3438C561.211 14.3438 558.606 15.1278 556.156 16.696C553.722 18.2479 551.647 20.3714 549.932 23.0668C548.233 25.7621 547.098 28.8331 546.526 32.2798C545.971 35.6122 546.044 38.6342 546.747 41.3459C547.465 44.0575 548.739 46.2138 550.569 47.8146C552.399 49.4155 554.71 50.2159 557.503 50.2159C559.545 50.2159 561.497 49.7912 563.36 48.9418C565.222 48.0923 566.855 46.8999 568.26 45.3643C569.665 43.8288 570.686 42.0483 571.323 40.0227H572.989C572.221 42.424 571.053 44.5067 569.485 46.271C567.917 48.0188 566.096 49.3746 564.021 50.3384C561.963 51.3022 559.79 51.7841 557.503 51.7841ZM581.577 65.1136C580.94 65.1136 580.279 65.0238 579.593 64.8441C578.923 64.6808 578.245 64.4439 577.559 64.1335L578.343 62.7614C579.78 63.4638 581.177 63.7006 582.533 63.4719C583.905 63.2596 585.196 62.6143 586.404 61.5362C587.613 60.4744 588.7 59.0206 589.663 57.1747L592.604 51.5881L585.351 13.3636H586.919L593.731 49.0398H593.927L612.598 13.3636H614.362L591.084 57.8608C590.251 59.4453 589.32 60.7766 588.291 61.8548C587.278 62.9329 586.2 63.7415 585.057 64.2805C583.913 64.8359 582.754 65.1136 581.577 65.1136Z"/>
</mask>
<path d="M5.90763 51L0.41899 0.81818H2.08518L7.18177 48.5497H7.3778L28.1562 0.81818H30.3125L35.115 48.5497H35.311L56.3835 0.81818H58.1477L35.9971 51H33.7429L28.9403 3.26847H28.7443L8.06388 51H5.90763ZM68.8248 51.7841C65.5251 51.7841 62.7889 50.9265 60.6163 49.2113C58.4438 47.4961 56.9246 45.1683 56.0588 42.228C55.193 39.2876 55.0705 35.9716 55.6913 32.2798C56.312 28.5881 57.5453 25.272 59.3912 22.3317C61.2371 19.3913 63.475 17.0636 66.105 15.3484C68.735 13.6332 71.5364 12.7756 74.5095 12.7756C76.6984 12.7756 78.6423 13.2493 80.3411 14.1967C82.0563 15.1278 83.4693 16.4183 84.5801 18.0682C85.7073 19.7017 86.4832 21.5966 86.9079 23.7528C87.3326 25.8928 87.3489 28.1797 86.9569 30.6136L86.6629 32.1818H56.4754L56.7694 30.6136H85.3887C85.8788 27.608 85.7236 24.88 84.9232 22.4297C84.1391 19.9631 82.8404 18.0028 81.0272 16.549C79.2303 15.0788 77.0578 14.3438 74.5095 14.3438C71.9285 14.3438 69.4455 15.1115 67.0606 16.647C64.6756 18.1825 62.6174 20.2734 60.8859 22.9197C59.1543 25.566 57.9782 28.5554 57.3575 31.8878L57.2595 31.9858C56.7041 35.2855 56.7612 38.3157 57.431 41.0763C58.1007 43.837 59.3912 46.0504 61.3024 47.7166C63.2136 49.3828 65.7538 50.2159 68.9228 50.2159C71.2097 50.2159 73.219 49.8075 74.9505 48.9908C76.6984 48.174 78.1522 47.2347 79.312 46.1729C80.4881 45.1112 81.3703 44.2045 81.9583 43.4531L83.0364 44.3352C82.3504 45.2827 81.3621 46.3363 80.0716 47.4961C78.7811 48.6559 77.1966 49.6605 75.3181 50.5099C73.4395 51.3594 71.2751 51.7841 68.8248 51.7841ZM104.532 0.81818L96.2006 51H94.6324L102.963 0.81818H104.532ZM122.952 51.7841C119.848 51.7841 117.251 50.9265 115.16 49.2113C113.085 47.4961 111.623 45.1683 110.774 42.228C109.924 39.2713 109.802 35.9553 110.406 32.2798C111.011 28.5717 112.236 25.2475 114.082 22.3072C115.927 19.3668 118.182 17.0472 120.844 15.3484C123.523 13.6332 126.382 12.7756 129.42 12.7756C131.707 12.7756 133.708 13.2656 135.424 14.2457C137.139 15.2095 138.478 16.5653 139.442 18.3132C140.406 20.0447 140.888 22.054 140.888 24.3409H139.221C139.221 21.2699 138.323 18.8359 136.526 17.0391C134.746 15.2422 132.377 14.3438 129.42 14.3438C126.66 14.3438 124.054 15.1278 121.604 16.696C119.17 18.2479 117.095 20.3714 115.38 23.0668C113.681 25.7621 112.546 28.8331 111.974 32.2798C111.419 35.6122 111.492 38.6342 112.195 41.3459C112.914 44.0575 114.188 46.2138 116.017 47.8146C117.847 49.4155 120.158 50.2159 122.952 50.2159C124.993 50.2159 126.946 49.7912 128.808 48.9418C130.67 48.0923 132.303 46.8999 133.708 45.3643C135.113 43.8288 136.134 42.0483 136.771 40.0227H138.437C137.67 42.424 136.502 44.5067 134.933 46.271C133.365 48.0188 131.544 49.3746 129.469 50.3384C127.411 51.3022 125.239 51.7841 122.952 51.7841ZM160.992 51.7841C158.019 51.7841 155.487 50.9265 153.396 49.2113C151.322 47.4961 149.835 45.152 148.937 42.179C148.055 39.206 147.924 35.8409 148.545 32.0838C149.166 28.4247 150.391 25.1413 152.22 22.2337C154.066 19.3097 156.288 17.0064 158.885 15.3239C161.499 13.625 164.259 12.7756 167.167 12.7756C170.173 12.7756 172.713 13.6413 174.787 15.3729C176.878 17.1044 178.365 19.4567 179.247 22.4297C180.145 25.4027 180.3 28.7514 179.712 32.4759C179.092 36.1349 177.858 39.4265 176.012 42.3505C174.167 45.2582 171.937 47.5614 169.323 49.2603C166.71 50.9428 163.933 51.7841 160.992 51.7841ZM160.992 50.2159C163.704 50.2159 166.26 49.4318 168.662 47.8636C171.063 46.2791 173.105 44.1229 174.787 41.3949C176.47 38.6506 177.589 35.5469 178.144 32.0838C178.7 28.7187 178.593 25.6967 177.826 23.0178C177.058 20.3388 175.759 18.2234 173.93 16.6715C172.1 15.1197 169.879 14.3438 167.265 14.3438C164.586 14.3438 162.046 15.1442 159.645 16.745C157.243 18.3295 155.193 20.494 153.494 23.2383C151.795 25.9663 150.668 29.0455 150.113 32.4759C149.525 35.8409 149.615 38.8629 150.383 41.5419C151.167 44.2209 152.473 46.3363 154.303 47.8881C156.149 49.44 158.379 50.2159 160.992 50.2159ZM187.621 51L193.893 13.3636H195.462L194.481 18.9503H194.678C195.707 17.1371 197.201 15.6751 199.162 14.5643C201.122 13.4371 203.352 12.8736 205.851 12.8736C208.693 12.8736 210.833 13.576 212.271 14.9808C213.708 16.3857 214.574 18.2642 214.868 20.6165H215.064C216.044 18.2642 217.604 16.3857 219.744 14.9808C221.884 13.576 224.375 12.8736 227.217 12.8736C230.991 12.8736 233.58 14.0742 234.985 16.4755C236.39 18.8604 236.773 21.9396 236.136 25.7131L231.922 51H230.354L234.568 25.7131C235.107 22.3807 234.83 19.669 233.735 17.5781C232.657 15.4872 230.452 14.4418 227.119 14.4418C223.787 14.4418 221.026 15.5036 218.837 17.6271C216.665 19.7344 215.309 22.4297 214.77 25.7131L210.555 51H208.987L213.202 25.7131C213.741 22.3807 213.463 19.669 212.369 17.5781C211.29 15.4872 209.085 14.4418 205.753 14.4418C203.531 14.4418 201.555 14.9236 199.823 15.8874C198.108 16.8512 196.695 18.1825 195.584 19.8814C194.49 21.5803 193.763 23.5241 193.403 25.7131L189.189 51H187.621ZM259.249 51.7841C255.949 51.7841 253.213 50.9265 251.04 49.2113C248.868 47.4961 247.348 45.1683 246.483 42.228C245.617 39.2876 245.494 35.9716 246.115 32.2798C246.736 28.5881 247.969 25.272 249.815 22.3317C251.661 19.3913 253.899 17.0636 256.529 15.3484C259.159 13.6332 261.96 12.7756 264.933 12.7756C267.122 12.7756 269.066 13.2493 270.765 14.1967C272.48 15.1278 273.893 16.4183 275.004 18.0682C276.131 19.7017 276.907 21.5966 277.332 23.7528C277.756 25.8928 277.773 28.1797 277.381 30.6136L277.087 32.1818H246.899L247.193 30.6136H275.813C276.303 27.608 276.147 24.88 275.347 22.4297C274.563 19.9631 273.264 18.0028 271.451 16.549C269.654 15.0788 267.482 14.3438 264.933 14.3438C262.352 14.3438 259.869 15.1115 257.484 16.647C255.099 18.1825 253.041 20.2734 251.31 22.9197C249.578 25.566 248.402 28.5554 247.781 31.8878L247.683 31.9858C247.128 35.2855 247.185 38.3157 247.855 41.0763C248.525 43.837 249.815 46.0504 251.726 47.7166C253.637 49.3828 256.178 50.2159 259.347 50.2159C261.634 50.2159 263.643 49.8075 265.374 48.9908C267.122 48.174 268.576 47.2347 269.736 46.1729C270.912 45.1112 271.794 44.2045 272.382 43.4531L273.46 44.3352C272.774 45.2827 271.786 46.3363 270.495 47.4961C269.205 48.6559 267.62 49.6605 265.742 50.5099C263.863 51.3594 261.699 51.7841 259.249 51.7841ZM322.497 13.3636L322.203 14.9318H307.305L307.599 13.3636H322.497ZM314.558 4.34659H316.126L309.755 43.0611C309.494 44.5312 309.6 45.7972 310.074 46.859C310.547 47.9045 311.274 48.7131 312.254 49.2848C313.235 49.8402 314.362 50.1179 315.636 50.1179C316.077 50.1179 316.502 50.0771 316.91 49.9954C317.335 49.8974 317.792 49.7749 318.282 49.6278L318.478 51.098C317.939 51.294 317.424 51.4411 316.934 51.5391C316.461 51.6371 315.93 51.6861 315.342 51.6861C313.806 51.6861 312.442 51.3349 311.25 50.6325C310.074 49.93 309.192 48.9336 308.603 47.6431C308.032 46.3526 307.893 44.8253 308.187 43.0611L314.558 4.34659ZM341.376 51.7841C338.403 51.7841 335.871 50.9265 333.78 49.2113C331.706 47.4961 330.219 45.152 329.321 42.179C328.439 39.206 328.308 35.8409 328.929 32.0838C329.549 28.4247 330.774 25.1413 332.604 22.2337C334.45 19.3097 336.671 17.0064 339.269 15.3239C341.882 13.625 344.643 12.7756 347.551 12.7756C350.556 12.7756 353.097 13.6413 355.171 15.3729C357.262 17.1044 358.749 19.4567 359.631 22.4297C360.529 25.4027 360.684 28.7514 360.096 32.4759C359.475 36.1349 358.242 39.4265 356.396 42.3505C354.55 45.2582 352.321 47.5614 349.707 49.2603C347.093 50.9428 344.316 51.7841 341.376 51.7841ZM341.376 50.2159C344.088 50.2159 346.644 49.4318 349.045 47.8636C351.447 46.2791 353.489 44.1229 355.171 41.3949C356.854 38.6506 357.973 35.5469 358.528 32.0838C359.083 28.7187 358.977 25.6967 358.209 23.0178C357.442 20.3388 356.143 18.2234 354.314 16.6715C352.484 15.1197 350.262 14.3438 347.649 14.3438C344.97 14.3438 342.43 15.1442 340.028 16.745C337.627 18.3295 335.577 20.494 333.878 23.2383C332.179 25.9663 331.052 29.0455 330.497 32.4759C329.909 35.8409 329.999 38.8629 330.766 41.5419C331.55 44.2209 332.857 46.3363 334.687 47.8881C336.533 49.44 338.762 50.2159 341.376 50.2159ZM396.722 51.7841C394.664 51.7841 392.834 51.3594 391.233 50.5099C389.649 49.6605 388.456 48.419 387.656 46.7855C386.872 45.152 386.659 43.1591 387.019 40.8068C387.247 39.5327 387.656 38.3402 388.244 37.2294C388.848 36.1023 389.739 35.0813 390.915 34.1665C392.107 33.2518 393.683 32.4677 395.644 31.8143C397.604 31.1609 400.054 30.6626 402.995 30.3196C404.759 30.1236 406.433 29.8949 408.018 29.6335C409.602 29.3722 410.917 28.9801 411.963 28.4574C413.008 27.9347 413.612 27.1832 413.776 26.2031L414.168 23.9489C414.658 21.0575 414.119 18.7379 412.551 16.9901C410.982 15.2259 408.581 14.3438 405.347 14.3438C402.701 14.3438 400.242 14.94 397.971 16.1325C395.717 17.3249 394.027 18.9503 392.899 21.0085L391.527 20.4205C392.377 18.8523 393.504 17.4964 394.909 16.353C396.33 15.2095 397.931 14.3274 399.711 13.7067C401.508 13.0859 403.387 12.7756 405.347 12.7756C407.258 12.7756 408.924 13.0614 410.345 13.6332C411.767 14.1886 412.918 14.9727 413.8 15.9854C414.699 16.9819 415.311 18.158 415.638 19.5138C415.981 20.8697 416.014 22.348 415.736 23.9489L411.227 51H409.659L410.933 43.3551H410.737C409.692 45.054 408.434 46.5405 406.964 47.8146C405.51 49.0724 403.909 50.0526 402.161 50.755C400.43 51.4411 398.617 51.7841 396.722 51.7841ZM396.722 50.2159C399.107 50.2159 401.394 49.5788 403.583 48.3047C405.788 47.0142 407.666 45.2255 409.218 42.9386C410.786 40.6353 411.816 37.9645 412.306 34.9261L413.286 29.2415C412.779 29.5845 412.175 29.8867 411.473 30.1481C410.786 30.4094 410.019 30.6463 409.169 30.8587C408.336 31.0547 407.43 31.2262 406.449 31.3732C405.486 31.5202 404.465 31.6591 403.387 31.7898C399.956 32.1818 397.212 32.7781 395.154 33.5785C393.095 34.3789 391.56 35.3835 390.547 36.5923C389.534 37.8011 388.881 39.206 388.587 40.8068C388.146 43.6491 388.693 45.9279 390.229 47.6431C391.764 49.3583 393.928 50.2159 396.722 50.2159ZM435.13 65.8977C433.039 65.8977 431.144 65.6119 429.445 65.0401C427.746 64.4847 426.333 63.6435 425.206 62.5163C424.079 61.4055 423.336 60.017 422.977 58.3509L424.447 57.8608C424.773 59.331 425.419 60.5398 426.383 61.4872C427.346 62.451 428.571 63.1616 430.058 63.619C431.544 64.0927 433.235 64.3295 435.13 64.3295C439.05 64.3295 442.309 63.2923 444.907 61.2177C447.504 59.1431 449.146 55.9986 449.832 51.7841L451.498 41.5909H451.302C450.322 43.6818 449.064 45.4297 447.528 46.8345C446.009 48.223 444.335 49.2685 442.505 49.9709C440.692 50.657 438.854 51 436.992 51C434.052 51 431.626 50.2077 429.715 48.6232C427.804 47.0387 426.489 44.8416 425.77 42.032C425.051 39.2223 425.002 35.9716 425.623 32.2798C426.244 28.5554 427.387 25.223 429.053 22.2827C430.72 19.3423 432.778 17.0227 435.228 15.3239C437.678 13.625 440.39 12.7756 443.363 12.7756C445.389 12.7756 447.161 13.1921 448.68 14.0252C450.216 14.842 451.465 16.0181 452.429 17.5536C453.409 19.0728 454.079 20.8778 454.438 22.9688H454.634L456.202 13.3636H457.771L451.4 51.7841C450.877 54.8878 449.889 57.4851 448.435 59.576C446.981 61.6669 445.127 63.2433 442.873 64.305C440.619 65.3668 438.038 65.8977 435.13 65.8977ZM436.992 49.4318C439.606 49.4318 442.015 48.7376 444.221 47.3491C446.442 45.9606 448.321 43.984 449.856 41.4194C451.408 38.8548 452.478 35.8082 453.066 32.2798C453.621 28.8821 453.613 25.8356 453.042 23.1403C452.486 20.4286 451.384 18.2887 449.734 16.7205C448.1 15.136 445.944 14.3438 443.265 14.3438C440.619 14.3438 438.177 15.136 435.939 16.7205C433.717 18.2887 431.838 20.4286 430.303 23.1403C428.784 25.8356 427.746 28.8821 427.191 32.2798C426.636 35.6776 426.644 38.6669 427.216 41.2479C427.804 43.8125 428.914 45.8217 430.548 47.2756C432.198 48.7131 434.346 49.4318 436.992 49.4318ZM479.051 51.7841C475.752 51.7841 473.015 50.9265 470.843 49.2113C468.67 47.4961 467.151 45.1683 466.285 42.228C465.42 39.2876 465.297 35.9716 465.918 32.2798C466.539 28.5881 467.772 25.272 469.618 22.3317C471.464 19.3913 473.702 17.0636 476.332 15.3484C478.962 13.6332 481.763 12.7756 484.736 12.7756C486.925 12.7756 488.869 13.2493 490.568 14.1967C492.283 15.1278 493.696 16.4183 494.807 18.0682C495.934 19.7017 496.71 21.5966 497.134 23.7528C497.559 25.8928 497.576 28.1797 497.183 30.6136L496.889 32.1818H466.702L466.996 30.6136H495.615C496.105 27.608 495.95 24.88 495.15 22.4297C494.366 19.9631 493.067 18.0028 491.254 16.549C489.457 15.0788 487.284 14.3438 484.736 14.3438C482.155 14.3438 479.672 15.1115 477.287 16.647C474.902 18.1825 472.844 20.2734 471.112 22.9197C469.381 25.566 468.205 28.5554 467.584 31.8878L467.486 31.9858C466.931 35.2855 466.988 38.3157 467.658 41.0763C468.327 43.837 469.618 46.0504 471.529 47.7166C473.44 49.3828 475.98 50.2159 479.149 50.2159C481.436 50.2159 483.446 49.8075 485.177 48.9908C486.925 48.174 488.379 47.2347 489.539 46.1729C490.715 45.1112 491.597 44.2045 492.185 43.4531L493.263 44.3352C492.577 45.2827 491.589 46.3363 490.298 47.4961C489.008 48.6559 487.423 49.6605 485.545 50.5099C483.666 51.3594 481.502 51.7841 479.051 51.7841ZM510.642 25.7131L506.427 51H504.859L511.132 13.3636H512.7L511.72 19.3423H511.916C513.092 17.3821 514.791 15.8139 517.012 14.6378C519.25 13.4616 521.668 12.8736 524.265 12.8736C526.781 12.8736 528.913 13.4208 530.66 14.5153C532.408 15.6097 533.666 17.1207 534.434 19.0483C535.202 20.9759 535.373 23.1974 534.948 25.7131L530.734 51H529.166L533.38 25.7131C533.919 22.3807 533.348 19.669 531.665 17.5781C529.999 15.4872 527.5 14.4418 524.167 14.4418C521.946 14.4418 519.871 14.9236 517.943 15.8874C516.032 16.8512 514.423 18.1825 513.116 19.8814C511.826 21.5803 511.001 23.5241 510.642 25.7131ZM557.503 51.7841C554.4 51.7841 551.802 50.9265 549.711 49.2113C547.637 47.4961 546.175 45.1683 545.325 42.228C544.476 39.2713 544.353 35.9553 544.958 32.2798C545.562 28.5717 546.787 25.2475 548.633 22.3072C550.479 19.3668 552.733 17.0472 555.396 15.3484C558.075 13.6332 560.934 12.7756 563.972 12.7756C566.259 12.7756 568.26 13.2656 569.975 14.2457C571.69 15.2095 573.03 16.5653 573.994 18.3132C574.958 20.0447 575.439 22.054 575.439 24.3409H573.773C573.773 21.2699 572.875 18.8359 571.078 17.0391C569.297 15.2422 566.929 14.3438 563.972 14.3438C561.211 14.3438 558.606 15.1278 556.156 16.696C553.722 18.2479 551.647 20.3714 549.932 23.0668C548.233 25.7621 547.098 28.8331 546.526 32.2798C545.971 35.6122 546.044 38.6342 546.747 41.3459C547.465 44.0575 548.739 46.2138 550.569 47.8146C552.399 49.4155 554.71 50.2159 557.503 50.2159C559.545 50.2159 561.497 49.7912 563.36 48.9418C565.222 48.0923 566.855 46.8999 568.26 45.3643C569.665 43.8288 570.686 42.0483 571.323 40.0227H572.989C572.221 42.424 571.053 44.5067 569.485 46.271C567.917 48.0188 566.096 49.3746 564.021 50.3384C561.963 51.3022 559.79 51.7841 557.503 51.7841ZM581.577 65.1136C580.94 65.1136 580.279 65.0238 579.593 64.8441C578.923 64.6808 578.245 64.4439 577.559 64.1335L578.343 62.7614C579.78 63.4638 581.177 63.7006 582.533 63.4719C583.905 63.2596 585.196 62.6143 586.404 61.5362C587.613 60.4744 588.7 59.0206 589.663 57.1747L592.604 51.5881L585.351 13.3636H586.919L593.731 49.0398H593.927L612.598 13.3636H614.362L591.084 57.8608C590.251 59.4453 589.32 60.7766 588.291 61.8548C587.278 62.9329 586.2 63.7415 585.057 64.2805C583.913 64.8359 582.754 65.1136 581.577 65.1136Z" fill="white"/>
<path d="M5.90763 51L4.91355 51.1087L5.01104 52H5.90763V51ZM0.41899 0.81818V-0.18182H-0.696349L-0.575082 0.926907L0.41899 0.81818ZM2.08518 0.81818L3.07953 0.712008L2.98409 -0.18182H2.08518V0.81818ZM7.18177 48.5497L6.18743 48.6559L6.28287 49.5497H7.18177V48.5497ZM7.3778 48.5497V49.5497H8.03312L8.29469 48.9489L7.3778 48.5497ZM28.1562 0.81818V-0.18182H27.5009L27.2393 0.419041L28.1562 0.81818ZM30.3125 0.81818L31.3074 0.71807L31.2169 -0.18182H30.3125V0.81818ZM35.115 48.5497L34.12 48.6498L34.2106 49.5497H35.115V48.5497ZM35.311 48.5497V49.5497H35.9627L36.2259 48.9536L35.311 48.5497ZM56.3835 0.81818V-0.18182H55.7318L55.4687 0.414309L56.3835 0.81818ZM58.1477 0.81818L59.0625 1.222L59.6822 -0.18182H58.1477V0.81818ZM35.9971 51V52H36.6488L36.912 51.4038L35.9971 51ZM33.7429 51L32.7479 51.1001L32.8384 52H33.7429V51ZM28.9403 3.26847L29.9353 3.16835L29.8447 2.26847H28.9403V3.26847ZM28.7443 3.26847V2.26847H28.0877L27.8267 2.87091L28.7443 3.26847ZM8.06388 51V52H8.72044L8.98145 51.3976L8.06388 51ZM6.9017 50.8913L1.41306 0.709454L-0.575082 0.926907L4.91355 51.1087L6.9017 50.8913ZM0.41899 1.81818H2.08518V-0.18182H0.41899V1.81818ZM1.09083 0.924353L6.18743 48.6559L8.17612 48.4435L3.07953 0.712008L1.09083 0.924353ZM7.18177 49.5497H7.3778V47.5497H7.18177V49.5497ZM8.29469 48.9489L29.0731 1.21732L27.2393 0.419041L6.46091 48.1506L8.29469 48.9489ZM28.1562 1.81818H30.3125V-0.18182H28.1562V1.81818ZM29.3175 0.918291L34.12 48.6498L36.11 48.4496L31.3074 0.71807L29.3175 0.918291ZM35.115 49.5497H35.311V47.5497H35.115V49.5497ZM36.2259 48.9536L57.2983 1.22205L55.4687 0.414309L34.3962 48.1458L36.2259 48.9536ZM56.3835 1.81818H58.1477V-0.18182H56.3835V1.81818ZM57.2328 0.414364L35.0823 50.5962L36.912 51.4038L59.0625 1.222L57.2328 0.414364ZM35.9971 50H33.7429V52H35.9971V50ZM34.7378 50.8999L29.9353 3.16835L27.9453 3.36858L32.7479 51.1001L34.7378 50.8999ZM28.9403 2.26847H28.7443V4.26847H28.9403V2.26847ZM27.8267 2.87091L7.1463 50.6024L8.98145 51.3976L29.6619 3.66602L27.8267 2.87091ZM8.06388 50H5.90763V52H8.06388V50ZM60.6163 49.2113L59.9967 49.9962L59.9967 49.9962L60.6163 49.2113ZM56.0588 42.228L57.0181 41.9455L57.0181 41.9455L56.0588 42.228ZM55.6913 32.2798L54.7051 32.114L55.6913 32.2798ZM59.3912 22.3317L60.2381 22.8634L60.2381 22.8634L59.3912 22.3317ZM66.105 15.3484L65.5587 14.5108L65.5587 14.5108L66.105 15.3484ZM80.3411 14.1967L79.854 15.0702L79.864 15.0756L80.3411 14.1967ZM84.5801 18.0682L83.7506 18.6267L83.757 18.6361L84.5801 18.0682ZM86.9079 23.7528L85.9267 23.9461L85.927 23.9475L86.9079 23.7528ZM86.9569 30.6136L87.9398 30.7979L87.9421 30.7853L87.9442 30.7727L86.9569 30.6136ZM86.6629 32.1818V33.1818H87.4928L87.6457 32.3661L86.6629 32.1818ZM56.4754 32.1818L55.4925 31.9975L55.2704 33.1818H56.4754V32.1818ZM56.7694 30.6136V29.6136H55.9395L55.7865 30.4293L56.7694 30.6136ZM85.3887 30.6136V31.6136H86.2389L86.3757 30.7746L85.3887 30.6136ZM84.9232 22.4297L83.9701 22.7326L83.9726 22.7402L84.9232 22.4297ZM81.0272 16.549L80.3939 17.323L80.4017 17.3292L81.0272 16.549ZM67.0606 16.647L66.5193 15.8062L66.5193 15.8062L67.0606 16.647ZM57.3575 31.8878L58.0646 32.5949L58.2838 32.3757L58.3406 32.0709L57.3575 31.8878ZM57.2595 31.9858L56.5523 31.2787L56.3264 31.5047L56.2733 31.8198L57.2595 31.9858ZM57.431 41.0763L56.4592 41.3121L56.4592 41.3121L57.431 41.0763ZM61.3024 47.7166L61.9596 46.9628L61.9596 46.9628L61.3024 47.7166ZM74.9505 48.9908L74.5272 48.0848L74.5239 48.0863L74.9505 48.9908ZM79.312 46.1729L78.6419 45.4307L78.6368 45.4354L79.312 46.1729ZM81.9583 43.4531L82.5916 42.6792L81.8006 42.032L81.1708 42.8368L81.9583 43.4531ZM83.0364 44.3352L83.8464 44.9217L84.3993 44.1582L83.6697 43.5613L83.0364 44.3352ZM80.0716 47.4961L80.74 48.2399L80.74 48.2399L80.0716 47.4961ZM75.3181 50.5099L75.7301 51.4211L75.7301 51.4211L75.3181 50.5099ZM68.8248 50.7841C65.7051 50.7841 63.1999 49.9768 61.236 48.4264L59.9967 49.9962C62.378 51.8761 65.345 52.7841 68.8248 52.7841V50.7841ZM61.236 48.4264C59.2432 46.8532 57.832 44.7096 57.0181 41.9455L55.0995 42.5104C56.0172 45.6271 57.6443 48.139 59.9967 49.9962L61.236 48.4264ZM57.0181 41.9455C56.2036 39.1793 56.0764 36.0204 56.6774 32.4456L54.7051 32.114C54.0647 35.9228 54.1825 39.396 55.0995 42.5104L57.0181 41.9455ZM56.6774 32.4456C57.278 28.8735 58.4677 25.6836 60.2381 22.8634L58.5443 21.8C56.623 24.8604 55.346 28.3026 54.7051 32.114L56.6774 32.4456ZM60.2381 22.8634C62.0153 20.0325 64.1547 17.8141 66.6512 16.186L65.5587 14.5108C62.7953 16.313 60.4589 18.7502 58.5443 21.8L60.2381 22.8634ZM66.6512 16.186C69.1283 14.5705 71.7416 13.7756 74.5095 13.7756V11.7756C71.3313 11.7756 68.3416 12.6958 65.5587 14.5108L66.6512 16.186ZM74.5095 13.7756C76.5496 13.7756 78.322 14.2157 79.8541 15.0701L80.8282 13.3234C78.9625 12.2829 76.8471 11.7756 74.5095 11.7756V13.7756ZM79.864 15.0756C81.4349 15.9283 82.728 17.1078 83.7506 18.6267L85.4096 17.5097C84.2107 15.7289 82.6778 14.3273 80.8182 13.3179L79.864 15.0756ZM83.757 18.6361C84.7984 20.1453 85.5256 21.9098 85.9267 23.9461L87.889 23.5596C87.4407 21.2834 86.6161 19.2581 85.4032 17.5003L83.757 18.6361ZM85.927 23.9475C86.3258 25.9567 86.3452 28.1229 85.9696 30.4546L87.9442 30.7727C88.3527 28.2365 88.3394 25.8288 87.8888 23.5582L85.927 23.9475ZM85.974 30.4293L85.68 31.9975L87.6457 32.3661L87.9398 30.7979L85.974 30.4293ZM86.6629 31.1818H56.4754V33.1818H86.6629V31.1818ZM57.4582 32.3661L57.7523 30.7979L55.7865 30.4293L55.4925 31.9975L57.4582 32.3661ZM56.7694 31.6136H85.3887V29.6136H56.7694V31.6136ZM86.3757 30.7746C86.8868 27.6396 86.7321 24.7467 85.8737 22.1192L83.9726 22.7402C84.7151 25.0132 84.8707 27.5763 84.4017 30.4527L86.3757 30.7746ZM85.8762 22.1267C85.0394 19.4944 83.637 17.3598 81.6528 15.7688L80.4017 17.3292C82.0439 18.6459 83.2387 20.4317 83.9702 22.7326L85.8762 22.1267ZM81.6604 15.775C79.6671 14.1442 77.2645 13.3438 74.5095 13.3438V15.3438C76.851 15.3438 78.7935 16.0135 80.394 17.323L81.6604 15.775ZM74.5095 13.3438C71.7177 13.3438 69.049 14.1775 66.5193 15.8062L67.6019 17.4878C69.842 16.0456 72.1393 15.3438 74.5095 15.3438V13.3438ZM66.5193 15.8062C64.0035 17.426 61.8486 19.6221 60.0491 22.3722L61.7227 23.4673C63.3862 20.9248 65.3478 18.9391 67.6019 17.4878L66.5193 15.8062ZM60.0491 22.3722C58.2401 25.1369 57.0176 28.2518 56.3744 31.7047L58.3406 32.0709C58.9388 28.859 60.0686 25.9952 61.7227 23.4673L60.0491 22.3722ZM56.6504 31.1807L56.5523 31.2787L57.9666 32.6929L58.0646 32.5949L56.6504 31.1807ZM56.2733 31.8198C55.6994 35.2296 55.7523 38.3986 56.4592 41.3121L58.4028 40.8406C57.7701 38.2328 57.7087 35.3414 58.2456 32.1518L56.2733 31.8198ZM56.4592 41.3121C57.1716 44.2486 58.5596 46.6521 60.6453 48.4704L61.9596 46.9628C60.2228 45.4487 59.0299 43.4254 58.4028 40.8406L56.4592 41.3121ZM60.6453 48.4704C62.7808 50.3321 65.5747 51.2159 68.9228 51.2159V49.2159C65.9329 49.2159 63.6465 48.4335 61.9596 46.9628L60.6453 48.4704ZM68.9228 51.2159C71.3289 51.2159 73.4887 50.786 75.3771 49.8952L74.5239 48.0863C72.9492 48.8291 71.0906 49.2159 68.9228 49.2159V51.2159ZM75.3739 49.8967C77.1937 49.0463 78.7378 48.0544 79.9873 46.9105L78.6368 45.4354C77.5666 46.415 76.2031 47.3017 74.5272 48.0848L75.3739 49.8967ZM79.9821 46.9152C81.177 45.8365 82.1068 44.8859 82.7458 44.0694L81.1708 42.8368C80.6337 43.5232 79.7993 44.3858 78.6419 45.4307L79.9821 46.9152ZM81.3251 44.2271L82.4032 45.1092L83.6697 43.5613L82.5916 42.6792L81.3251 44.2271ZM82.2265 43.7487C81.5966 44.6186 80.6637 45.6194 79.4032 46.7523L80.74 48.2399C82.0605 47.0531 83.1041 45.9467 83.8464 44.9217L82.2265 43.7487ZM79.4032 46.7523C78.2018 47.832 76.7081 48.7839 74.906 49.5988L75.7301 51.4211C77.6851 50.5371 79.3604 49.4798 80.74 48.2399L79.4032 46.7523ZM74.906 49.5988C73.179 50.3797 71.1594 50.7841 68.8248 50.7841V52.7841C71.3908 52.7841 73.7 52.3391 75.7301 51.4211L74.906 49.5988ZM104.532 0.81818L105.518 0.981954L105.711 -0.18182H104.532V0.81818ZM96.2006 51V52H97.0483L97.1871 51.1638L96.2006 51ZM94.6324 51L93.6459 50.8362L93.4527 52H94.6324V51ZM102.963 0.81818V-0.18182H102.116L101.977 0.654406L102.963 0.81818ZM103.545 0.654406L95.2141 50.8362L97.1871 51.1638L105.518 0.981954L103.545 0.654406ZM96.2006 50H94.6324V52H96.2006V50ZM95.6189 51.1638L103.95 0.981954L101.977 0.654406L93.6459 50.8362L95.6189 51.1638ZM102.963 1.81818H104.532V-0.18182H102.963V1.81818ZM115.16 49.2113L114.522 49.982L114.525 49.9844L115.16 49.2113ZM110.774 42.228L109.813 42.5041L109.813 42.5055L110.774 42.228ZM110.406 32.2798L111.393 32.4421L111.393 32.4407L110.406 32.2798ZM114.082 22.3072L113.235 21.7755L113.235 21.7755L114.082 22.3072ZM120.844 15.3484L121.382 16.1914L121.384 16.1905L120.844 15.3484ZM135.424 14.2457L134.927 15.114L134.934 15.1175L135.424 14.2457ZM139.442 18.3132L138.566 18.7961L138.568 18.7996L139.442 18.3132ZM140.888 24.3409V25.3409H141.888V24.3409H140.888ZM139.221 24.3409H138.221V25.3409H139.221V24.3409ZM136.526 17.0391L135.816 17.7429L135.819 17.7462L136.526 17.0391ZM121.604 16.696L122.142 17.5392L122.143 17.5383L121.604 16.696ZM115.38 23.0668L114.537 22.5299L114.534 22.5335L115.38 23.0668ZM111.974 32.2798L112.961 32.4442L112.961 32.4435L111.974 32.2798ZM112.195 41.3459L111.227 41.5966L111.228 41.6021L112.195 41.3459ZM116.017 47.8146L116.676 47.0621L116.676 47.0621L116.017 47.8146ZM128.808 48.9418L129.223 49.8516L129.223 49.8516L128.808 48.9418ZM133.708 45.3643L132.971 44.6893L132.971 44.6893L133.708 45.3643ZM136.771 40.0227V39.0227H136.037L135.817 39.7227L136.771 40.0227ZM138.437 40.0227L139.39 40.3273L139.807 39.0227H138.437V40.0227ZM134.933 46.271L135.678 46.9388L135.681 46.9353L134.933 46.271ZM129.469 50.3384L129.048 49.4315L129.045 49.4328L129.469 50.3384ZM122.952 50.7841C120.043 50.7841 117.68 49.9853 115.794 48.4381L114.525 49.9844C116.821 51.8676 119.653 52.7841 122.952 52.7841V50.7841ZM115.797 48.4406C113.898 46.8705 112.536 44.725 111.734 41.9504L109.813 42.5055C110.71 45.6117 112.272 48.1216 114.522 49.982L115.797 48.4406ZM111.735 41.9519C110.934 39.1644 110.808 36.0016 111.393 32.4421L109.419 32.1176C108.796 35.9089 108.914 39.3782 109.813 42.5041L111.735 41.9519ZM111.393 32.4407C111.978 28.8534 113.159 25.6572 114.928 22.8389L113.235 21.7755C111.312 24.8379 110.043 28.2901 109.419 32.119L111.393 32.4407ZM114.928 22.8389C116.704 20.0113 118.856 17.803 121.382 16.1914L120.306 14.5053C117.507 16.2915 115.151 18.7224 113.235 21.7755L114.928 22.8389ZM121.384 16.1905C123.909 14.5733 126.582 13.7756 129.42 13.7756V11.7756C126.182 11.7756 123.137 12.693 120.305 14.5062L121.384 16.1905ZM129.42 13.7756C131.561 13.7756 133.386 14.233 134.927 15.114L135.92 13.3775C134.031 12.2982 131.854 11.7756 129.42 11.7756V13.7756ZM134.934 15.1175C136.484 15.9887 137.691 17.2087 138.566 18.7961L140.318 17.8303C139.265 15.9219 137.793 14.4303 135.913 13.3739L134.934 15.1175ZM138.568 18.7996C139.437 20.3608 139.888 22.1977 139.888 24.3409H141.888C141.888 21.9102 141.374 19.7287 140.316 17.8269L138.568 18.7996ZM140.888 23.3409H139.221V25.3409H140.888V23.3409ZM140.221 24.3409C140.221 21.0637 139.256 18.3544 137.233 16.332L135.819 17.7462C137.39 19.3175 138.221 21.476 138.221 24.3409H140.221ZM137.236 16.3352C135.236 14.3168 132.595 13.3438 129.42 13.3438V15.3438C132.159 15.3438 134.255 16.1676 135.816 17.7429L137.236 16.3352ZM129.42 13.3438C126.458 13.3438 123.667 14.1884 121.065 15.8538L122.143 17.5383C124.441 16.0673 126.861 15.3438 129.42 15.3438V13.3438ZM121.066 15.8528C118.497 17.4912 116.322 19.7246 114.537 22.5299L116.224 23.6036C117.869 21.0183 119.843 19.0045 122.142 17.5392L121.066 15.8528ZM114.534 22.5335C112.758 25.3519 111.579 28.5509 110.988 32.1162L112.961 32.4435C113.513 29.1153 114.605 26.1722 116.226 23.6L114.534 22.5335ZM110.988 32.1154C110.414 35.558 110.483 38.7245 111.227 41.5966L113.163 41.0951C112.502 38.544 112.424 35.6664 112.961 32.4442L110.988 32.1154ZM111.228 41.6021C111.99 44.4757 113.357 46.8159 115.359 48.5672L116.676 47.0621C115.018 45.6116 113.837 43.6393 113.161 41.0897L111.228 41.6021ZM115.359 48.5672C117.398 50.3511 119.954 51.2159 122.952 51.2159V49.2159C120.362 49.2159 118.296 48.4798 116.676 47.0621L115.359 48.5672ZM122.952 51.2159C125.137 51.2159 127.231 50.7603 129.223 49.8516L128.393 48.0319C126.66 48.8221 124.85 49.2159 122.952 49.2159V51.2159ZM129.223 49.8516C131.209 48.9454 132.952 47.6723 134.446 46.0394L132.971 44.6893C131.655 46.1274 130.131 47.2392 128.393 48.0319L129.223 49.8516ZM134.446 46.0394C135.952 44.3939 137.045 42.4847 137.725 40.3228L135.817 39.7227C135.223 41.6119 134.275 43.2638 132.971 44.6893L134.446 46.0394ZM136.771 41.0227H138.437V39.0227H136.771V41.0227ZM137.485 39.7182C136.757 41.9957 135.655 43.9537 134.186 45.6066L135.681 46.9353C137.348 45.0598 138.583 42.8523 139.39 40.3273L137.485 39.7182ZM134.189 45.6031C132.709 47.253 130.997 48.5263 129.048 49.4315L129.891 51.2453C132.091 50.223 134.022 48.7846 135.678 46.9388L134.189 45.6031ZM129.045 49.4328C127.121 50.334 125.093 50.7841 122.952 50.7841V52.7841C125.384 52.7841 127.702 52.2704 129.893 51.2441L129.045 49.4328ZM153.396 49.2113L152.759 49.982L152.762 49.9844L153.396 49.2113ZM148.937 42.179L147.978 42.4634L147.98 42.4683L148.937 42.179ZM148.545 32.0838L147.559 31.9166L147.558 31.9208L148.545 32.0838ZM152.22 22.2337L151.375 21.6998L151.374 21.7011L152.22 22.2337ZM158.885 15.3239L159.429 16.1631L159.43 16.1623L158.885 15.3239ZM174.787 15.3729L174.147 16.1406L174.15 16.1431L174.787 15.3729ZM179.247 22.4297L178.288 22.7141L178.29 22.719L179.247 22.4297ZM179.712 32.4759L180.698 32.6431L180.7 32.6318L179.712 32.4759ZM176.012 42.3505L176.857 42.8865L176.858 42.8843L176.012 42.3505ZM169.323 49.2603L169.864 50.1011L169.868 50.0987L169.323 49.2603ZM168.662 47.8636L169.208 48.7009L169.212 48.6983L168.662 47.8636ZM174.787 41.3949L175.638 41.9198L175.64 41.9176L174.787 41.3949ZM178.144 32.0838L177.158 31.921L177.157 31.9255L178.144 32.0838ZM177.826 23.0178L176.864 23.2932L176.864 23.2933L177.826 23.0178ZM173.93 16.6715L173.283 17.4341L173.283 17.4341L173.93 16.6715ZM159.645 16.745L160.195 17.5797L160.199 17.5771L159.645 16.745ZM153.494 23.2383L154.343 23.7669L154.345 23.7646L153.494 23.2383ZM150.113 32.4759L151.098 32.648L151.1 32.6357L150.113 32.4759ZM150.383 41.5419L149.421 41.8174L149.423 41.8228L150.383 41.5419ZM154.303 47.8881L153.656 48.6508L153.659 48.6536L154.303 47.8881ZM160.992 50.7841C158.226 50.7841 155.925 49.9918 154.031 48.4381L152.762 49.9844C155.05 51.8612 157.812 52.7841 160.992 52.7841V50.7841ZM154.034 48.4406C152.133 46.8693 150.745 44.704 149.894 41.8897L147.98 42.4683C148.926 45.6 150.511 48.1229 152.759 49.982L154.034 48.4406ZM149.896 41.8945C149.065 39.0959 148.93 35.888 149.531 32.2468L147.558 31.9208C146.918 35.7939 147.044 39.316 147.978 42.4634L149.896 41.8945ZM149.531 32.2511C150.131 28.7112 151.313 25.5538 153.067 22.7662L151.374 21.7011C149.469 24.7289 148.2 28.1382 147.559 31.9166L149.531 32.2511ZM153.066 22.7675C154.843 19.9515 156.967 17.7581 159.429 16.1631L158.341 14.4846C155.609 16.2547 153.289 18.6678 151.375 21.6998L153.066 22.7675ZM159.43 16.1623C161.894 14.5609 164.467 13.7756 167.167 13.7756V11.7756C164.052 11.7756 161.104 12.6891 158.34 14.4854L159.43 16.1623ZM167.167 13.7756C169.966 13.7756 172.272 14.5762 174.147 16.1406L175.428 14.6051C173.153 12.7065 170.379 11.7756 167.167 11.7756V13.7756ZM174.15 16.1431C176.067 17.7307 177.454 19.9034 178.288 22.7141L180.206 22.1452C179.275 19.01 177.69 16.4781 175.425 14.6027L174.15 16.1431ZM178.29 22.719C179.136 25.5202 179.294 28.7129 178.725 32.3199L180.7 32.6318C181.307 28.7899 181.154 25.2852 180.204 22.1404L178.29 22.719ZM178.726 32.3086C178.126 35.8471 176.937 39.0124 175.167 41.8167L176.858 42.8843C178.78 39.8406 180.057 36.4228 180.698 32.6431L178.726 32.3086ZM175.168 41.8145C173.391 44.6139 171.259 46.809 168.778 48.4219L169.868 50.0987C172.614 48.3138 174.942 45.9024 176.857 42.8865L175.168 41.8145ZM168.782 48.4195C166.32 50.0043 163.729 50.7841 160.992 50.7841V52.7841C164.136 52.7841 167.099 51.8813 169.864 50.1011L168.782 48.4195ZM160.992 51.2159C163.91 51.2159 166.654 50.3688 169.208 48.7009L168.115 47.0264C165.866 48.4948 163.498 49.2159 160.992 49.2159V51.2159ZM169.212 48.6983C171.748 47.0249 173.888 44.7575 175.638 41.9198L173.936 40.8699C172.321 43.4883 170.377 45.5333 168.111 47.029L169.212 48.6983ZM175.64 41.9176C177.397 39.0522 178.557 35.8227 179.132 32.2422L177.157 31.9255C176.62 35.2711 175.543 38.249 173.935 40.8722L175.64 41.9176ZM179.131 32.2467C179.705 28.7675 179.604 25.5919 178.787 22.7423L176.864 23.2933C177.583 25.8015 177.694 28.67 177.158 31.921L179.131 32.2467ZM178.787 22.7423C177.974 19.9049 176.58 17.6082 174.577 15.9089L173.283 17.4341C174.939 18.8386 176.142 20.7727 176.864 23.2932L178.787 22.7423ZM174.577 15.9089C172.55 14.1897 170.093 13.3438 167.265 13.3438V15.3438C169.664 15.3438 171.651 16.0497 173.283 17.4341L174.577 15.9089ZM167.265 13.3438C164.373 13.3438 161.642 14.2115 159.09 15.913L160.199 17.5771C162.45 16.0769 164.799 15.3438 167.265 15.3438V13.3438ZM159.094 15.9104C156.558 17.584 154.41 19.8594 152.644 22.7119L154.345 23.7646C155.977 21.1285 157.929 19.0751 160.195 17.5797L159.094 15.9104ZM152.646 22.7097C150.871 25.5591 149.701 28.7655 149.126 32.316L151.1 32.6357C151.636 29.3254 152.72 26.3735 154.343 23.7669L152.646 22.7097ZM149.128 32.3037C148.52 35.7848 148.603 38.9638 149.421 41.8174L151.344 41.2664C150.626 38.762 150.53 35.897 151.098 32.648L149.128 32.3037ZM149.423 41.8228C150.253 44.6581 151.654 46.9528 153.656 48.6507L154.95 47.1255C153.293 45.7198 152.081 43.7837 151.342 41.261L149.423 41.8228ZM153.659 48.6536C155.701 50.37 158.164 51.2159 160.992 51.2159V49.2159C158.593 49.2159 156.597 48.5099 154.946 47.1227L153.659 48.6536ZM187.621 51L186.634 50.8356L186.44 52H187.621V51ZM193.893 13.3636V12.3636H193.046L192.907 13.1992L193.893 13.3636ZM195.462 13.3636L196.447 13.5364L196.652 12.3636H195.462V13.3636ZM194.481 18.9503L193.497 18.7775L193.291 19.9503H194.481V18.9503ZM194.678 18.9503V19.9503H195.26L195.547 19.4439L194.678 18.9503ZM199.162 14.5643L199.655 15.4343L199.66 15.4312L199.162 14.5643ZM212.271 14.9808L212.969 14.2656L212.969 14.2656L212.271 14.9808ZM214.868 20.6165L213.876 20.7405L213.985 21.6165H214.868V20.6165ZM215.064 20.6165V21.6165H215.731L215.987 21.0011L215.064 20.6165ZM219.744 14.9808L219.195 14.1449L219.195 14.1449L219.744 14.9808ZM234.985 16.4755L234.122 16.9805L234.123 16.983L234.985 16.4755ZM236.136 25.7131L235.15 25.5466L235.15 25.5487L236.136 25.7131ZM231.922 51V52H232.769L232.908 51.1644L231.922 51ZM230.354 51L229.367 50.8356L229.173 52H230.354V51ZM234.568 25.7131L235.555 25.8775L235.555 25.8728L234.568 25.7131ZM233.735 17.5781L232.846 18.0364L232.849 18.0419L233.735 17.5781ZM218.837 17.6271L219.534 18.3449L219.534 18.3449L218.837 17.6271ZM214.77 25.7131L215.756 25.8775L215.757 25.8751L214.77 25.7131ZM210.555 51V52H211.402L211.542 51.1644L210.555 51ZM208.987 51L208.001 50.8356L207.807 52H208.987V51ZM213.202 25.7131L214.188 25.8775L214.189 25.8728L213.202 25.7131ZM212.369 17.5781L211.48 18.0364L211.483 18.0419L212.369 17.5781ZM199.823 15.8874L199.337 15.0137L199.333 15.0156L199.823 15.8874ZM195.584 19.8814L194.747 19.3341L194.743 19.3398L195.584 19.8814ZM193.403 25.7131L194.39 25.8775L194.39 25.8751L193.403 25.7131ZM189.189 51V52H190.036L190.175 51.1644L189.189 51ZM188.607 51.1644L194.88 13.528L192.907 13.1992L186.634 50.8356L188.607 51.1644ZM193.893 14.3636H195.462V12.3636H193.893V14.3636ZM194.477 13.1908L193.497 18.7775L195.466 19.1231L196.447 13.5364L194.477 13.1908ZM194.481 19.9503H194.678V17.9503H194.481V19.9503ZM195.547 19.4439C196.48 17.8005 197.838 16.4634 199.655 15.4343L198.669 13.6943C196.564 14.8867 194.933 16.4736 193.808 18.4567L195.547 19.4439ZM199.66 15.4312C201.453 14.4002 203.508 13.8736 205.851 13.8736V11.8736C203.195 11.8736 200.791 12.4741 198.663 13.6974L199.66 15.4312ZM205.851 13.8736C208.541 13.8736 210.387 14.5379 211.572 15.696L212.969 14.2656C211.279 12.6141 208.845 11.8736 205.851 11.8736V13.8736ZM211.572 15.696C212.819 16.9154 213.604 18.5708 213.876 20.7405L215.86 20.4924C215.543 17.9576 214.597 15.8559 212.969 14.2656L211.572 15.696ZM214.868 21.6165H215.064V19.6165H214.868V21.6165ZM215.987 21.0011C216.89 18.8342 218.319 17.1125 220.293 15.8168L219.195 14.1449C216.889 15.6588 215.198 17.6942 214.141 20.2319L215.987 21.0011ZM220.293 15.8168C222.252 14.5306 224.548 13.8736 227.217 13.8736V11.8736C224.202 11.8736 221.516 12.6214 219.195 14.1449L220.293 15.8168ZM227.217 13.8736C230.778 13.8736 232.958 14.9918 234.122 16.9805L235.848 15.9705C234.202 13.1567 231.203 11.8736 227.217 11.8736V13.8736ZM234.123 16.983C235.37 19.0992 235.763 21.9171 235.15 25.5466L237.122 25.8795C237.784 21.9622 237.409 18.6217 235.846 15.968L234.123 16.983ZM235.15 25.5487L230.935 50.8356L232.908 51.1644L237.123 25.8775L235.15 25.5487ZM231.922 50H230.354V52H231.922V50ZM231.34 51.1644L235.555 25.8775L233.582 25.5487L229.367 50.8356L231.34 51.1644ZM235.555 25.8728C236.115 22.4159 235.851 19.4635 234.621 17.1144L232.849 18.0419C233.808 19.8746 234.1 22.3454 233.581 25.5534L235.555 25.8728ZM234.624 17.1198C233.306 14.5637 230.649 13.4418 227.119 13.4418V15.4418C230.255 15.4418 232.008 16.4107 232.846 18.0364L234.624 17.1198ZM227.119 13.4418C223.553 13.4418 220.535 14.5872 218.141 16.9094L219.534 18.3449C221.518 16.4199 224.02 15.4418 227.119 15.4418V13.4418ZM218.141 16.9093C215.799 19.1808 214.353 22.0782 213.783 25.5511L215.757 25.8751C216.265 22.7812 217.53 20.288 219.534 18.3449L218.141 16.9093ZM213.783 25.5487L209.569 50.8356L211.542 51.1644L215.756 25.8775L213.783 25.5487ZM210.555 50H208.987V52H210.555V50ZM209.974 51.1644L214.188 25.8775L212.215 25.5487L208.001 50.8356L209.974 51.1644ZM214.189 25.8728C214.748 22.4159 214.484 19.4635 213.255 17.1144L211.483 18.0419C212.442 19.8746 212.733 22.3454 212.214 25.5534L214.189 25.8728ZM213.257 17.1198C211.939 14.5637 209.282 13.4418 205.753 13.4418V15.4418C208.888 15.4418 210.642 16.4107 211.48 18.0364L213.257 17.1198ZM205.753 13.4418C203.382 13.4418 201.234 13.9575 199.337 15.0137L200.309 16.7612C201.875 15.8898 203.68 15.4418 205.753 15.4418V13.4418ZM199.333 15.0156C197.473 16.0607 195.943 17.5052 194.747 19.3341L196.421 20.4286C197.447 18.8599 198.742 17.6417 200.313 16.7592L199.333 15.0156ZM194.743 19.3398C193.568 21.1647 192.796 23.2402 192.417 25.5511L194.39 25.8751C194.73 23.8081 195.411 21.9958 196.425 20.423L194.743 19.3398ZM192.417 25.5487L188.202 50.8356L190.175 51.1644L194.39 25.8775L192.417 25.5487ZM189.189 50H187.621V52H189.189V50ZM251.04 49.2113L250.421 49.9962L250.421 49.9962L251.04 49.2113ZM246.483 42.228L247.442 41.9455L247.442 41.9455L246.483 42.228ZM246.115 32.2798L245.129 32.114L246.115 32.2798ZM249.815 22.3317L250.662 22.8634L250.662 22.8634L249.815 22.3317ZM256.529 15.3484L255.983 14.5108L255.983 14.5108L256.529 15.3484ZM270.765 14.1967L270.278 15.0702L270.288 15.0756L270.765 14.1967ZM275.004 18.0682L274.174 18.6267L274.181 18.6361L275.004 18.0682ZM277.332 23.7528L276.351 23.9461L276.351 23.9475L277.332 23.7528ZM277.381 30.6136L278.364 30.7979L278.366 30.7853L278.368 30.7727L277.381 30.6136ZM277.087 32.1818V33.1818H277.917L278.07 32.3661L277.087 32.1818ZM246.899 32.1818L245.916 31.9975L245.694 33.1818H246.899V32.1818ZM247.193 30.6136V29.6136H246.363L246.21 30.4293L247.193 30.6136ZM275.813 30.6136V31.6136H276.663L276.8 30.7746L275.813 30.6136ZM275.347 22.4297L274.394 22.7326L274.396 22.7402L275.347 22.4297ZM271.451 16.549L270.818 17.323L270.825 17.3292L271.451 16.549ZM257.484 16.647L256.943 15.8062L256.943 15.8062L257.484 16.647ZM247.781 31.8878L248.488 32.5949L248.708 32.3757L248.764 32.0709L247.781 31.8878ZM247.683 31.9858L246.976 31.2787L246.75 31.5047L246.697 31.8198L247.683 31.9858ZM247.855 41.0763L246.883 41.3121L246.883 41.3121L247.855 41.0763ZM251.726 47.7166L252.383 46.9628L252.383 46.9628L251.726 47.7166ZM265.374 48.9908L264.951 48.0848L264.948 48.0863L265.374 48.9908ZM269.736 46.1729L269.066 45.4307L269.061 45.4354L269.736 46.1729ZM272.382 43.4531L273.015 42.6792L272.224 42.032L271.595 42.8368L272.382 43.4531ZM273.46 44.3352L274.27 44.9217L274.823 44.1582L274.094 43.5613L273.46 44.3352ZM270.495 47.4961L271.164 48.2399L271.164 48.2399L270.495 47.4961ZM265.742 50.5099L266.154 51.4211L266.154 51.4211L265.742 50.5099ZM259.249 50.7841C256.129 50.7841 253.624 49.9768 251.66 48.4264L250.421 49.9962C252.802 51.8761 255.769 52.7841 259.249 52.7841V50.7841ZM251.66 48.4264C249.667 46.8532 248.256 44.7096 247.442 41.9455L245.523 42.5104C246.441 45.6271 248.068 48.139 250.421 49.9962L251.66 48.4264ZM247.442 41.9455C246.627 39.1793 246.5 36.0204 247.101 32.4456L245.129 32.114C244.489 35.9228 244.606 39.396 245.523 42.5104L247.442 41.9455ZM247.101 32.4456C247.702 28.8735 248.891 25.6836 250.662 22.8634L248.968 21.8C247.047 24.8604 245.77 28.3026 245.129 32.114L247.101 32.4456ZM250.662 22.8634C252.439 20.0325 254.579 17.8141 257.075 16.186L255.983 14.5108C253.219 16.313 250.883 18.7502 248.968 21.8L250.662 22.8634ZM257.075 16.186C259.552 14.5705 262.165 13.7756 264.933 13.7756V11.7756C261.755 11.7756 258.765 12.6958 255.983 14.5108L257.075 16.186ZM264.933 13.7756C266.973 13.7756 268.746 14.2157 270.278 15.0701L271.252 13.3234C269.386 12.2829 267.271 11.7756 264.933 11.7756V13.7756ZM270.288 15.0756C271.859 15.9283 273.152 17.1078 274.174 18.6267L275.833 17.5097C274.635 15.7289 273.102 14.3273 271.242 13.3179L270.288 15.0756ZM274.181 18.6361C275.222 20.1453 275.949 21.9098 276.351 23.9461L278.313 23.5596C277.865 21.2834 277.04 19.2581 275.827 17.5003L274.181 18.6361ZM276.351 23.9475C276.75 25.9567 276.769 28.1229 276.393 30.4546L278.368 30.7727C278.777 28.2365 278.763 25.8288 278.313 23.5582L276.351 23.9475ZM276.398 30.4293L276.104 31.9975L278.07 32.3661L278.364 30.7979L276.398 30.4293ZM277.087 31.1818H246.899V33.1818H277.087V31.1818ZM247.882 32.3661L248.176 30.7979L246.21 30.4293L245.916 31.9975L247.882 32.3661ZM247.193 31.6136H275.813V29.6136H247.193V31.6136ZM276.8 30.7746C277.311 27.6396 277.156 24.7467 276.298 22.1192L274.396 22.7402C275.139 25.0132 275.295 27.5763 274.826 30.4527L276.8 30.7746ZM276.3 22.1267C275.463 19.4944 274.061 17.3598 272.077 15.7688L270.825 17.3292C272.468 18.6459 273.663 20.4317 274.394 22.7326L276.3 22.1267ZM272.084 15.775C270.091 14.1442 267.688 13.3438 264.933 13.3438V15.3438C267.275 15.3438 269.217 16.0135 270.818 17.323L272.084 15.775ZM264.933 13.3438C262.142 13.3438 259.473 14.1775 256.943 15.8062L258.026 17.4878C260.266 16.0456 262.563 15.3438 264.933 15.3438V13.3438ZM256.943 15.8062C254.427 17.426 252.272 19.6221 250.473 22.3722L252.146 23.4673C253.81 20.9248 255.772 18.9391 258.026 17.4878L256.943 15.8062ZM250.473 22.3722C248.664 25.1369 247.441 28.2518 246.798 31.7047L248.764 32.0709C249.363 28.859 250.492 25.9952 252.146 23.4673L250.473 22.3722ZM247.074 31.1807L246.976 31.2787L248.39 32.6929L248.488 32.5949L247.074 31.1807ZM246.697 31.8198C246.123 35.2296 246.176 38.3986 246.883 41.3121L248.827 40.8406C248.194 38.2328 248.133 35.3414 248.669 32.1518L246.697 31.8198ZM246.883 41.3121C247.595 44.2486 248.983 46.6521 251.069 48.4704L252.383 46.9628C250.647 45.4487 249.454 43.4254 248.827 40.8406L246.883 41.3121ZM251.069 48.4704C253.205 50.3321 255.998 51.2159 259.347 51.2159V49.2159C256.357 49.2159 254.07 48.4335 252.383 46.9628L251.069 48.4704ZM259.347 51.2159C261.753 51.2159 263.913 50.786 265.801 49.8952L264.948 48.0863C263.373 48.8291 261.514 49.2159 259.347 49.2159V51.2159ZM265.798 49.8967C267.618 49.0463 269.162 48.0544 270.411 46.9105L269.061 45.4354C267.99 46.415 266.627 47.3017 264.951 48.0848L265.798 49.8967ZM270.406 46.9152C271.601 45.8365 272.531 44.8859 273.17 44.0694L271.595 42.8368C271.058 43.5232 270.223 44.3858 269.066 45.4307L270.406 46.9152ZM271.749 44.2271L272.827 45.1092L274.094 43.5613L273.015 42.6792L271.749 44.2271ZM272.65 43.7487C272.02 44.6186 271.088 45.6194 269.827 46.7523L271.164 48.2399C272.484 47.0531 273.528 45.9467 274.27 44.9217L272.65 43.7487ZM269.827 46.7523C268.626 47.832 267.132 48.7839 265.33 49.5988L266.154 51.4211C268.109 50.5371 269.784 49.4798 271.164 48.2399L269.827 46.7523ZM265.33 49.5988C263.603 50.3797 261.583 50.7841 259.249 50.7841V52.7841C261.815 52.7841 264.124 52.3391 266.154 51.4211L265.33 49.5988ZM322.497 13.3636L323.479 13.5479L323.702 12.3636H322.497V13.3636ZM322.203 14.9318V15.9318H323.032L323.185 15.1161L322.203 14.9318ZM307.305 14.9318L306.322 14.7475L306.1 15.9318H307.305V14.9318ZM307.599 13.3636V12.3636H306.769L306.616 13.1793L307.599 13.3636ZM314.558 4.34659V3.34659H313.709L313.571 4.18422L314.558 4.34659ZM316.126 4.34659L317.113 4.50896L317.304 3.34659H316.126V4.34659ZM309.755 43.0611L310.74 43.2361L310.742 43.2235L309.755 43.0611ZM310.074 46.859L309.16 47.2665L309.163 47.2718L310.074 46.859ZM312.254 49.2848L311.75 50.1486L311.761 50.1548L312.254 49.2848ZM316.91 49.9954L317.106 50.976L317.12 50.9731L317.135 50.9698L316.91 49.9954ZM318.282 49.6278L319.273 49.4957L319.118 48.333L317.995 48.67L318.282 49.6278ZM318.478 51.098L318.82 52.0378L319.576 51.763L319.469 50.9658L318.478 51.098ZM316.934 51.5391L316.738 50.5585L316.732 50.5598L316.934 51.5391ZM311.25 50.6325L310.737 51.491L310.742 51.4941L311.25 50.6325ZM308.603 47.6431L307.689 48.0482L307.693 48.0578L308.603 47.6431ZM308.187 43.0611L309.173 43.2255L309.174 43.2235L308.187 43.0611ZM321.514 13.1793L321.22 14.7475L323.185 15.1161L323.479 13.5479L321.514 13.1793ZM322.203 13.9318H307.305V15.9318H322.203V13.9318ZM308.288 15.1161L308.582 13.5479L306.616 13.1793L306.322 14.7475L308.288 15.1161ZM307.599 14.3636H322.497V12.3636H307.599V14.3636ZM314.558 5.34659H316.126V3.34659H314.558V5.34659ZM315.139 4.18422L308.768 42.8987L310.742 43.2235L317.113 4.50896L315.139 4.18422ZM308.771 42.886C308.484 44.4975 308.585 45.9764 309.16 47.2665L310.987 46.4516C310.615 45.618 310.503 44.565 310.74 43.2361L308.771 42.886ZM309.163 47.2718C309.721 48.5038 310.589 49.4711 311.751 50.1486L312.758 48.421C311.96 47.9551 311.374 47.3052 310.984 46.4463L309.163 47.2718ZM311.761 50.1548C312.911 50.8061 314.212 51.1179 315.636 51.1179V49.1179C314.511 49.1179 313.558 48.8743 312.747 48.4148L311.761 50.1548ZM315.636 51.1179C316.139 51.1179 316.629 51.0713 317.106 50.976L316.714 49.0148C316.374 49.0828 316.015 49.1179 315.636 49.1179V51.1179ZM317.135 50.9698C317.584 50.8662 318.062 50.7378 318.569 50.5857L317.995 48.67C317.522 48.8119 317.086 48.9286 316.685 49.021L317.135 50.9698ZM317.291 49.76L317.487 51.2302L319.469 50.9658L319.273 49.4957L317.291 49.76ZM318.136 50.1582C317.638 50.3395 317.172 50.4717 316.738 50.5585L317.131 52.5196C317.677 52.4104 318.24 52.2486 318.82 52.0378L318.136 50.1582ZM316.732 50.5598C316.337 50.6414 315.876 50.6861 315.342 50.6861V52.6861C315.984 52.6861 316.584 52.6327 317.137 52.5183L316.732 50.5598ZM315.342 50.6861C313.965 50.6861 312.78 50.373 311.757 49.7708L310.742 51.4941C312.105 52.2968 313.648 52.6861 315.342 52.6861V50.6861ZM311.763 49.7739C310.767 49.1795 310.02 48.341 309.513 47.2284L307.693 48.0578C308.363 49.5262 309.38 50.6806 310.737 51.491L311.763 49.7739ZM309.518 47.238C309.044 46.1685 308.903 44.8482 309.173 43.2255L307.201 42.8967C306.883 44.8024 307.02 46.5367 307.689 48.0482L309.518 47.238ZM309.174 43.2235L315.544 4.50896L313.571 4.18422L307.2 42.8987L309.174 43.2235ZM333.78 49.2113L333.143 49.982L333.146 49.9844L333.78 49.2113ZM329.321 42.179L328.362 42.4634L328.363 42.4683L329.321 42.179ZM328.929 32.0838L327.943 31.9166L327.942 31.9208L328.929 32.0838ZM332.604 22.2337L331.758 21.6998L331.758 21.7011L332.604 22.2337ZM339.269 15.3239L339.812 16.1631L339.814 16.1623L339.269 15.3239ZM355.171 15.3729L354.53 16.1406L354.533 16.1431L355.171 15.3729ZM359.631 22.4297L358.672 22.7141L358.673 22.719L359.631 22.4297ZM360.096 32.4759L361.082 32.6431L361.084 32.6318L360.096 32.4759ZM356.396 42.3505L357.241 42.8865L357.242 42.8843L356.396 42.3505ZM349.707 49.2603L350.248 50.1011L350.252 50.0987L349.707 49.2603ZM349.045 47.8636L349.592 48.7009L349.596 48.6983L349.045 47.8636ZM355.171 41.3949L356.022 41.9198L356.024 41.9176L355.171 41.3949ZM358.528 32.0838L357.541 31.921L357.541 31.9255L358.528 32.0838ZM358.209 23.0178L357.248 23.2932L357.248 23.2933L358.209 23.0178ZM354.314 16.6715L353.667 17.4341L353.667 17.4341L354.314 16.6715ZM340.028 16.745L340.579 17.5797L340.583 17.5771L340.028 16.745ZM333.878 23.2383L334.727 23.7669L334.728 23.7646L333.878 23.2383ZM330.497 32.4759L331.482 32.648L331.484 32.6357L330.497 32.4759ZM330.766 41.5419L329.805 41.8174L329.807 41.8228L330.766 41.5419ZM334.687 47.8881L334.04 48.6508L334.043 48.6536L334.687 47.8881ZM341.376 50.7841C338.61 50.7841 336.308 49.9918 334.414 48.4381L333.146 49.9844C335.434 51.8612 338.196 52.7841 341.376 52.7841V50.7841ZM334.417 48.4406C332.517 46.8693 331.128 44.704 330.278 41.8897L328.363 42.4683C329.31 45.6 330.894 48.1229 333.143 49.982L334.417 48.4406ZM330.279 41.8945C329.449 39.0959 329.314 35.888 329.915 32.2468L327.942 31.9208C327.302 35.7939 327.428 39.316 328.362 42.4634L330.279 41.8945ZM329.914 32.2511C330.515 28.7112 331.696 25.5538 333.45 22.7662L331.758 21.7011C329.853 24.7289 328.584 28.1382 327.943 31.9166L329.914 32.2511ZM333.45 22.7675C335.227 19.9515 337.35 17.7581 339.812 16.1631L338.725 14.4846C335.993 16.2547 333.672 18.6678 331.758 21.6998L333.45 22.7675ZM339.814 16.1623C342.277 14.5609 344.851 13.7756 347.551 13.7756V11.7756C344.436 11.7756 341.487 12.6891 338.724 14.4854L339.814 16.1623ZM347.551 13.7756C350.35 13.7756 352.656 14.5762 354.53 16.1406L355.812 14.6051C353.537 12.7065 350.763 11.7756 347.551 11.7756V13.7756ZM354.533 16.1431C356.45 17.7307 357.838 19.9034 358.672 22.7141L360.589 22.1452C359.659 19.01 358.074 16.4781 355.809 14.6027L354.533 16.1431ZM358.673 22.719C359.52 25.5202 359.678 28.7129 359.108 32.3199L361.084 32.6318C361.691 28.7899 361.538 25.2852 360.588 22.1404L358.673 22.719ZM359.11 32.3086C358.51 35.8471 357.321 39.0124 355.551 41.8167L357.242 42.8843C359.163 39.8406 360.441 36.4228 361.082 32.6431L359.11 32.3086ZM355.552 41.8145C353.775 44.6139 351.643 46.809 349.162 48.4219L350.252 50.0987C352.998 48.3138 355.326 45.9024 357.241 42.8865L355.552 41.8145ZM349.166 48.4195C346.704 50.0043 344.113 50.7841 341.376 50.7841V52.7841C344.52 52.7841 347.483 51.8813 350.248 50.1011L349.166 48.4195ZM341.376 51.2159C344.293 51.2159 347.038 50.3688 349.592 48.7009L348.499 47.0264C346.25 48.4948 343.882 49.2159 341.376 49.2159V51.2159ZM349.596 48.6983C352.132 47.0249 354.272 44.7575 356.022 41.9198L354.32 40.8699C352.705 43.4883 350.761 45.5333 348.495 47.029L349.596 48.6983ZM356.024 41.9176C357.78 39.0522 358.941 35.8227 359.515 32.2422L357.541 31.9255C357.004 35.2711 355.927 38.249 354.319 40.8722L356.024 41.9176ZM359.515 32.2467C360.089 28.7675 359.987 25.5919 359.171 22.7423L357.248 23.2933C357.967 25.8015 358.078 28.67 357.541 31.921L359.515 32.2467ZM359.171 22.7423C358.358 19.9049 356.964 17.6082 354.96 15.9089L353.667 17.4341C355.322 18.8386 356.526 20.7727 357.248 23.2932L359.171 22.7423ZM354.96 15.9089C352.933 14.1897 350.477 13.3438 347.649 13.3438V15.3438C350.048 15.3438 352.034 16.0497 353.667 17.4341L354.96 15.9089ZM347.649 13.3438C344.757 13.3438 342.026 14.2115 339.474 15.913L340.583 17.5771C342.833 16.0769 345.183 15.3438 347.649 15.3438V13.3438ZM339.478 15.9104C336.941 17.584 334.794 19.8594 333.028 22.7119L334.728 23.7646C336.36 21.1285 338.313 19.0751 340.579 17.5797L339.478 15.9104ZM333.029 22.7097C331.255 25.5591 330.084 28.7655 329.51 32.316L331.484 32.6357C332.02 29.3254 333.104 26.3735 334.727 23.7669L333.029 22.7097ZM329.512 32.3037C328.903 35.7848 328.987 38.9638 329.805 41.8174L331.728 41.2664C331.01 38.762 330.914 35.897 331.482 32.648L329.512 32.3037ZM329.807 41.8228C330.636 44.6581 332.038 46.9528 334.04 48.6507L335.334 47.1255C333.676 45.7198 332.464 43.7837 331.726 41.261L329.807 41.8228ZM334.043 48.6536C336.085 50.37 338.548 51.2159 341.376 51.2159V49.2159C338.977 49.2159 336.98 48.5099 335.33 47.1227L334.043 48.6536ZM391.233 50.5099L390.761 51.3913L390.764 51.3933L391.233 50.5099ZM387.656 46.7855L386.754 47.2183L386.758 47.2255L387.656 46.7855ZM387.019 40.8068L386.034 40.6302L386.032 40.6429L386.03 40.6558L387.019 40.8068ZM388.244 37.2294L387.363 36.7568L387.36 36.7615L388.244 37.2294ZM390.915 34.1665L390.306 33.3731L390.301 33.3772L390.915 34.1665ZM395.644 31.8143L395.327 30.8656L395.327 30.8656L395.644 31.8143ZM402.995 30.3196L402.884 29.3257L402.879 29.3263L402.995 30.3196ZM411.963 28.4574L411.515 27.563L411.515 27.563L411.963 28.4574ZM413.776 26.2031L412.791 26.0318L412.789 26.0387L413.776 26.2031ZM414.168 23.9489L415.153 24.1202L415.154 24.116L414.168 23.9489ZM412.551 16.9901L411.803 17.6544L411.806 17.6579L412.551 16.9901ZM397.971 16.1325L397.506 15.2471L397.504 15.2485L397.971 16.1325ZM392.899 21.0085L392.505 21.9277L393.34 22.2854L393.776 21.4888L392.899 21.0085ZM391.527 20.4205L390.648 19.9442L390.126 20.9079L391.133 21.3396L391.527 20.4205ZM394.909 16.353L394.282 15.5739L394.277 15.5774L394.909 16.353ZM399.711 13.7067L399.385 12.7615L399.382 12.7624L399.711 13.7067ZM410.345 13.6332L409.972 14.561L409.981 14.5646L410.345 13.6332ZM413.8 15.9854L413.046 16.6422L413.052 16.6487L413.058 16.6551L413.8 15.9854ZM415.638 19.5138L414.666 19.7481L414.669 19.7591L415.638 19.5138ZM415.736 23.9489L414.751 23.7779L414.75 23.7845L415.736 23.9489ZM411.227 51V52H412.075L412.214 51.1644L411.227 51ZM409.659 51L408.673 50.8356L408.479 52H409.659V51ZM410.933 43.3551L411.92 43.5195L412.114 42.3551H410.933V43.3551ZM410.737 43.3551V42.3551H410.179L409.886 42.831L410.737 43.3551ZM406.964 47.8146L407.618 48.5709L407.619 48.5703L406.964 47.8146ZM402.161 50.755L402.53 51.6847L402.534 51.6828L402.161 50.755ZM403.583 48.3047L404.086 49.1689L404.088 49.1678L403.583 48.3047ZM409.218 42.9386L408.392 42.3758L408.391 42.3771L409.218 42.9386ZM412.306 34.9261L411.32 34.7562L411.318 34.7669L412.306 34.9261ZM413.286 29.2415L414.271 29.4114L414.67 27.0956L412.725 28.4136L413.286 29.2415ZM411.473 30.1481L411.124 29.2108L411.117 29.2136L411.473 30.1481ZM409.169 30.8587L409.398 31.8322L409.412 31.8288L409.169 30.8587ZM406.449 31.3732L406.301 30.3843L406.299 30.3847L406.449 31.3732ZM403.387 31.7898L403.5 32.7833L403.507 32.7825L403.387 31.7898ZM395.154 33.5785L394.791 32.6465L394.791 32.6465L395.154 33.5785ZM388.587 40.8068L387.603 40.6262L387.601 40.6398L387.599 40.6535L388.587 40.8068ZM390.229 47.6431L390.974 46.9761L390.974 46.9761L390.229 47.6431ZM396.722 50.7841C394.805 50.7841 393.14 50.3896 391.702 49.6266L390.764 51.3933C392.528 52.3292 394.523 52.7841 396.722 52.7841V50.7841ZM391.706 49.6286C390.308 48.8793 389.263 47.7934 388.554 46.3455L386.758 47.2255C387.649 49.0447 388.989 50.4417 390.761 51.3913L391.706 49.6286ZM388.557 46.3528C387.884 44.9497 387.669 43.1728 388.007 40.9578L386.03 40.6558C385.65 43.1454 385.86 45.3543 386.754 47.2182L388.557 46.3528ZM388.003 40.9835C388.214 39.8079 388.589 38.7141 389.128 37.6973L387.36 36.7615C386.722 37.9663 386.281 39.2574 386.034 40.6302L388.003 40.9835ZM389.125 37.702C389.654 36.7166 390.445 35.7989 391.529 34.9559L390.301 33.3772C389.032 34.3637 388.043 35.4879 387.363 36.7568L389.125 37.702ZM391.523 34.96C392.601 34.1329 394.068 33.3934 395.96 32.763L395.327 30.8656C393.298 31.5419 391.613 32.3706 390.306 33.3731L391.523 34.96ZM395.96 32.763C397.834 32.1383 400.212 31.6511 403.11 31.3129L402.879 29.3263C399.897 29.6742 397.374 30.1834 395.327 30.8656L395.96 32.763ZM403.105 31.3135C404.885 31.1157 406.577 30.8847 408.18 30.6202L407.855 28.6469C406.289 28.9051 404.633 29.1314 402.884 29.3257L403.105 31.3135ZM408.18 30.6202C409.83 30.3481 411.248 29.9326 412.41 29.3518L411.515 27.563C410.586 28.0276 409.375 28.3962 407.855 28.6469L408.18 30.6202ZM412.41 29.3518C413.684 28.7147 414.537 27.7216 414.762 26.3675L412.789 26.0387C412.688 26.6449 412.332 27.1546 411.515 27.563L412.41 29.3518ZM414.761 26.3745L415.153 24.1202L413.183 23.7775L412.791 26.0318L414.761 26.3745ZM415.154 24.116C415.681 21.0062 415.117 18.3525 413.295 16.3222L411.806 17.6579C413.121 19.1233 413.635 21.1089 413.182 23.7818L415.154 24.116ZM413.298 16.3257C411.477 14.2775 408.757 13.3438 405.347 13.3438V15.3438C408.406 15.3438 410.487 16.1742 411.803 17.6544L413.298 16.3257ZM405.347 13.3438C402.544 13.3438 399.925 13.9769 397.506 15.2471L398.436 17.0178C400.559 15.9031 402.857 15.3438 405.347 15.3438V13.3438ZM397.504 15.2485C395.092 16.5242 393.252 18.2833 392.022 20.5282L393.776 21.4888C394.801 19.6172 396.342 18.1256 398.439 17.0164L397.504 15.2485ZM393.293 20.0894L391.921 19.5013L391.133 21.3396L392.505 21.9277L393.293 20.0894ZM392.407 20.8967C393.193 19.4454 394.235 18.1908 395.54 17.1285L394.277 15.5774C392.773 16.8021 391.561 18.2591 390.648 19.9442L392.407 20.8967ZM395.535 17.1321C396.865 16.0627 398.364 15.2353 400.04 14.6509L399.382 12.7624C397.497 13.4195 395.795 14.3563 394.282 15.5739L395.535 17.1321ZM400.038 14.6519C401.726 14.0685 403.494 13.7756 405.347 13.7756V11.7756C403.279 11.7756 401.29 12.1033 399.385 12.7615L400.038 14.6519ZM405.347 13.7756C407.161 13.7756 408.695 14.0471 409.972 14.5609L410.719 12.7054C409.153 12.0757 407.355 11.7756 405.347 11.7756V13.7756ZM409.981 14.5646C411.273 15.0693 412.284 15.7668 413.046 16.6422L414.554 15.3287C413.553 14.1785 412.26 13.3078 410.709 12.7018L409.981 14.5646ZM413.058 16.6551C413.84 17.5228 414.377 18.5476 414.666 19.7481L416.61 19.2796C416.246 17.7684 415.557 16.441 414.543 15.3158L413.058 16.6551ZM414.669 19.7591C414.972 20.9586 415.008 22.2932 414.751 23.7779L416.721 24.1198C417.019 22.4028 416.99 20.7807 416.607 19.2686L414.669 19.7591ZM414.75 23.7845L410.241 50.8356L412.214 51.1644L416.722 24.1133L414.75 23.7845ZM411.227 50H409.659V52H411.227V50ZM410.646 51.1644L411.92 43.5195L409.947 43.1907L408.673 50.8356L410.646 51.1644ZM410.933 42.3551H410.737V44.3551H410.933V42.3551ZM409.886 42.831C408.892 44.4453 407.7 45.8532 406.309 47.0589L407.619 48.5703C409.168 47.2278 410.492 45.6626 411.589 43.8792L409.886 42.831ZM406.31 47.0584C404.938 48.2453 403.432 49.1668 401.789 49.8271L402.534 51.6828C404.387 50.9383 406.083 49.8996 407.618 48.5709L406.31 47.0584ZM401.793 49.8253C400.181 50.4641 398.493 50.7841 396.722 50.7841V52.7841C398.741 52.7841 400.679 52.418 402.53 51.6847L401.793 49.8253ZM396.722 51.2159C399.295 51.2159 401.754 50.5263 404.086 49.1689L403.08 47.4404C401.034 48.6314 398.919 49.2159 396.722 49.2159V51.2159ZM404.088 49.1678C406.432 47.796 408.417 45.9 410.046 43.5001L408.391 42.3771C406.916 44.5509 405.144 46.2324 403.078 47.4416L404.088 49.1678ZM410.045 43.5014C411.704 41.0648 412.782 38.2531 413.293 35.0854L411.318 34.7669C410.849 37.6759 409.869 40.2058 408.392 42.3758L410.045 43.5014ZM413.291 35.096L414.271 29.4114L412.3 29.0716L411.32 34.7562L413.291 35.096ZM412.725 28.4136C412.297 28.7031 411.767 28.9713 411.124 29.2109L411.821 31.0853C412.582 30.8021 413.261 30.4659 413.847 30.0694L412.725 28.4136ZM411.117 29.2136C410.474 29.4585 409.745 29.684 408.927 29.8885L409.412 31.8288C410.293 31.6086 411.099 31.3604 411.829 31.0826L411.117 29.2136ZM408.94 29.8852C408.138 30.0741 407.258 30.2407 406.301 30.3843L406.598 32.3622C407.601 32.2117 408.535 32.0353 409.398 31.8321L408.94 29.8852ZM406.299 30.3847C405.346 30.53 404.335 30.6675 403.266 30.797L403.507 32.7825C404.594 32.6507 405.625 32.5105 406.6 32.3618L406.299 30.3847ZM403.273 30.7962C399.799 31.1932 396.961 31.8026 394.791 32.6465L395.516 34.5105C397.463 33.7535 400.113 33.1704 403.5 32.7833L403.273 30.7962ZM394.791 32.6465C392.635 33.4848 390.936 34.5709 389.781 35.9501L391.314 37.2345C392.184 36.1962 393.555 35.273 395.516 34.5105L394.791 32.6465ZM389.781 35.9501C388.653 37.2958 387.928 38.861 387.603 40.6262L389.57 40.9875C389.834 39.551 390.416 38.3065 391.314 37.2345L389.781 35.9501ZM387.599 40.6535C387.124 43.7112 387.699 46.3173 389.484 48.3101L390.974 46.9761C389.687 45.5385 389.167 43.5871 389.575 40.9602L387.599 40.6535ZM389.484 48.3101C391.249 50.2818 393.71 51.2159 396.722 51.2159V49.2159C394.147 49.2159 392.28 48.4348 390.974 46.9761L389.484 48.3101ZM429.445 65.0401L429.764 64.0923L429.756 64.0896L429.445 65.0401ZM425.206 62.5163L425.913 61.8092L425.908 61.8041L425.206 62.5163ZM422.977 58.3509L422.66 57.4022L421.81 57.6856L421.999 58.5617L422.977 58.3509ZM424.447 57.8608L425.423 57.6439L425.182 56.5615L424.131 56.9121L424.447 57.8608ZM426.383 61.4872L427.09 60.7801L427.084 60.7741L426.383 61.4872ZM430.058 63.619L430.362 62.6661L430.352 62.6632L430.058 63.619ZM444.907 61.2177L445.531 61.999L445.531 61.999L444.907 61.2177ZM449.832 51.7841L448.845 51.6228L448.845 51.6234L449.832 51.7841ZM451.498 41.5909L452.485 41.7522L452.675 40.5909H451.498V41.5909ZM451.302 41.5909V40.5909H450.666L450.396 41.1665L451.302 41.5909ZM447.528 46.8345L448.203 47.5727L448.203 47.5723L447.528 46.8345ZM442.505 49.9709L442.859 50.9062L442.864 50.9044L442.505 49.9709ZM425.77 42.032L426.739 41.7841L426.739 41.7841L425.77 42.032ZM425.623 32.2798L426.609 32.4456L426.609 32.4442L425.623 32.2798ZM429.053 22.2827L429.923 22.7757L429.923 22.7757L429.053 22.2827ZM435.228 15.3239L434.658 14.5021L434.658 14.5021L435.228 15.3239ZM448.68 14.0252L448.199 14.9021L448.21 14.9081L448.68 14.0252ZM452.429 17.5536L451.582 18.0853L451.589 18.0957L452.429 17.5536ZM454.438 22.9688L453.453 23.1381L453.595 23.9688H454.438V22.9688ZM454.634 22.9688V23.9688H455.484L455.621 23.1299L454.634 22.9688ZM456.202 13.3636V12.3636H455.352L455.216 13.2025L456.202 13.3636ZM457.771 13.3636L458.757 13.5272L458.95 12.3636H457.771V13.3636ZM451.4 51.7841L452.386 51.9502L452.386 51.9477L451.4 51.7841ZM448.435 59.576L447.614 59.0051L447.614 59.0051L448.435 59.576ZM442.873 64.305L442.447 63.4004L442.447 63.4004L442.873 64.305ZM444.221 47.3491L443.691 46.5011L443.688 46.5028L444.221 47.3491ZM449.856 41.4194L449.001 40.9017L448.998 40.9057L449.856 41.4194ZM453.066 32.2798L454.052 32.4442L454.053 32.4412L453.066 32.2798ZM453.042 23.1403L452.062 23.3409L452.063 23.3478L453.042 23.1403ZM449.734 16.7205L449.037 17.4384L449.045 17.4453L449.734 16.7205ZM435.939 16.7205L436.515 17.5375L436.516 17.5367L435.939 16.7205ZM430.303 23.1403L429.433 22.6475L429.432 22.6493L430.303 23.1403ZM427.191 32.2798L426.204 32.1185L426.204 32.1185L427.191 32.2798ZM427.216 41.2479L426.239 41.4642L426.241 41.4714L427.216 41.2479ZM430.548 47.2756L429.883 48.0226L429.891 48.0295L430.548 47.2756ZM435.13 64.8977C433.13 64.8977 431.345 64.6243 429.764 64.0924L429.126 65.9879C430.944 66.5994 432.948 66.8977 435.13 66.8977V64.8977ZM429.756 64.0896C428.188 63.5771 426.917 62.8123 425.913 61.8092L424.499 63.2234C425.75 64.4746 427.305 65.3924 429.135 65.9906L429.756 64.0896ZM425.908 61.8041C424.931 60.8406 424.276 59.6311 423.954 58.14L421.999 58.5617C422.396 60.4029 423.228 61.9704 424.504 63.2286L425.908 61.8041ZM423.293 59.2995L424.763 58.8095L424.131 56.9121L422.66 57.4022L423.293 59.2995ZM423.471 58.0777C423.834 59.7141 424.565 61.1024 425.681 62.2003L427.084 60.7741C426.273 59.9772 425.713 58.9478 425.423 57.6439L423.471 58.0777ZM425.675 62.1943C426.77 63.2888 428.144 64.0762 429.764 64.5747L430.352 62.6632C428.999 62.2469 427.923 61.6132 427.09 60.7801L425.675 62.1943ZM429.754 64.5718C431.357 65.0826 433.153 65.3295 435.13 65.3295V63.3295C433.317 63.3295 431.731 63.1027 430.362 62.6662L429.754 64.5718ZM435.13 65.3295C439.235 65.3295 442.726 64.2395 445.531 61.999L444.283 60.4363C441.893 62.345 438.866 63.3295 435.13 63.3295V65.3295ZM445.531 61.999C448.372 59.7296 450.104 56.3322 450.819 51.9448L448.845 51.6234C448.187 55.665 446.636 58.5566 444.283 60.4363L445.531 61.999ZM450.819 51.9454L452.485 41.7522L450.511 41.4296L448.845 51.6228L450.819 51.9454ZM451.498 40.5909H451.302V42.5909H451.498V40.5909ZM450.396 41.1665C449.466 43.1519 448.282 44.7895 446.853 46.0967L448.203 47.5723C449.846 46.0699 451.178 44.2118 452.207 42.0153L450.396 41.1665ZM446.854 46.0964C445.422 47.4048 443.854 48.3819 442.147 49.0373L442.864 50.9044C444.816 50.155 446.596 49.0412 448.203 47.5727L446.854 46.0964ZM442.151 49.0356C440.447 49.6807 438.729 50 436.992 50V52C438.98 52 440.938 51.6333 442.859 50.9062L442.151 49.0356ZM436.992 50C434.24 50 432.053 49.2628 430.353 47.8534L429.077 49.3931C431.199 51.1527 433.864 52 436.992 52V50ZM430.353 47.8534C428.631 46.4253 427.414 44.4248 426.739 41.7841L424.801 42.2798C425.563 45.2585 426.977 47.6521 429.077 49.3931L430.353 47.8534ZM426.739 41.7841C426.063 39.1428 426.005 36.0382 426.609 32.4456L424.637 32.114C423.999 35.905 424.039 39.3018 424.801 42.2798L426.739 41.7841ZM426.609 32.4442C427.213 28.8218 428.321 25.6029 429.923 22.7757L428.183 21.7897C426.453 24.8431 425.274 28.2889 424.637 32.1154L426.609 32.4442ZM429.923 22.7757C431.525 19.9486 433.487 17.7481 435.798 16.1457L434.658 14.5021C432.069 16.2974 429.914 18.7361 428.183 21.7897L429.923 22.7757ZM435.798 16.1457C438.081 14.5625 440.594 13.7756 443.363 13.7756V11.7756C440.186 11.7756 437.275 12.6875 434.658 14.5021L435.798 16.1457ZM443.363 13.7756C445.249 13.7756 446.851 14.1624 448.199 14.902L449.161 13.1484C447.471 12.2218 445.528 11.7756 443.363 11.7756V13.7756ZM448.21 14.9081C449.585 15.6392 450.707 16.6912 451.582 18.0852L453.276 17.022C452.223 15.345 450.846 14.0447 449.15 13.1423L448.21 14.9081ZM451.589 18.0957C452.484 19.4838 453.112 21.1573 453.453 23.1381L455.424 22.7994C455.046 20.5984 454.334 18.6618 453.269 17.0115L451.589 18.0957ZM454.438 23.9688H454.634V21.9688H454.438V23.9688ZM455.621 23.1299L457.189 13.5248L455.216 13.2025L453.647 22.8076L455.621 23.1299ZM456.202 14.3636H457.771V12.3636H456.202V14.3636ZM456.784 13.2001L450.413 51.6205L452.386 51.9477L458.757 13.5272L456.784 13.2001ZM450.414 51.618C449.91 54.6098 448.966 57.0604 447.614 59.0051L449.256 60.1469C450.812 57.9098 451.844 55.1658 452.386 51.9502L450.414 51.618ZM447.614 59.0051C446.258 60.9554 444.539 62.415 442.447 63.4004L443.299 65.2097C445.716 64.0715 447.704 62.3784 449.256 60.1469L447.614 59.0051ZM442.447 63.4004C440.346 64.3897 437.915 64.8977 435.13 64.8977V66.8977C438.161 66.8977 440.891 66.3439 443.299 65.2097L442.447 63.4004ZM436.992 50.4318C439.794 50.4318 442.388 49.6846 444.753 48.1953L443.688 46.5028C441.643 47.7906 439.418 48.4318 436.992 48.4318V50.4318ZM444.751 48.1971C447.124 46.7135 449.109 44.6143 450.714 41.9331L448.998 40.9057C447.533 43.3538 445.76 45.2076 443.691 46.5011L444.751 48.1971ZM450.712 41.9371C452.341 39.2453 453.448 36.074 454.052 32.4442L452.08 32.1154C451.509 35.5425 450.476 38.4642 449.001 40.9017L450.712 41.9371ZM454.053 32.4412C454.624 28.9504 454.623 25.7755 454.02 22.9328L452.063 23.3478C452.604 25.8957 452.619 28.8138 452.079 32.1185L454.053 32.4412ZM454.021 22.9396C453.434 20.0716 452.25 17.7328 450.423 15.9957L449.045 17.4453C450.517 18.8446 451.539 20.7857 452.062 23.3409L454.021 22.9396ZM450.43 16.0027C448.577 14.2055 446.155 13.3438 443.265 13.3438V15.3438C445.733 15.3438 447.623 16.0665 449.037 17.4383L450.43 16.0027ZM443.265 13.3438C440.404 13.3438 437.761 14.2049 435.361 15.9044L436.516 17.5367C438.592 16.0672 440.833 15.3438 443.265 15.3438V13.3438ZM435.362 15.9036C433.003 17.5684 431.03 19.8262 429.433 22.6475L431.173 23.633C432.647 21.031 434.431 19.009 436.515 17.5375L435.362 15.9036ZM429.432 22.6493C427.849 25.4577 426.776 28.6179 426.204 32.1185L428.178 32.4412C428.717 29.1463 429.719 26.2135 431.174 23.6313L429.432 22.6493ZM426.204 32.1185C425.634 35.6056 425.633 38.7279 426.239 41.4641L428.192 41.0316C427.655 38.606 427.637 35.7495 428.178 32.4412L426.204 32.1185ZM426.241 41.4714C426.866 44.1964 428.065 46.4045 429.883 48.0226L431.213 46.5286C429.764 45.239 428.742 43.4286 428.19 41.0244L426.241 41.4714ZM429.891 48.0295C431.759 49.6573 434.157 50.4318 436.992 50.4318V48.4318C434.535 48.4318 432.636 47.7689 431.205 46.5216L429.891 48.0295ZM470.843 49.2113L470.223 49.9962L470.223 49.9962L470.843 49.2113ZM466.285 42.228L467.245 41.9455L467.245 41.9455L466.285 42.228ZM465.918 32.2798L464.932 32.114L465.918 32.2798ZM469.618 22.3317L470.465 22.8634L470.465 22.8634L469.618 22.3317ZM476.332 15.3484L475.785 14.5108L475.785 14.5108L476.332 15.3484ZM490.568 14.1967L490.081 15.0702L490.091 15.0756L490.568 14.1967ZM494.807 18.0682L493.977 18.6267L493.984 18.6361L494.807 18.0682ZM497.134 23.7528L496.153 23.9461L496.154 23.9475L497.134 23.7528ZM497.183 30.6136L498.166 30.7979L498.169 30.7853L498.171 30.7727L497.183 30.6136ZM496.889 32.1818V33.1818H497.719L497.872 32.3661L496.889 32.1818ZM466.702 32.1818L465.719 31.9975L465.497 33.1818H466.702V32.1818ZM466.996 30.6136V29.6136H466.166L466.013 30.4293L466.996 30.6136ZM495.615 30.6136V31.6136H496.465L496.602 30.7746L495.615 30.6136ZM495.15 22.4297L494.197 22.7326L494.199 22.7402L495.15 22.4297ZM491.254 16.549L490.621 17.323L490.628 17.3292L491.254 16.549ZM477.287 16.647L476.746 15.8062L476.746 15.8062L477.287 16.647ZM467.584 31.8878L468.291 32.5949L468.51 32.3757L468.567 32.0709L467.584 31.8878ZM467.486 31.9858L466.779 31.2787L466.553 31.5047L466.5 31.8198L467.486 31.9858ZM467.658 41.0763L466.686 41.3121L466.686 41.3121L467.658 41.0763ZM471.529 47.7166L472.186 46.9628L472.186 46.9628L471.529 47.7166ZM485.177 48.9908L484.754 48.0848L484.75 48.0863L485.177 48.9908ZM489.539 46.1729L488.868 45.4307L488.863 45.4354L489.539 46.1729ZM492.185 43.4531L492.818 42.6792L492.027 42.032L491.397 42.8368L492.185 43.4531ZM493.263 44.3352L494.073 44.9217L494.626 44.1582L493.896 43.5613L493.263 44.3352ZM490.298 47.4961L490.967 48.2399L490.967 48.2399L490.298 47.4961ZM485.545 50.5099L485.957 51.4211L485.957 51.4211L485.545 50.5099ZM479.051 50.7841C475.932 50.7841 473.426 49.9768 471.463 48.4264L470.223 49.9962C472.605 51.8761 475.572 52.7841 479.051 52.7841V50.7841ZM471.463 48.4264C469.47 46.8532 468.059 44.7096 467.245 41.9455L465.326 42.5104C466.244 45.6271 467.871 48.139 470.223 49.9962L471.463 48.4264ZM467.245 41.9455C466.43 39.1793 466.303 36.0204 466.904 32.4456L464.932 32.114C464.291 35.9228 464.409 39.396 465.326 42.5104L467.245 41.9455ZM466.904 32.4456C467.505 28.8735 468.694 25.6836 470.465 22.8634L468.771 21.8C466.85 24.8604 465.573 28.3026 464.932 32.114L466.904 32.4456ZM470.465 22.8634C472.242 20.0325 474.381 17.8141 476.878 16.186L475.785 14.5108C473.022 16.313 470.685 18.7502 468.771 21.8L470.465 22.8634ZM476.878 16.186C479.355 14.5705 481.968 13.7756 484.736 13.7756V11.7756C481.558 11.7756 478.568 12.6958 475.785 14.5108L476.878 16.186ZM484.736 13.7756C486.776 13.7756 488.549 14.2157 490.081 15.0701L491.055 13.3234C489.189 12.2829 487.074 11.7756 484.736 11.7756V13.7756ZM490.091 15.0756C491.661 15.9283 492.955 17.1078 493.977 18.6267L495.636 17.5097C494.437 15.7289 492.904 14.3273 491.045 13.3179L490.091 15.0756ZM493.984 18.6361C495.025 20.1453 495.752 21.9098 496.153 23.9461L498.116 23.5596C497.667 21.2834 496.843 19.2581 495.63 17.5003L493.984 18.6361ZM496.154 23.9475C496.552 25.9567 496.572 28.1229 496.196 30.4546L498.171 30.7727C498.579 28.2365 498.566 25.8288 498.115 23.5582L496.154 23.9475ZM496.201 30.4293L495.907 31.9975L497.872 32.3661L498.166 30.7979L496.201 30.4293ZM496.889 31.1818H466.702V33.1818H496.889V31.1818ZM467.685 32.3661L467.979 30.7979L466.013 30.4293L465.719 31.9975L467.685 32.3661ZM466.996 31.6136H495.615V29.6136H466.996V31.6136ZM496.602 30.7746C497.113 27.6396 496.959 24.7467 496.1 22.1192L494.199 22.7402C494.942 25.0132 495.097 27.5763 494.628 30.4527L496.602 30.7746ZM496.103 22.1267C495.266 19.4944 493.864 17.3598 491.879 15.7688L490.628 17.3292C492.27 18.6459 493.465 20.4317 494.197 22.7326L496.103 22.1267ZM491.887 15.775C489.894 14.1442 487.491 13.3438 484.736 13.3438V15.3438C487.078 15.3438 489.02 16.0135 490.621 17.323L491.887 15.775ZM484.736 13.3438C481.944 13.3438 479.276 14.1775 476.746 15.8062L477.828 17.4878C480.069 16.0456 482.366 15.3438 484.736 15.3438V13.3438ZM476.746 15.8062C474.23 17.426 472.075 19.6221 470.276 22.3722L471.949 23.4673C473.613 20.9248 475.574 18.9391 477.828 17.4878L476.746 15.8062ZM470.276 22.3722C468.467 25.1369 467.244 28.2518 466.601 31.7047L468.567 32.0709C469.165 28.859 470.295 25.9952 471.949 23.4673L470.276 22.3722ZM466.877 31.1807L466.779 31.2787L468.193 32.6929L468.291 32.5949L466.877 31.1807ZM466.5 31.8198C465.926 35.2296 465.979 38.3986 466.686 41.3121L468.629 40.8406C467.997 38.2328 467.935 35.3414 468.472 32.1518L466.5 31.8198ZM466.686 41.3121C467.398 44.2486 468.786 46.6521 470.872 48.4704L472.186 46.9628C470.449 45.4487 469.256 43.4254 468.629 40.8406L466.686 41.3121ZM470.872 48.4704C473.007 50.3321 475.801 51.2159 479.149 51.2159V49.2159C476.159 49.2159 473.873 48.4335 472.186 46.9628L470.872 48.4704ZM479.149 51.2159C481.555 51.2159 483.715 50.786 485.604 49.8952L484.75 48.0863C483.176 48.8291 481.317 49.2159 479.149 49.2159V51.2159ZM485.6 49.8967C487.42 49.0463 488.964 48.0544 490.214 46.9105L488.863 45.4354C487.793 46.415 486.43 47.3017 484.754 48.0848L485.6 49.8967ZM490.209 46.9152C491.404 45.8365 492.333 44.8859 492.972 44.0694L491.397 42.8368C490.86 43.5232 490.026 44.3858 488.868 45.4307L490.209 46.9152ZM491.552 44.2271L492.63 45.1092L493.896 43.5613L492.818 42.6792L491.552 44.2271ZM492.453 43.7487C491.823 44.6186 490.89 45.6194 489.63 46.7523L490.967 48.2399C492.287 47.0531 493.331 45.9467 494.073 44.9217L492.453 43.7487ZM489.63 46.7523C488.428 47.832 486.935 48.7839 485.133 49.5988L485.957 51.4211C487.912 50.5371 489.587 49.4798 490.967 48.2399L489.63 46.7523ZM485.133 49.5988C483.406 50.3797 481.386 50.7841 479.051 50.7841V52.7841C481.617 52.7841 483.927 52.3391 485.957 51.4211L485.133 49.5988ZM510.642 25.7131L511.628 25.8775L511.628 25.8751L510.642 25.7131ZM506.427 51V52H507.274L507.414 51.1644L506.427 51ZM504.859 51L503.873 50.8356L503.679 52H504.859V51ZM511.132 13.3636V12.3636H510.285L510.145 13.1992L511.132 13.3636ZM512.7 13.3636L513.687 13.5254L513.877 12.3636H512.7V13.3636ZM511.72 19.3423L510.733 19.1806L510.542 20.3423H511.72V19.3423ZM511.916 19.3423V20.3423H512.482L512.773 19.8568L511.916 19.3423ZM517.012 14.6378L516.547 13.7526L516.544 13.754L517.012 14.6378ZM530.66 14.5153L531.191 13.6677L531.191 13.6677L530.66 14.5153ZM534.434 19.0483L533.505 19.4183L533.505 19.4183L534.434 19.0483ZM534.948 25.7131L533.962 25.5466L533.962 25.5487L534.948 25.7131ZM530.734 51V52H531.581L531.72 51.1644L530.734 51ZM529.166 51L528.179 50.8356L527.985 52H529.166V51ZM533.38 25.7131L534.367 25.8775L534.367 25.8728L533.38 25.7131ZM531.665 17.5781L530.883 18.2013L530.886 18.205L531.665 17.5781ZM517.943 15.8874L517.496 14.993L517.493 14.9945L517.943 15.8874ZM513.116 19.8814L512.324 19.2717L512.32 19.2765L513.116 19.8814ZM509.655 25.5487L505.441 50.8356L507.414 51.1644L511.628 25.8775L509.655 25.5487ZM506.427 50H504.859V52H506.427V50ZM505.845 51.1644L512.118 13.528L510.145 13.1992L503.873 50.8356L505.845 51.1644ZM511.132 14.3636H512.7V12.3636H511.132V14.3636ZM511.713 13.2019L510.733 19.1806L512.707 19.5041L513.687 13.5254L511.713 13.2019ZM511.72 20.3423H511.916V18.3423H511.72V20.3423ZM512.773 19.8568C513.846 18.0682 515.403 16.6212 517.48 15.5216L516.544 13.754C514.178 15.0067 512.337 16.696 511.058 18.8278L512.773 19.8568ZM517.478 15.523C519.568 14.4244 521.825 13.8736 524.265 13.8736V11.8736C521.51 11.8736 518.933 12.4989 516.547 13.7526L517.478 15.523ZM524.265 13.8736C526.635 13.8736 528.573 14.3879 530.13 15.3628L531.191 13.6677C529.252 12.4537 526.927 11.8736 524.265 11.8736V13.8736ZM530.13 15.3628C531.696 16.3437 532.815 17.6869 533.505 19.4183L535.363 18.6783C534.517 16.5545 533.12 14.8757 531.191 13.6677L530.13 15.3628ZM533.505 19.4183C534.191 21.1405 534.364 23.1702 533.962 25.5466L535.935 25.8795C536.383 23.2246 536.212 20.8112 535.363 18.6783L533.505 19.4183ZM533.962 25.5487L529.748 50.8356L531.72 51.1644L535.935 25.8775L533.962 25.5487ZM530.734 50H529.166V52H530.734V50ZM530.152 51.1644L534.367 25.8775L532.394 25.5487L528.179 50.8356L530.152 51.1644ZM534.367 25.8728C534.939 22.3379 534.348 19.3174 532.444 16.9512L530.886 18.205C532.347 20.0206 532.899 22.4235 532.393 25.5534L534.367 25.8728ZM532.447 16.9549C530.545 14.5682 527.722 13.4418 524.167 13.4418V15.4418C527.278 15.4418 529.453 16.4063 530.883 18.2013L532.447 16.9549ZM524.167 13.4418C521.795 13.4418 519.567 13.9576 517.496 14.993L518.391 16.7819C520.175 15.8897 522.096 15.4418 524.167 15.4418V13.4418ZM517.493 14.9945C515.448 16.0259 513.722 17.4541 512.324 19.2717L513.909 20.4911C515.125 18.9109 516.617 17.6765 518.394 16.7803L517.493 14.9945ZM512.32 19.2765C510.927 21.1105 510.04 23.2078 509.655 25.5511L511.628 25.8751C511.962 23.8405 512.725 22.05 513.913 20.4863L512.32 19.2765ZM549.711 49.2113L549.074 49.982L549.077 49.9844L549.711 49.2113ZM545.325 42.228L544.364 42.5041L544.365 42.5055L545.325 42.228ZM544.958 32.2798L545.945 32.4421L545.945 32.4407L544.958 32.2798ZM548.633 22.3072L547.786 21.7755L547.786 21.7755L548.633 22.3072ZM555.396 15.3484L555.934 16.1914L555.935 16.1905L555.396 15.3484ZM569.975 14.2457L569.479 15.114L569.485 15.1175L569.975 14.2457ZM573.994 18.3132L573.118 18.7961L573.12 18.7996L573.994 18.3132ZM575.439 24.3409V25.3409H576.439V24.3409H575.439ZM573.773 24.3409H572.773V25.3409H573.773V24.3409ZM571.078 17.0391L570.368 17.7429L570.371 17.7462L571.078 17.0391ZM556.156 16.696L556.693 17.5392L556.695 17.5383L556.156 16.696ZM549.932 23.0668L549.088 22.5299L549.086 22.5335L549.932 23.0668ZM546.526 32.2798L547.512 32.4442L547.513 32.4435L546.526 32.2798ZM546.747 41.3459L545.779 41.5966L545.78 41.6021L546.747 41.3459ZM550.569 47.8146L551.228 47.0621L551.228 47.0621L550.569 47.8146ZM563.36 48.9418L563.775 49.8516L563.775 49.8516L563.36 48.9418ZM568.26 45.3643L567.522 44.6893L567.522 44.6893L568.26 45.3643ZM571.323 40.0227V39.0227H570.589L570.369 39.7227L571.323 40.0227ZM572.989 40.0227L573.942 40.3273L574.359 39.0227H572.989V40.0227ZM569.485 46.271L570.23 46.9388L570.233 46.9353L569.485 46.271ZM564.021 50.3384L563.6 49.4315L563.597 49.4328L564.021 50.3384ZM557.503 50.7841C554.595 50.7841 552.232 49.9853 550.346 48.4381L549.077 49.9844C551.373 51.8676 554.204 52.7841 557.503 52.7841V50.7841ZM550.349 48.4406C548.45 46.8705 547.088 44.725 546.286 41.9504L544.365 42.5055C545.262 45.6117 546.824 48.1216 549.074 49.982L550.349 48.4406ZM546.287 41.9519C545.486 39.1644 545.359 36.0016 545.945 32.4421L543.971 32.1176C543.348 35.9089 543.466 39.3782 544.364 42.5041L546.287 41.9519ZM545.945 32.4407C546.53 28.8534 547.711 25.6572 549.48 22.8389L547.786 21.7755C545.864 24.8379 544.595 28.2901 543.971 32.119L545.945 32.4407ZM549.48 22.8389C551.255 20.0113 553.408 17.803 555.934 16.1914L554.858 14.5053C552.059 16.2915 549.703 18.7224 547.786 21.7755L549.48 22.8389ZM555.935 16.1905C558.461 14.5733 561.134 13.7756 563.972 13.7756V11.7756C560.733 11.7756 557.689 12.693 554.857 14.5062L555.935 16.1905ZM563.972 13.7756C566.113 13.7756 567.937 14.233 569.479 15.114L570.471 13.3775C568.583 12.2982 566.405 11.7756 563.972 11.7756V13.7756ZM569.485 15.1175C571.036 15.9887 572.243 17.2087 573.118 18.7961L574.869 17.8303C573.817 15.9219 572.345 14.4303 570.465 13.3739L569.485 15.1175ZM573.12 18.7996C573.989 20.3608 574.439 22.1977 574.439 24.3409H576.439C576.439 21.9102 575.926 19.7287 574.868 17.8269L573.12 18.7996ZM575.439 23.3409H573.773V25.3409H575.439V23.3409ZM574.773 24.3409C574.773 21.0637 573.807 18.3544 571.785 16.332L570.371 17.7462C571.942 19.3175 572.773 21.476 572.773 24.3409H574.773ZM571.788 16.3352C569.788 14.3168 567.147 13.3438 563.972 13.3438V15.3438C566.711 15.3438 568.807 16.1676 570.368 17.7429L571.788 16.3352ZM563.972 13.3438C561.01 13.3438 558.219 14.1884 555.617 15.8538L556.695 17.5383C558.993 16.0673 561.413 15.3438 563.972 15.3438V13.3438ZM555.618 15.8528C553.048 17.4912 550.873 19.7246 549.088 22.5299L550.776 23.6036C552.421 21.0183 554.395 19.0045 556.693 17.5392L555.618 15.8528ZM549.086 22.5335C547.31 25.3519 546.131 28.5509 545.54 32.1162L547.513 32.4435C548.065 29.1153 549.157 26.1722 550.778 23.6L549.086 22.5335ZM545.54 32.1154C544.966 35.558 545.035 38.7245 545.779 41.5966L547.715 41.0951C547.054 38.544 546.975 35.6664 547.512 32.4442L545.54 32.1154ZM545.78 41.6021C546.542 44.4757 547.909 46.8159 549.911 48.5672L551.228 47.0621C549.57 45.6116 548.389 43.6393 547.713 41.0897L545.78 41.6021ZM549.911 48.5672C551.949 50.3511 554.506 51.2159 557.503 51.2159V49.2159C554.914 49.2159 552.848 48.4798 551.228 47.0621L549.911 48.5672ZM557.503 51.2159C559.689 51.2159 561.782 50.7603 563.775 49.8516L562.945 48.0319C561.212 48.8221 559.402 49.2159 557.503 49.2159V51.2159ZM563.775 49.8516C565.761 48.9454 567.504 47.6723 568.998 46.0394L567.522 44.6893C566.207 46.1274 564.682 47.2392 562.945 48.0319L563.775 49.8516ZM568.998 46.0394C570.503 44.3939 571.597 42.4847 572.277 40.3228L570.369 39.7227C569.775 41.6119 568.827 43.2638 567.522 44.6893L568.998 46.0394ZM571.323 41.0227H572.989V39.0227H571.323V41.0227ZM572.037 39.7182C571.308 41.9957 570.207 43.9537 568.738 45.6066L570.233 46.9353C571.9 45.0598 573.134 42.8523 573.942 40.3273L572.037 39.7182ZM568.741 45.6031C567.261 47.253 565.548 48.5263 563.6 49.4315L564.442 51.2453C566.643 50.223 568.573 48.7846 570.23 46.9388L568.741 45.6031ZM563.597 49.4328C561.672 50.334 559.645 50.7841 557.503 50.7841V52.7841C559.936 52.7841 562.253 52.2704 564.445 51.2441L563.597 49.4328ZM579.593 64.8441L579.846 63.8767L579.838 63.8746L579.83 63.8726L579.593 64.8441ZM577.559 64.1335L576.691 63.6374L576.145 64.5916L577.147 65.0446L577.559 64.1335ZM578.343 62.7614L578.782 61.8629L577.94 61.4514L577.475 62.2652L578.343 62.7614ZM582.533 63.4719L582.38 62.4836L582.367 62.4859L582.533 63.4719ZM586.404 61.5362L585.744 60.7849L585.739 60.7899L586.404 61.5362ZM589.663 57.1747L588.778 56.709L588.777 56.7119L589.663 57.1747ZM592.604 51.5881L593.489 52.0538L593.651 51.7448L593.586 51.4017L592.604 51.5881ZM585.351 13.3636V12.3636H584.143L584.368 13.5501L585.351 13.3636ZM586.919 13.3636L587.901 13.1761L587.746 12.3636H586.919V13.3636ZM593.731 49.0398L592.749 49.2273L592.904 50.0398H593.731V49.0398ZM593.927 49.0398V50.0398H594.532L594.813 49.5035L593.927 49.0398ZM612.598 13.3636V12.3636H611.993L611.712 12.8999L612.598 13.3636ZM614.362 13.3636L615.248 13.8272L616.014 12.3636H614.362V13.3636ZM591.084 57.8608L591.97 58.3262L591.971 58.3243L591.084 57.8608ZM588.291 61.8548L587.568 61.1643L587.562 61.1701L588.291 61.8548ZM585.057 64.2805L584.63 63.376L584.62 63.381L585.057 64.2805ZM581.577 64.1136C581.035 64.1136 580.459 64.0372 579.846 63.8767L579.339 65.8115C580.099 66.0104 580.846 66.1136 581.577 66.1136V64.1136ZM579.83 63.8726C579.225 63.7252 578.606 63.5096 577.971 63.2224L577.147 65.0446C577.884 65.3782 578.621 65.6363 579.356 65.8156L579.83 63.8726ZM578.427 64.6297L579.211 63.2575L577.475 62.2652L576.691 63.6374L578.427 64.6297ZM577.904 63.6598C579.497 64.4385 581.105 64.7269 582.699 64.458L582.367 62.4859C581.249 62.6744 580.064 62.4891 578.782 61.8629L577.904 63.6598ZM582.686 64.4602C584.279 64.2137 585.742 63.4672 587.07 62.2825L585.739 60.7899C584.65 61.7615 583.532 62.3055 582.38 62.4837L582.686 64.4602ZM587.064 62.2875C588.389 61.1243 589.545 59.5621 590.55 57.6376L588.777 56.7119C587.854 58.4791 586.838 59.8245 585.744 60.7849L587.064 62.2875ZM590.548 57.6405L593.489 52.0538L591.719 51.1223L588.778 56.709L590.548 57.6405ZM593.586 51.4017L586.333 13.1772L584.368 13.5501L591.621 51.7745L593.586 51.4017ZM585.351 14.3636H586.919V12.3636H585.351V14.3636ZM585.937 13.5512L592.749 49.2273L594.713 48.8522L587.901 13.1761L585.937 13.5512ZM593.731 50.0398H593.927V48.0398H593.731V50.0398ZM594.813 49.5035L613.484 13.8273L611.712 12.8999L593.041 48.5761L594.813 49.5035ZM612.598 14.3636H614.362V12.3636H612.598V14.3636ZM613.476 12.9001L590.198 57.3973L591.971 58.3243L615.248 13.8272L613.476 12.9001ZM590.199 57.3954C589.401 58.9137 588.521 60.1652 587.568 61.1643L589.015 62.5452C590.119 61.3881 591.102 59.9769 591.97 58.3262L590.199 57.3954ZM587.562 61.1701C586.621 62.1719 585.642 62.8989 584.63 63.376L585.483 65.1851C586.758 64.5841 587.936 63.6939 589.02 62.5394L587.562 61.1701ZM584.62 63.381C583.601 63.8757 582.59 64.1136 581.577 64.1136V66.1136C582.917 66.1136 584.225 65.7961 585.494 65.18L584.62 63.381Z" fill="white" mask="url(#path-1-outside-1_2_163)"/>
</svg>
