<svg width="240" height="72" viewBox="0 0 240 72" fill="none" xmlns="http://www.w3.org/2000/svg">
<path d="M38.0117 71H0.0117188V0.999995H8.31172V70H38.0117V71ZM41.0781 37.7C41.0781 25.5667 44.0115 16.3667 49.8781 10.1C55.8115 3.76666 63.4115 0.599994 72.6781 0.599994C81.9448 0.599994 89.3115 3.33333 94.7781 8.8C100.311 14.2667 103.078 23 103.078 35C103.078 47 100.145 56.0667 94.2781 62.2C88.4115 68.3333 80.5781 71.4 70.7781 71.4C62.3115 71.4 55.3781 68.9667 49.9781 64.1C47.1781 61.5667 44.9781 58.0667 43.3781 53.6C41.8448 49.0667 41.0781 43.7667 41.0781 37.7ZM72.3781 1.6C65.6448 1.6 60.1115 4.6 55.7781 10.6C51.5115 16.6 49.3781 25.4 49.3781 37C49.3781 48.6 51.4115 57.0667 55.4781 62.4C59.5448 67.7333 64.9448 70.4 71.6781 70.4C78.4781 70.4 84.0115 67.4 88.2781 61.4C92.6115 55.3333 94.7781 46.5667 94.7781 35.1C94.7781 23.5667 92.7115 15.1 88.5781 9.7C84.5115 4.3 79.1115 1.6 72.3781 1.6ZM146.974 71.4C134.508 71.4 125.274 67.8667 119.274 60.8C117.141 58.2667 115.408 54.9 114.074 50.7C112.741 46.5 112.074 41.4 112.074 35.4C112.074 29.4 113.041 24.0333 114.974 19.3C116.974 14.5 119.674 10.8 123.074 8.2C129.674 3.33333 137.641 0.899997 146.974 0.899997C149.974 0.899997 152.908 1.13333 155.774 1.6C158.641 2 160.774 2.43333 162.174 2.89999L164.274 3.6L163.974 4.6C158.774 2.8 153.108 1.9 146.974 1.9C139.908 1.9 134.008 4.2 129.274 8.8C125.674 12.2 123.141 17.2 121.674 23.8C120.808 27.5333 120.374 32.1 120.374 37.5C120.374 42.9 121.141 47.9 122.674 52.5C124.208 57.0333 125.941 60.4 127.874 62.6C129.874 64.8 132.274 66.5667 135.074 67.9C137.874 69.1667 140.108 69.9 141.774 70.1C143.441 70.3 145.408 70.4 147.674 70.4C150.008 70.4 153.108 70.1333 156.974 69.6V49H144.874V48H169.574V49H165.274V68.7C160.208 70.5 154.108 71.4 146.974 71.4ZM177.016 37.7C177.016 25.5667 179.949 16.3667 185.816 10.1C191.749 3.76666 199.349 0.599994 208.616 0.599994C217.882 0.599994 225.249 3.33333 230.716 8.8C236.249 14.2667 239.016 23 239.016 35C239.016 47 236.082 56.0667 230.216 62.2C224.349 68.3333 216.516 71.4 206.716 71.4C198.249 71.4 191.316 68.9667 185.916 64.1C183.116 61.5667 180.916 58.0667 179.316 53.6C177.782 49.0667 177.016 43.7667 177.016 37.7ZM208.316 1.6C201.582 1.6 196.049 4.6 191.716 10.6C187.449 16.6 185.316 25.4 185.316 37C185.316 48.6 187.349 57.0667 191.416 62.4C195.482 67.7333 200.882 70.4 207.616 70.4C214.416 70.4 219.949 67.4 224.216 61.4C228.549 55.3333 230.716 46.5667 230.716 35.1C230.716 23.5667 228.649 15.1 224.516 9.7C220.449 4.3 215.049 1.6 208.316 1.6Z" fill="white"/>
</svg>
