<svg width="101" height="24" viewBox="0 0 101 24" fill="none" xmlns="http://www.w3.org/2000/svg">
<path d="M4.58438 24C4.29271 24 4.14688 23.8542 4.14688 23.5625V5.3275H1.08438C0.792708 5.3275 0.646875 5.18167 0.646875 4.89V1.11C0.646875 0.818332 0.792708 0.672499 1.08438 0.672499H13.0369C13.3285 0.672499 13.4744 0.818332 13.4744 1.11V4.89C13.4744 5.18167 13.3285 5.3275 13.0369 5.3275H9.97438V23.5625C9.97438 23.8542 9.82854 24 9.53688 24H4.58438ZM22.1659 24C21.8859 24 21.6525 23.9008 21.4659 23.7025L17.9659 20.2025C17.7675 20.0158 17.6684 19.7825 17.6684 19.5025V5.1875C17.6684 4.89583 17.8142 4.75 18.1059 4.75H22.7784C23.07 4.75 23.2159 4.89583 23.2159 5.1875V18.8025C23.2159 19.3508 23.4842 19.625 24.0209 19.625H26.4184V5.1875C26.4184 4.89583 26.5642 4.75 26.8559 4.75H31.5284C31.82 4.75 31.9659 4.89583 31.9659 5.1875V23.5625C31.9659 23.8542 31.82 24 31.5284 24H22.1659ZM36.4945 24C36.2029 24 36.057 23.8542 36.057 23.5625V5.1875C36.057 4.89583 36.2029 4.75 36.4945 4.75H45.857C46.1254 4.75 46.3587 4.84917 46.557 5.0475L50.057 8.5475C50.2554 8.73417 50.3545 8.9675 50.3545 9.2475V23.5625C50.3545 23.8542 50.2087 24 49.917 24H45.2445C44.9529 24 44.807 23.8542 44.807 23.5625V9.9475C44.807 9.39917 44.5329 9.125 43.9845 9.125H41.6045V23.5625C41.6045 23.8542 41.4587 24 41.167 24H36.4945ZM54.8832 24C54.5915 24 54.4457 23.8542 54.4457 23.5625V5.1875C54.4457 4.89583 54.5915 4.75 54.8832 4.75H59.5382C59.8299 4.75 59.9757 4.89583 59.9757 5.1875V23.5625C59.9757 23.8542 59.8299 24 59.5382 24H54.8832ZM54.7957 3.2975C54.5624 3.2975 54.4457 3.18083 54.4457 2.9475V0.724999C54.4457 0.491666 54.5624 0.375 54.7957 0.375H59.6607C59.8707 0.375 59.9757 0.491666 59.9757 0.724999V2.9475C59.9757 3.18083 59.8707 3.2975 59.6607 3.2975H54.7957ZM63.9452 24C63.6535 24 63.5077 23.8542 63.5077 23.5625V20.7275C63.5077 20.4592 63.5952 20.2842 63.7702 20.2025L67.3402 18.085V16.265L63.7702 14.34C63.5952 14.235 63.5077 14.0542 63.5077 13.7975V8.215C63.5077 8.08667 63.5252 7.98167 63.5602 7.9C63.6069 7.81833 63.671 7.74833 63.7527 7.69L67.4802 4.96C67.6085 4.86667 67.7135 4.80833 67.7952 4.785C67.8769 4.76167 67.9585 4.75 68.0402 4.75H72.2927C72.5844 4.75 72.7302 4.89583 72.7302 5.1875V7.935C72.7302 8.13333 72.7127 8.2675 72.6777 8.3375C72.6544 8.4075 72.596 8.46583 72.5027 8.5125L69.1952 10.2975V12.3275L72.7302 14.0775C72.9285 14.1592 73.0277 14.3342 73.0277 14.6025V19.975C73.0277 20.2667 72.9285 20.5 72.7302 20.675L69.0027 23.7725C68.816 23.9242 68.5827 24 68.3027 24H63.9452ZM77.1342 24C76.8425 24 76.6967 23.8542 76.6967 23.5625V5.1875C76.6967 4.89583 76.8425 4.75 77.1342 4.75H81.7892C82.0808 4.75 82.2267 4.89583 82.2267 5.1875V23.5625C82.2267 23.8542 82.0808 24 81.7892 24H77.1342ZM77.0467 3.2975C76.8133 3.2975 76.6967 3.18083 76.6967 2.9475V0.724999C76.6967 0.491666 76.8133 0.375 77.0467 0.375H81.9117C82.1217 0.375 82.2267 0.491666 82.2267 0.724999V2.9475C82.2267 3.18083 82.1217 3.2975 81.9117 3.2975H77.0467ZM90.6762 24C90.4078 24 90.1745 23.9008 89.9762 23.7025L86.4762 20.2025C86.2778 20.0158 86.1787 19.7825 86.1787 19.5025V9.2475C86.1787 8.9675 86.2778 8.73417 86.4762 8.5475L89.9762 5.0475C90.1745 4.84917 90.4078 4.75 90.6762 4.75H100.039C100.33 4.75 100.476 4.89583 100.476 5.1875V23.5625C100.476 23.8542 100.33 24 100.039 24H96.3987C96.247 24 96.1303 23.9708 96.0487 23.9125C95.9787 23.8542 95.897 23.7842 95.8037 23.7025L94.9287 22.8275L94.0537 23.7025C93.867 23.9008 93.6337 24 93.3537 24H90.6762ZM92.7237 19.9225H93.9487C94.322 19.9225 94.5787 19.8467 94.7187 19.695C94.8587 19.5433 94.9287 19.275 94.9287 18.89V8.8275H92.7237C92.3387 8.8275 92.0762 8.90333 91.9362 9.055C91.7962 9.20667 91.7262 9.475 91.7262 9.86V18.89C91.7262 19.275 91.7962 19.5433 91.9362 19.695C92.0762 19.8467 92.3387 19.9225 92.7237 19.9225Z" fill="white"/>
</svg>
