<svg width="274" height="38" viewBox="0 0 274 38" fill="none" xmlns="http://www.w3.org/2000/svg">
<mask id="path-1-outside-1_2_111" maskUnits="userSpaceOnUse" x="-1" y="-1" width="276" height="40" fill="black">
<rect fill="white" x="-1" y="-1" width="276" height="40"/>
<path d="M4.16193 37L0.184659 0.636363H1.39205L5.08523 35.2244H5.22727L20.2841 0.636363H21.8466L25.3267 35.2244H25.4688L40.7386 0.636363H42.017L25.9659 37H24.3324L20.8523 2.41193H20.7102L5.72443 37H4.16193ZM46.3272 18.6761L43.2733 37H42.1369L48.1738 0.636363H49.3102L47.1085 14.0597H47.2505C48.1028 12.6392 49.3339 11.5028 50.9437 10.6506C52.5654 9.7983 54.3173 9.37216 56.1994 9.37216C58.0223 9.37216 59.5671 9.7687 60.8336 10.5618C62.1002 11.3549 63.0117 12.4498 63.568 13.8466C64.1243 15.2434 64.2486 16.8532 63.9409 18.6761L60.8869 37H59.7505L62.8045 18.6761C63.1951 16.2614 62.7808 14.2964 61.5616 12.7812C60.3542 11.2661 58.5431 10.5085 56.1284 10.5085C54.5185 10.5085 53.0152 10.8577 51.6184 11.5561C50.2335 12.2545 49.0675 13.2192 48.1206 14.4503C47.1854 15.6813 46.5877 17.09 46.3272 18.6761ZM77.302 37.5682C75.8105 37.5682 74.4848 37.2604 73.3248 36.6449C72.1766 36.0294 71.3124 35.1297 70.7324 33.946C70.1642 32.7623 70.0104 31.3182 70.2708 29.6136C70.4365 28.6903 70.7324 27.8262 71.1586 27.0213C71.5965 26.2045 72.2417 25.4647 73.0939 24.8018C73.958 24.139 75.1003 23.5708 76.5208 23.0973C77.9412 22.6238 79.7168 22.2628 81.8475 22.0142C83.1259 21.8722 84.3392 21.7064 85.4874 21.517C86.6356 21.3277 87.5885 21.0436 88.3461 20.6648C89.1036 20.286 89.5416 19.7415 89.66 19.0312L89.9441 17.3977C90.2992 15.3026 89.9086 13.6217 88.7722 12.3551C87.6358 11.0767 85.8958 10.4375 83.552 10.4375C81.6344 10.4375 79.8529 10.8696 78.2076 11.7337C76.574 12.5978 75.3489 13.7756 74.5321 15.267L73.5378 14.8409C74.1534 13.7045 74.9701 12.7221 75.9881 11.8935C77.0179 11.0649 78.178 10.4257 79.4682 9.97585C80.7703 9.52604 82.1316 9.30113 83.552 9.30113C84.937 9.30113 86.1444 9.50828 87.1742 9.92258C88.204 10.325 89.0385 10.8932 89.6777 11.6271C90.3288 12.3492 90.7727 13.2015 91.0094 14.1839C91.258 15.1664 91.2817 16.2377 91.0804 17.3977L87.8134 37H86.677L87.6003 31.4602H87.4583C86.7007 32.6913 85.7892 33.7685 84.7239 34.6918C83.6704 35.6032 82.5104 36.3134 81.2438 36.8224C79.9891 37.3196 78.6751 37.5682 77.302 37.5682ZM77.302 36.4318C79.0302 36.4318 80.6874 35.9702 82.2736 35.0469C83.8716 34.1117 85.2329 32.8156 86.3574 31.1584C87.4938 29.4893 88.2395 27.554 88.5946 25.3523L89.3049 21.233C88.9379 21.4815 88.4999 21.7005 87.9909 21.8899C87.4938 22.0793 86.9374 22.2509 86.3219 22.4048C85.7182 22.5469 85.0613 22.6712 84.351 22.7777C83.6526 22.8842 82.9128 22.9848 82.1316 23.0795C79.6458 23.3636 77.6571 23.7957 76.1657 24.3757C74.6742 24.9557 73.5615 25.6837 72.8276 26.5597C72.0937 27.4356 71.6202 28.4536 71.4071 29.6136C71.0875 31.6733 71.4841 33.3246 72.5968 34.5675C73.7095 35.8104 75.2779 36.4318 77.302 36.4318ZM110.674 9.72727L110.461 10.8636H99.6653L99.8784 9.72727H110.674ZM104.921 3.19318H106.057L101.441 31.2472C101.251 32.3125 101.328 33.2299 101.672 33.9993C102.015 34.7569 102.542 35.3428 103.252 35.7571C103.962 36.1596 104.779 36.3608 105.702 36.3608C106.022 36.3608 106.33 36.3312 106.626 36.272C106.933 36.201 107.265 36.1122 107.62 36.0057L107.762 37.071C107.371 37.2131 106.998 37.3196 106.643 37.3906C106.3 37.4616 105.915 37.4972 105.489 37.4972C104.376 37.4972 103.388 37.2427 102.524 36.7337C101.672 36.2247 101.032 35.5026 100.606 34.5675C100.192 33.6323 100.091 32.5256 100.305 31.2472L104.921 3.19318ZM135.656 37L131.679 0.636363H132.886L136.579 35.2244H136.721L151.778 0.636363H153.341L156.821 35.2244H156.963L172.233 0.636363H173.511L157.46 37H155.827L152.346 2.41193H152.204L137.219 37H135.656ZM181.248 37.5682C178.857 37.5682 176.874 36.9467 175.3 35.7038C173.726 34.4609 172.625 32.7741 171.998 30.6435C171.37 28.5128 171.281 26.1098 171.731 23.4347C172.181 20.7595 173.075 18.3565 174.412 16.2259C175.75 14.0952 177.372 12.4084 179.277 11.1655C181.183 9.92258 183.213 9.30113 185.368 9.30113C186.954 9.30113 188.362 9.64441 189.593 10.331C190.836 11.0057 191.86 11.9408 192.665 13.1364C193.482 14.3201 194.044 15.6932 194.352 17.2557C194.66 18.8063 194.672 20.4635 194.387 22.2273L194.174 23.3636H172.299L172.512 22.2273H193.251C193.606 20.0492 193.494 18.0724 192.914 16.2969C192.346 14.5095 191.404 13.089 190.091 12.0355C188.788 10.9702 187.214 10.4375 185.368 10.4375C183.497 10.4375 181.698 10.9938 179.97 12.1065C178.242 13.2192 176.75 14.7344 175.495 16.652C174.241 18.5696 173.388 20.7358 172.939 23.1506L172.868 23.2216C172.465 25.6127 172.507 27.8085 172.992 29.8089C173.477 31.8094 174.412 33.4134 175.797 34.6207C177.182 35.8281 179.023 36.4318 181.319 36.4318C182.976 36.4318 184.432 36.1359 185.687 35.544C186.954 34.9522 188.007 34.2715 188.848 33.5021C189.7 32.7327 190.339 32.0758 190.765 31.5312L191.547 32.1705C191.049 32.857 190.333 33.6205 189.398 34.4609C188.463 35.3014 187.315 36.0294 185.953 36.6449C184.592 37.2604 183.024 37.5682 181.248 37.5682ZM224.381 37H214.864L220.901 0.636363H231.341C234.68 0.636363 237.426 1.35843 239.58 2.80256C241.734 4.23485 243.226 6.30043 244.055 8.99929C244.883 11.6863 244.978 14.9119 244.339 18.6761C243.676 22.535 242.445 25.8317 240.645 28.5661C238.858 31.3004 236.585 33.3897 233.827 34.8338C231.081 36.2779 227.932 37 224.381 37ZM216.196 35.8636H224.594C227.897 35.8636 230.838 35.1652 233.419 33.7685C236.011 32.3717 238.148 30.389 239.829 27.8203C241.51 25.2517 242.634 22.2036 243.202 18.6761C243.782 15.0777 243.711 12.0237 242.989 9.5142C242.267 6.9929 240.912 5.07528 238.923 3.76136C236.946 2.4356 234.348 1.77273 231.128 1.77273H221.842L216.196 35.8636ZM259.413 37.5682C257.259 37.5682 255.424 36.9467 253.909 35.7038C252.406 34.4609 251.328 32.7623 250.677 30.608C250.038 28.4536 249.943 26.0152 250.393 23.2926C250.843 20.6411 251.731 18.2618 253.057 16.1548C254.394 14.036 256.004 12.367 257.886 11.1477C259.78 9.91666 261.781 9.30113 263.888 9.30113C266.066 9.30113 267.906 9.9285 269.41 11.1832C270.925 12.438 272.002 14.1425 272.641 16.2969C273.292 18.4512 273.405 20.8778 272.979 23.5767C272.529 26.2282 271.635 28.6134 270.297 30.7322C268.96 32.8393 267.344 34.5083 265.45 35.7393C263.556 36.9586 261.544 37.5682 259.413 37.5682ZM259.413 36.4318C261.378 36.4318 263.231 35.8636 264.971 34.7273C266.711 33.5791 268.19 32.0166 269.41 30.0398C270.629 28.0511 271.44 25.8021 271.842 23.2926C272.245 20.8542 272.168 18.6643 271.611 16.723C271.055 14.7817 270.114 13.2488 268.788 12.1243C267.462 10.9998 265.853 10.4375 263.959 10.4375C262.017 10.4375 260.177 11.0175 258.437 12.1776C256.697 13.3258 255.211 14.8942 253.98 16.8828C252.749 18.8596 251.932 21.0909 251.53 23.5767C251.104 26.0152 251.169 28.205 251.725 30.1463C252.293 32.0876 253.24 33.6205 254.566 34.745C255.903 35.8696 257.519 36.4318 259.413 36.4318Z"/>
</mask>
<path d="M4.16193 37L0.184659 0.636363H1.39205L5.08523 35.2244H5.22727L20.2841 0.636363H21.8466L25.3267 35.2244H25.4688L40.7386 0.636363H42.017L25.9659 37H24.3324L20.8523 2.41193H20.7102L5.72443 37H4.16193ZM46.3272 18.6761L43.2733 37H42.1369L48.1738 0.636363H49.3102L47.1085 14.0597H47.2505C48.1028 12.6392 49.3339 11.5028 50.9437 10.6506C52.5654 9.7983 54.3173 9.37216 56.1994 9.37216C58.0223 9.37216 59.5671 9.7687 60.8336 10.5618C62.1002 11.3549 63.0117 12.4498 63.568 13.8466C64.1243 15.2434 64.2486 16.8532 63.9409 18.6761L60.8869 37H59.7505L62.8045 18.6761C63.1951 16.2614 62.7808 14.2964 61.5616 12.7812C60.3542 11.2661 58.5431 10.5085 56.1284 10.5085C54.5185 10.5085 53.0152 10.8577 51.6184 11.5561C50.2335 12.2545 49.0675 13.2192 48.1206 14.4503C47.1854 15.6813 46.5877 17.09 46.3272 18.6761ZM77.302 37.5682C75.8105 37.5682 74.4848 37.2604 73.3248 36.6449C72.1766 36.0294 71.3124 35.1297 70.7324 33.946C70.1642 32.7623 70.0104 31.3182 70.2708 29.6136C70.4365 28.6903 70.7324 27.8262 71.1586 27.0213C71.5965 26.2045 72.2417 25.4647 73.0939 24.8018C73.958 24.139 75.1003 23.5708 76.5208 23.0973C77.9412 22.6238 79.7168 22.2628 81.8475 22.0142C83.1259 21.8722 84.3392 21.7064 85.4874 21.517C86.6356 21.3277 87.5885 21.0436 88.3461 20.6648C89.1036 20.286 89.5416 19.7415 89.66 19.0312L89.9441 17.3977C90.2992 15.3026 89.9086 13.6217 88.7722 12.3551C87.6358 11.0767 85.8958 10.4375 83.552 10.4375C81.6344 10.4375 79.8529 10.8696 78.2076 11.7337C76.574 12.5978 75.3489 13.7756 74.5321 15.267L73.5378 14.8409C74.1534 13.7045 74.9701 12.7221 75.9881 11.8935C77.0179 11.0649 78.178 10.4257 79.4682 9.97585C80.7703 9.52604 82.1316 9.30113 83.552 9.30113C84.937 9.30113 86.1444 9.50828 87.1742 9.92258C88.204 10.325 89.0385 10.8932 89.6777 11.6271C90.3288 12.3492 90.7727 13.2015 91.0094 14.1839C91.258 15.1664 91.2817 16.2377 91.0804 17.3977L87.8134 37H86.677L87.6003 31.4602H87.4583C86.7007 32.6913 85.7892 33.7685 84.7239 34.6918C83.6704 35.6032 82.5104 36.3134 81.2438 36.8224C79.9891 37.3196 78.6751 37.5682 77.302 37.5682ZM77.302 36.4318C79.0302 36.4318 80.6874 35.9702 82.2736 35.0469C83.8716 34.1117 85.2329 32.8156 86.3574 31.1584C87.4938 29.4893 88.2395 27.554 88.5946 25.3523L89.3049 21.233C88.9379 21.4815 88.4999 21.7005 87.9909 21.8899C87.4938 22.0793 86.9374 22.2509 86.3219 22.4048C85.7182 22.5469 85.0613 22.6712 84.351 22.7777C83.6526 22.8842 82.9128 22.9848 82.1316 23.0795C79.6458 23.3636 77.6571 23.7957 76.1657 24.3757C74.6742 24.9557 73.5615 25.6837 72.8276 26.5597C72.0937 27.4356 71.6202 28.4536 71.4071 29.6136C71.0875 31.6733 71.4841 33.3246 72.5968 34.5675C73.7095 35.8104 75.2779 36.4318 77.302 36.4318ZM110.674 9.72727L110.461 10.8636H99.6653L99.8784 9.72727H110.674ZM104.921 3.19318H106.057L101.441 31.2472C101.251 32.3125 101.328 33.2299 101.672 33.9993C102.015 34.7569 102.542 35.3428 103.252 35.7571C103.962 36.1596 104.779 36.3608 105.702 36.3608C106.022 36.3608 106.33 36.3312 106.626 36.272C106.933 36.201 107.265 36.1122 107.62 36.0057L107.762 37.071C107.371 37.2131 106.998 37.3196 106.643 37.3906C106.3 37.4616 105.915 37.4972 105.489 37.4972C104.376 37.4972 103.388 37.2427 102.524 36.7337C101.672 36.2247 101.032 35.5026 100.606 34.5675C100.192 33.6323 100.091 32.5256 100.305 31.2472L104.921 3.19318ZM135.656 37L131.679 0.636363H132.886L136.579 35.2244H136.721L151.778 0.636363H153.341L156.821 35.2244H156.963L172.233 0.636363H173.511L157.46 37H155.827L152.346 2.41193H152.204L137.219 37H135.656ZM181.248 37.5682C178.857 37.5682 176.874 36.9467 175.3 35.7038C173.726 34.4609 172.625 32.7741 171.998 30.6435C171.37 28.5128 171.281 26.1098 171.731 23.4347C172.181 20.7595 173.075 18.3565 174.412 16.2259C175.75 14.0952 177.372 12.4084 179.277 11.1655C181.183 9.92258 183.213 9.30113 185.368 9.30113C186.954 9.30113 188.362 9.64441 189.593 10.331C190.836 11.0057 191.86 11.9408 192.665 13.1364C193.482 14.3201 194.044 15.6932 194.352 17.2557C194.66 18.8063 194.672 20.4635 194.387 22.2273L194.174 23.3636H172.299L172.512 22.2273H193.251C193.606 20.0492 193.494 18.0724 192.914 16.2969C192.346 14.5095 191.404 13.089 190.091 12.0355C188.788 10.9702 187.214 10.4375 185.368 10.4375C183.497 10.4375 181.698 10.9938 179.97 12.1065C178.242 13.2192 176.75 14.7344 175.495 16.652C174.241 18.5696 173.388 20.7358 172.939 23.1506L172.868 23.2216C172.465 25.6127 172.507 27.8085 172.992 29.8089C173.477 31.8094 174.412 33.4134 175.797 34.6207C177.182 35.8281 179.023 36.4318 181.319 36.4318C182.976 36.4318 184.432 36.1359 185.687 35.544C186.954 34.9522 188.007 34.2715 188.848 33.5021C189.7 32.7327 190.339 32.0758 190.765 31.5312L191.547 32.1705C191.049 32.857 190.333 33.6205 189.398 34.4609C188.463 35.3014 187.315 36.0294 185.953 36.6449C184.592 37.2604 183.024 37.5682 181.248 37.5682ZM224.381 37H214.864L220.901 0.636363H231.341C234.68 0.636363 237.426 1.35843 239.58 2.80256C241.734 4.23485 243.226 6.30043 244.055 8.99929C244.883 11.6863 244.978 14.9119 244.339 18.6761C243.676 22.535 242.445 25.8317 240.645 28.5661C238.858 31.3004 236.585 33.3897 233.827 34.8338C231.081 36.2779 227.932 37 224.381 37ZM216.196 35.8636H224.594C227.897 35.8636 230.838 35.1652 233.419 33.7685C236.011 32.3717 238.148 30.389 239.829 27.8203C241.51 25.2517 242.634 22.2036 243.202 18.6761C243.782 15.0777 243.711 12.0237 242.989 9.5142C242.267 6.9929 240.912 5.07528 238.923 3.76136C236.946 2.4356 234.348 1.77273 231.128 1.77273H221.842L216.196 35.8636ZM259.413 37.5682C257.259 37.5682 255.424 36.9467 253.909 35.7038C252.406 34.4609 251.328 32.7623 250.677 30.608C250.038 28.4536 249.943 26.0152 250.393 23.2926C250.843 20.6411 251.731 18.2618 253.057 16.1548C254.394 14.036 256.004 12.367 257.886 11.1477C259.78 9.91666 261.781 9.30113 263.888 9.30113C266.066 9.30113 267.906 9.9285 269.41 11.1832C270.925 12.438 272.002 14.1425 272.641 16.2969C273.292 18.4512 273.405 20.8778 272.979 23.5767C272.529 26.2282 271.635 28.6134 270.297 30.7322C268.96 32.8393 267.344 34.5083 265.45 35.7393C263.556 36.9586 261.544 37.5682 259.413 37.5682ZM259.413 36.4318C261.378 36.4318 263.231 35.8636 264.971 34.7273C266.711 33.5791 268.19 32.0166 269.41 30.0398C270.629 28.0511 271.44 25.8021 271.842 23.2926C272.245 20.8542 272.168 18.6643 271.611 16.723C271.055 14.7817 270.114 13.2488 268.788 12.1243C267.462 10.9998 265.853 10.4375 263.959 10.4375C262.017 10.4375 260.177 11.0175 258.437 12.1776C256.697 13.3258 255.211 14.8942 253.98 16.8828C252.749 18.8596 251.932 21.0909 251.53 23.5767C251.104 26.0152 251.169 28.205 251.725 30.1463C252.293 32.0876 253.24 33.6205 254.566 34.745C255.903 35.8696 257.519 36.4318 259.413 36.4318Z" fill="white"/>
<path d="M4.16193 37L3.16786 37.1087L3.26534 38H4.16193V37ZM0.184659 0.636362V-0.363638H-0.930679L-0.809412 0.74509L0.184659 0.636362ZM1.39205 0.636362L2.38639 0.53019L2.29095 -0.363638H1.39205V0.636362ZM5.08523 35.2244L4.09088 35.3306L4.18632 36.2244H5.08523V35.2244ZM5.22727 35.2244V36.2244H5.8826L6.14416 35.6236L5.22727 35.2244ZM20.2841 0.636362V-0.363638H19.6288L19.3672 0.237224L20.2841 0.636362ZM21.8466 0.636362L22.8416 0.536252L22.751 -0.363638H21.8466V0.636362ZM25.3267 35.2244L24.3317 35.3245L24.4223 36.2244H25.3267V35.2244ZM25.4688 35.2244V36.2244H26.1204L26.3836 35.6283L25.4688 35.2244ZM40.7386 0.636362V-0.363638H40.087L39.8238 0.232491L40.7386 0.636362ZM42.017 0.636362L42.9319 1.04018L43.5515 -0.363638H42.017V0.636362ZM25.9659 37V38H26.6176L26.8807 37.4038L25.9659 37ZM24.3324 37L23.3374 37.1001L23.428 38H24.3324V37ZM20.8523 2.41193L21.8473 2.31182L21.7567 1.41193H20.8523V2.41193ZM20.7102 2.41193V1.41193H20.0537L19.7927 2.01438L20.7102 2.41193ZM5.72443 37V38H6.38099L6.64201 37.3976L5.72443 37ZM5.156 36.8913L1.17873 0.527636L-0.809412 0.74509L3.16786 37.1087L5.156 36.8913ZM0.184659 1.63636H1.39205V-0.363638H0.184659V1.63636ZM0.397697 0.742536L4.09088 35.3306L6.07957 35.1183L2.38639 0.53019L0.397697 0.742536ZM5.08523 36.2244H5.22727V34.2244H5.08523V36.2244ZM6.14416 35.6236L21.201 1.0355L19.3672 0.237224L4.31038 34.8253L6.14416 35.6236ZM20.2841 1.63636H21.8466V-0.363638H20.2841V1.63636ZM20.8516 0.736473L24.3317 35.3245L26.3217 35.1243L22.8416 0.536252L20.8516 0.736473ZM25.3267 36.2244H25.4688V34.2244H25.3267V36.2244ZM26.3836 35.6283L41.6535 1.04023L39.8238 0.232491L24.5539 34.8206L26.3836 35.6283ZM40.7386 1.63636H42.017V-0.363638H40.7386V1.63636ZM41.1022 0.232547L25.0511 36.5962L26.8807 37.4038L42.9319 1.04018L41.1022 0.232547ZM25.9659 36H24.3324V38H25.9659V36ZM25.3274 36.8999L21.8473 2.31182L19.8573 2.51204L23.3374 37.1001L25.3274 36.8999ZM20.8523 1.41193H20.7102V3.41193H20.8523V1.41193ZM19.7927 2.01438L4.80685 36.6024L6.64201 37.3976L21.6278 2.80949L19.7927 2.01438ZM5.72443 36H4.16193V38H5.72443V36ZM46.3272 18.6761L47.3136 18.8405L47.314 18.8381L46.3272 18.6761ZM43.2733 37V38H44.1204L44.2597 37.1644L43.2733 37ZM42.1369 37L41.1504 36.8362L40.9572 38H42.1369V37ZM48.1738 0.636362V-0.363638H47.3262L47.1873 0.472589L48.1738 0.636362ZM49.3102 0.636362L50.297 0.798221L50.4876 -0.363638H49.3102V0.636362ZM47.1085 14.0597L46.1217 13.8978L45.9311 15.0597H47.1085V14.0597ZM47.2505 14.0597V15.0597H47.8167L48.108 14.5742L47.2505 14.0597ZM50.9437 10.6506L50.4785 9.76537L50.4758 9.76678L50.9437 10.6506ZM60.8336 10.5618L61.3643 9.71424V9.71423L60.8336 10.5618ZM63.568 13.8466L62.639 14.2166L63.568 13.8466ZM63.9409 18.6761L62.9548 18.5097L62.9545 18.5117L63.9409 18.6761ZM60.8869 37V38H61.734L61.8733 37.1644L60.8869 37ZM59.7505 37L58.7641 36.8356L58.5701 38H59.7505V37ZM62.8045 18.6761L63.7909 18.8405L63.7917 18.8358L62.8045 18.6761ZM61.5616 12.7812L60.7795 13.4045L60.7825 13.4082L61.5616 12.7812ZM51.6184 11.5561L51.1712 10.6617L51.1682 10.6632L51.6184 11.5561ZM48.1206 14.4503L47.3279 13.8406L47.3243 13.8454L48.1206 14.4503ZM45.3408 18.5117L42.2869 36.8356L44.2597 37.1644L47.3136 18.8405L45.3408 18.5117ZM43.2733 36H42.1369V38H43.2733V36ZM43.1234 37.1638L49.1603 0.800137L47.1873 0.472589L41.1504 36.8362L43.1234 37.1638ZM48.1738 1.63636H49.3102V-0.363638H48.1738V1.63636ZM48.3234 0.474504L46.1217 13.8978L48.0953 14.2215L50.297 0.798221L48.3234 0.474504ZM47.1085 15.0597H47.2505V13.0597H47.1085V15.0597ZM48.108 14.5742C48.8573 13.3253 49.9463 12.3101 51.4116 11.5344L50.4758 9.76678C48.7214 10.6956 47.3483 11.9531 46.393 13.5452L48.108 14.5742ZM51.4089 11.5358C52.8831 10.761 54.4748 10.3722 56.1994 10.3722V8.37216C54.1598 8.37216 52.2477 8.83558 50.4785 9.76537L51.4089 11.5358ZM56.1994 10.3722C57.876 10.3722 59.2272 10.7358 60.3029 11.4093L61.3643 9.71423C59.9069 8.80163 58.1686 8.37216 56.1994 8.37216V10.3722ZM60.3029 11.4093C61.3882 12.0889 62.1608 13.016 62.639 14.2166L64.497 13.4766C63.8625 11.8836 62.8122 10.6209 61.3643 9.71424L60.3029 11.4093ZM62.639 14.2166C63.1135 15.408 63.2391 16.826 62.9548 18.5097L64.9269 18.8426C65.2582 16.8804 65.1352 15.0788 64.497 13.4766L62.639 14.2166ZM62.9545 18.5117L59.9005 36.8356L61.8733 37.1644L64.9273 18.8405L62.9545 18.5117ZM60.8869 36H59.7505V38H60.8869V36ZM60.7369 37.1644L63.7909 18.8405L61.8181 18.5117L58.7641 36.8356L60.7369 37.1644ZM63.7917 18.8358C64.2151 16.2186 63.7815 13.9448 62.3407 12.1543L60.7825 13.4082C61.7802 14.648 62.1752 16.3042 61.8173 18.5164L63.7917 18.8358ZM62.3437 12.158C60.9005 10.3471 58.7652 9.50852 56.1284 9.50852V11.5085C58.3211 11.5085 59.8079 12.1851 60.7796 13.4045L62.3437 12.158ZM56.1284 9.50852C54.3682 9.50852 52.7112 9.89168 51.1712 10.6617L52.0656 12.4505C53.3192 11.8238 54.6688 11.5085 56.1284 11.5085V9.50852ZM51.1682 10.6632C49.6491 11.4292 48.3662 12.4908 47.3279 13.8406L48.9132 15.06C49.7688 13.9476 50.8178 13.0798 52.0687 12.449L51.1682 10.6632ZM47.3243 13.8454C46.2865 15.2116 45.6262 16.7736 45.3405 18.5141L47.314 18.8381C47.5491 17.4063 48.0844 16.1511 48.9169 15.0552L47.3243 13.8454ZM73.3248 36.6449L72.8523 37.5262L72.856 37.5282L73.3248 36.6449ZM70.7324 33.946L69.8309 34.3788L69.8344 34.386L70.7324 33.946ZM70.2708 29.6136L69.2865 29.437L69.2842 29.4498L69.2822 29.4626L70.2708 29.6136ZM71.1586 27.0213L70.2773 26.5487L70.2748 26.5534L71.1586 27.0213ZM73.0939 24.8018L72.4853 24.0084L72.48 24.0125L73.0939 24.8018ZM76.5208 23.0973L76.2045 22.1486L76.5208 23.0973ZM81.8475 22.0142L81.737 21.0203L81.7316 21.0209L81.8475 22.0142ZM88.3461 20.6648L87.8988 19.7703L87.8988 19.7703L88.3461 20.6648ZM89.66 19.0312L88.6747 18.8599L88.6736 18.8668L89.66 19.0312ZM89.9441 17.3977L90.9293 17.5691L90.93 17.5648L89.9441 17.3977ZM88.7722 12.3551L88.0248 13.0195L88.0279 13.0229L88.7722 12.3551ZM78.2076 11.7337L77.7426 10.8483L77.74 10.8497L78.2076 11.7337ZM74.5321 15.267L74.1382 16.1862L74.973 16.544L75.4092 15.7474L74.5321 15.267ZM73.5378 14.8409L72.6585 14.3646L72.1365 15.3283L73.1439 15.7601L73.5378 14.8409ZM75.9881 11.8935L75.3612 11.1143L75.3568 11.1179L75.9881 11.8935ZM79.4682 9.97585L79.1417 9.03066L79.139 9.03159L79.4682 9.97585ZM87.1742 9.92258L86.8009 10.8504L86.8102 10.854L87.1742 9.92258ZM89.6777 11.6271L88.9237 12.2839L88.9293 12.2904L88.935 12.2968L89.6777 11.6271ZM91.0094 14.1839L90.0372 14.4182L90.04 14.4292L91.0094 14.1839ZM91.0804 17.3977L90.0951 17.2268L90.094 17.2333L91.0804 17.3977ZM87.8134 37V38H88.6605L88.7998 37.1644L87.8134 37ZM86.677 37L85.6906 36.8356L85.4966 38H86.677V37ZM87.6003 31.4602L88.5867 31.6246L88.7808 30.4602H87.6003V31.4602ZM87.4583 31.4602V30.4602H86.8995L86.6066 30.9361L87.4583 31.4602ZM84.7239 34.6918L85.3782 35.448L85.3788 35.4474L84.7239 34.6918ZM81.2438 36.8224L81.6122 37.7521L81.6167 37.7503L81.2438 36.8224ZM82.2736 35.0469L82.7767 35.9111L82.7787 35.91L82.2736 35.0469ZM86.3574 31.1584L85.5308 30.5956L85.5299 30.5969L86.3574 31.1584ZM88.5946 25.3523L87.6091 25.1824L87.6074 25.193L88.5946 25.3523ZM89.3049 21.233L90.2903 21.4029L90.6896 19.0871L88.744 20.405L89.3049 21.233ZM87.9909 21.8899L87.6422 20.9527L87.6349 20.9554L87.9909 21.8899ZM86.3219 22.4048L86.551 23.3783L86.5644 23.375L86.3219 22.4048ZM84.351 22.7777L84.2027 21.7888L84.2002 21.7891L84.351 22.7777ZM82.1316 23.0795L82.2451 24.0731L82.2519 24.0723L82.1316 23.0795ZM76.1657 24.3757L75.8032 23.4437L76.1657 24.3757ZM71.4071 29.6136L70.4236 29.433L70.4211 29.4466L70.419 29.4603L71.4071 29.6136ZM72.5968 34.5675L73.3418 33.9005L72.5968 34.5675ZM77.302 36.5682C75.9516 36.5682 74.7906 36.2906 73.7935 35.7615L72.856 37.5282C74.179 38.2302 75.6695 38.5682 77.302 38.5682V36.5682ZM73.7972 35.7635C72.8359 35.2482 72.1195 34.5041 71.6304 33.506L69.8344 34.386C70.5054 35.7554 71.5172 36.8105 72.8523 37.5262L73.7972 35.7635ZM71.6339 33.5133C71.1764 32.56 71.0199 31.3318 71.2593 29.7647L69.2822 29.4626C69.0008 31.3045 69.1521 32.9646 69.8309 34.3788L71.6339 33.5133ZM71.255 29.7903C71.4031 28.9656 71.666 28.2001 72.0423 27.4892L70.2748 26.5534C69.7989 27.4524 69.4699 28.4151 69.2865 29.437L71.255 29.7903ZM72.0398 27.4939C72.4018 26.8189 72.9478 26.1823 73.7079 25.5912L72.48 24.0125C71.5355 24.7471 70.7913 25.5902 70.2773 26.5487L72.0398 27.4939ZM73.7026 25.5953C74.4524 25.0201 75.4853 24.4965 76.837 24.046L76.2045 22.1486C74.7153 22.645 73.4637 23.2578 72.4853 24.0084L73.7026 25.5953ZM76.837 24.046C78.1711 23.6013 79.8742 23.2512 81.9634 23.0075L81.7316 21.0209C79.5594 21.2744 77.7113 21.6464 76.2045 22.1486L76.837 24.046ZM81.9579 23.0081C83.252 22.8643 84.4829 22.6963 85.6501 22.5037L85.3246 20.5304C84.1955 20.7166 82.9998 20.88 81.737 21.0203L81.9579 23.0081ZM85.6501 22.5037C86.8631 22.3036 87.9196 21.996 88.7933 21.5592L87.8988 19.7703C87.2574 20.0911 86.4081 20.3517 85.3246 20.5304L85.6501 22.5037ZM88.7933 21.5592C89.7796 21.066 90.4657 20.2798 90.6464 19.1957L88.6736 18.8668C88.6175 19.2031 88.4277 19.5059 87.8988 19.7703L88.7933 21.5592ZM90.6452 19.2026L90.9293 17.5691L88.9589 17.2264L88.6748 18.8599L90.6452 19.2026ZM90.93 17.5648C91.3222 15.2512 90.9063 13.2363 89.5165 11.6873L88.0279 13.0229C88.9108 14.0071 89.2762 15.3539 88.9581 17.2306L90.93 17.5648ZM89.5196 11.6907C88.1308 10.1284 86.0712 9.4375 83.552 9.4375V11.4375C85.7204 11.4375 87.1408 12.025 88.0248 13.0195L89.5196 11.6907ZM83.552 9.4375C81.4778 9.4375 79.536 9.90646 77.7426 10.8483L78.6725 12.619C80.1698 11.8327 81.7911 11.4375 83.552 11.4375V9.4375ZM77.74 10.8497C75.9491 11.7971 74.574 13.1086 73.655 14.7867L75.4092 15.7474C76.1238 14.4425 77.199 13.3985 78.6752 12.6176L77.74 10.8497ZM74.9261 14.3479L73.9317 13.9218L73.1439 15.7601L74.1382 16.1862L74.9261 14.3479ZM74.4171 15.3172C74.9693 14.2977 75.7012 13.4164 76.6194 12.669L75.3568 11.1179C74.239 12.0278 73.3374 13.1114 72.6585 14.3646L74.4171 15.3172ZM76.615 12.6726C77.5527 11.9181 78.6114 11.3336 79.7974 10.9201L79.139 9.03159C77.7445 9.51774 76.4831 10.2117 75.3612 11.1143L76.615 12.6726ZM79.7947 10.921C80.9885 10.5086 82.2392 10.3011 83.552 10.3011V8.30113C82.0239 8.30113 80.5521 8.54344 79.1417 9.03066L79.7947 10.921ZM83.552 10.3011C84.8396 10.3011 85.9152 10.494 86.801 10.8503L87.5474 8.99484C86.3736 8.5226 85.0343 8.30113 83.552 8.30113V10.3011ZM86.8102 10.854C87.7104 11.2058 88.4041 11.6874 88.9237 12.2839L90.4318 10.9704C89.673 10.0991 88.6976 9.44431 87.5382 8.99118L86.8102 10.854ZM88.935 12.2968C89.47 12.8901 89.8379 13.5911 90.0372 14.4182L91.9816 13.9497C91.7074 12.8119 91.1875 11.8083 90.4204 10.9575L88.935 12.2968ZM90.04 14.4292C90.249 15.2554 90.2762 16.1829 90.0951 17.2268L92.0657 17.5686C92.2871 16.2925 92.267 15.0775 91.9789 13.9387L90.04 14.4292ZM90.094 17.2333L86.827 36.8356L88.7998 37.1644L92.0668 17.5621L90.094 17.2333ZM87.8134 36H86.677V38H87.8134V36ZM87.6634 37.1644L88.5867 31.6246L86.6139 31.2958L85.6906 36.8356L87.6634 37.1644ZM87.6003 30.4602H87.4583V32.4602H87.6003V30.4602ZM86.6066 30.9361C85.9011 32.0826 85.0554 33.0812 84.069 33.9361L85.3788 35.4474C86.5231 34.4557 87.5003 33.2999 88.3099 31.9843L86.6066 30.9361ZM84.0696 33.9355C83.098 34.7761 82.0327 35.4277 80.8709 35.8946L81.6167 37.7503C82.988 37.1992 84.2428 36.4303 85.3782 35.448L84.0696 33.9355ZM80.8754 35.8928C79.74 36.3426 78.5512 36.5682 77.302 36.5682V38.5682C78.799 38.5682 80.2381 38.2966 81.6122 37.7521L80.8754 35.8928ZM77.302 37.4318C79.218 37.4318 81.0476 36.9176 82.7767 35.9111L81.7705 34.1826C80.3273 35.0227 78.8425 35.4318 77.302 35.4318V37.4318ZM82.7787 35.91C84.5156 34.8936 85.9837 33.4901 87.1849 31.7199L85.5299 30.5969C84.4821 32.141 83.2277 33.3299 81.7686 34.1838L82.7787 35.91ZM87.184 31.7212C88.4111 29.9188 89.2059 27.8426 89.5819 25.5115L87.6074 25.193C87.2732 27.2653 86.5764 29.0598 85.5308 30.5956L87.184 31.7212ZM89.5801 25.5222L90.2903 21.4029L88.3194 21.063L87.6092 25.1824L89.5801 25.5222ZM88.744 20.405C88.456 20.6001 88.0925 20.7851 87.6422 20.9527L88.3397 22.8271C88.9074 22.6159 89.4198 22.3629 89.8657 22.0609L88.744 20.405ZM87.6349 20.9554C87.1811 21.1283 86.6635 21.2887 86.0794 21.4347L86.5644 23.375C87.2114 23.2132 87.8065 23.0303 88.3469 22.8244L87.6349 20.9554ZM86.0929 21.4314C85.5196 21.5663 84.8899 21.6857 84.2027 21.7888L84.4994 23.7666C85.2326 23.6567 85.9168 23.5275 86.5509 23.3782L86.0929 21.4314ZM84.2002 21.7891C83.513 21.894 82.7834 21.9932 82.0112 22.0868L82.2519 24.0723C83.0422 23.9765 83.7922 23.8745 84.5018 23.7663L84.2002 21.7891ZM82.018 22.086C79.4891 22.375 77.4063 22.8203 75.8032 23.4437L76.5281 25.3077C77.9079 24.7711 79.8025 24.3522 82.2451 24.0731L82.018 22.086ZM75.8032 23.4437C74.2142 24.0616 72.9378 24.871 72.0611 25.9174L73.5941 27.2019C74.1852 26.4964 75.1341 25.8498 76.5281 25.3077L75.8032 23.4437ZM72.0611 25.9174C71.2125 26.9303 70.6668 28.1086 70.4236 29.433L72.3907 29.7943C72.5736 28.7986 72.9749 27.9409 73.5941 27.2019L72.0611 25.9174ZM70.419 29.4603C70.0659 31.7354 70.4905 33.7139 71.8517 35.2345L73.3418 33.9005C72.4777 32.9352 72.1091 31.6112 72.3953 29.767L70.419 29.4603ZM71.8517 35.2345C73.194 36.7339 75.0594 37.4318 77.302 37.4318V35.4318C75.4964 35.4318 74.2249 34.8869 73.3418 33.9005L71.8517 35.2345ZM110.674 9.72727L111.657 9.91156L111.879 8.72727H110.674V9.72727ZM110.461 10.8636V11.8636H111.291L111.444 11.0479L110.461 10.8636ZM99.6653 10.8636L98.6824 10.6793L98.4604 11.8636H99.6653V10.8636ZM99.8784 9.72727V8.72727H99.0484L98.8955 9.54298L99.8784 9.72727ZM104.921 3.19318V2.19318H104.072L103.934 3.03081L104.921 3.19318ZM106.057 3.19318L107.044 3.35555L107.235 2.19318H106.057V3.19318ZM101.441 31.2472L102.426 31.4222L102.428 31.4095L101.441 31.2472ZM101.672 33.9993L100.758 34.4067L100.761 34.412L101.672 33.9993ZM103.252 35.7571L102.748 36.6209L102.759 36.6271L103.252 35.7571ZM106.626 36.272L106.822 37.2526L106.836 37.2497L106.85 37.2464L106.626 36.272ZM107.62 36.0057L108.611 35.8735L108.456 34.7108L107.333 35.0479L107.62 36.0057ZM107.762 37.071L108.104 38.0108L108.859 37.736L108.753 36.9389L107.762 37.071ZM106.643 37.3906L106.447 36.41L106.441 36.4114L106.643 37.3906ZM102.524 36.7337L102.011 37.5922L102.016 37.5953L102.524 36.7337ZM100.606 34.5675L99.692 34.9726L99.6964 34.9821L100.606 34.5675ZM100.305 31.2472L101.291 31.4116L101.291 31.4095L100.305 31.2472ZM109.691 9.54298L109.478 10.6793L111.444 11.0479L111.657 9.91156L109.691 9.54298ZM110.461 9.86363H99.6653V11.8636H110.461V9.86363ZM100.648 11.0479L100.861 9.91156L98.8955 9.54298L98.6824 10.6793L100.648 11.0479ZM99.8784 10.7273H110.674V8.72727H99.8784V10.7273ZM104.921 4.19318H106.057V2.19318H104.921V4.19318ZM105.071 3.03081L100.454 31.0848L102.428 31.4095L107.044 3.35555L105.071 3.03081ZM100.456 31.0721C100.242 32.2787 100.313 33.4091 100.758 34.4067L102.585 33.5918C102.343 33.0507 102.261 32.3463 102.425 31.4222L100.456 31.0721ZM100.761 34.412C101.189 35.3562 101.856 36.1008 102.748 36.6209L103.756 34.8933C103.227 34.5848 102.841 34.1576 102.583 33.5866L100.761 34.412ZM102.759 36.6271C103.638 37.1255 104.629 37.3608 105.702 37.3608V35.3608C104.929 35.3608 104.286 35.1937 103.745 34.8871L102.759 36.6271ZM105.702 37.3608C106.084 37.3608 106.457 37.3254 106.822 37.2526L106.429 35.2914C106.202 35.337 105.96 35.3608 105.702 35.3608V37.3608ZM106.85 37.2464C107.182 37.1698 107.535 37.0752 107.907 36.9635L107.333 35.0479C106.995 35.1492 106.684 35.2322 106.401 35.2976L106.85 37.2464ZM106.629 36.1378L106.771 37.2032L108.753 36.9389L108.611 35.8735L106.629 36.1378ZM107.42 36.1312C107.07 36.2585 106.746 36.3502 106.447 36.41L106.839 38.3712C107.251 38.289 107.672 38.1676 108.104 38.0108L107.42 36.1312ZM106.441 36.4114C106.176 36.466 105.861 36.4972 105.489 36.4972V38.4972C105.969 38.4972 106.424 38.4573 106.846 38.3699L106.441 36.4114ZM105.489 36.4972C104.535 36.4972 103.725 36.2808 103.032 35.872L102.016 37.5953C103.051 38.2046 104.218 38.4972 105.489 38.4972V36.4972ZM103.037 35.8751C102.365 35.4741 101.861 34.91 101.516 34.1528L99.6964 34.9821C100.204 36.0952 100.978 36.9752 102.011 37.5922L103.037 35.8751ZM101.521 34.1624C101.204 33.4482 101.101 32.5485 101.291 31.4116L99.3181 31.0828C99.0815 32.5027 99.1799 33.8165 99.6921 34.9725L101.521 34.1624ZM101.291 31.4095L105.908 3.35555L103.934 3.03081L99.3178 31.0848L101.291 31.4095ZM135.656 37L134.662 37.1087L134.759 38H135.656V37ZM131.679 0.636362V-0.363638H130.563L130.685 0.74509L131.679 0.636362ZM132.886 0.636362L133.881 0.53019L133.785 -0.363638H132.886V0.636362ZM136.579 35.2244L135.585 35.3306L135.68 36.2244H136.579V35.2244ZM136.721 35.2244V36.2244H137.377L137.638 35.6236L136.721 35.2244ZM151.778 0.636362V-0.363638H151.123L150.861 0.237224L151.778 0.636362ZM153.341 0.636362L154.336 0.536252L154.245 -0.363638H153.341V0.636362ZM156.821 35.2244L155.826 35.3245L155.916 36.2244H156.821V35.2244ZM156.963 35.2244V36.2244H157.615L157.878 35.6283L156.963 35.2244ZM172.233 0.636362V-0.363638H171.581L171.318 0.232491L172.233 0.636362ZM173.511 0.636362L174.426 1.04018L175.046 -0.363638H173.511V0.636362ZM157.46 37V38H158.112L158.375 37.4038L157.46 37ZM155.827 37L154.832 37.1001L154.922 38H155.827V37ZM152.346 2.41193L153.341 2.31182L153.251 1.41193H152.346V2.41193ZM152.204 2.41193V1.41193H151.548L151.287 2.01438L152.204 2.41193ZM137.219 37V38H137.875L138.136 37.3976L137.219 37ZM136.65 36.8913L132.673 0.527636L130.685 0.74509L134.662 37.1087L136.65 36.8913ZM131.679 1.63636H132.886V-0.363638H131.679V1.63636ZM131.892 0.742536L135.585 35.3306L137.574 35.1183L133.881 0.53019L131.892 0.742536ZM136.579 36.2244H136.721V34.2244H136.579V36.2244ZM137.638 35.6236L152.695 1.0355L150.861 0.237224L135.805 34.8253L137.638 35.6236ZM151.778 1.63636H153.341V-0.363638H151.778V1.63636ZM152.346 0.736473L155.826 35.3245L157.816 35.1243L154.336 0.536252L152.346 0.736473ZM156.821 36.2244H156.963V34.2244H156.821V36.2244ZM157.878 35.6283L173.148 1.04023L171.318 0.232491L156.048 34.8206L157.878 35.6283ZM172.233 1.63636H173.511V-0.363638H172.233V1.63636ZM172.596 0.232547L156.545 36.5962L158.375 37.4038L174.426 1.04018L172.596 0.232547ZM157.46 36H155.827V38H157.46V36ZM156.822 36.8999L153.341 2.31182L151.351 2.51204L154.832 37.1001L156.822 36.8999ZM152.346 1.41193H152.204V3.41193H152.346V1.41193ZM151.287 2.01438L136.301 36.6024L138.136 37.3976L153.122 2.80949L151.287 2.01438ZM137.219 36H135.656V38H137.219V36ZM175.3 35.7038L174.68 36.4887L175.3 35.7038ZM171.998 30.6435L172.957 30.361L171.998 30.6435ZM171.731 23.4347L170.745 23.2688L171.731 23.4347ZM174.412 16.2259L175.259 16.7575L174.412 16.2259ZM179.277 11.1655L178.731 10.3279L179.277 11.1655ZM189.593 10.331L189.106 11.2044L189.116 11.2098L189.593 10.331ZM192.665 13.1364L191.836 13.6949L191.842 13.7043L192.665 13.1364ZM194.352 17.2557L193.371 17.4489L193.371 17.4504L194.352 17.2557ZM194.387 22.2273L195.37 22.4116L195.373 22.399L195.375 22.3863L194.387 22.2273ZM194.174 23.3636V24.3636H195.004L195.157 23.5479L194.174 23.3636ZM172.299 23.3636L171.316 23.1793L171.094 24.3636H172.299V23.3636ZM172.512 22.2273V21.2273H171.682L171.53 22.043L172.512 22.2273ZM193.251 22.2273V23.2273H194.101L194.238 22.3882L193.251 22.2273ZM192.914 16.2969L191.961 16.5998L191.963 16.6074L192.914 16.2969ZM190.091 12.0355L189.457 12.8095L189.465 12.8157L190.091 12.0355ZM179.97 12.1065L179.428 11.2657L179.97 12.1065ZM172.939 23.1506L173.646 23.8577L173.865 23.6385L173.922 23.3337L172.939 23.1506ZM172.868 23.2216L172.16 22.5145L171.934 22.7405L171.881 23.0556L172.868 23.2216ZM172.992 29.8089L172.02 30.0447L172.992 29.8089ZM175.797 34.6207L176.454 33.867L175.797 34.6207ZM185.687 35.544L185.264 34.6381L185.261 34.6396L185.687 35.544ZM188.848 33.5021L188.178 32.7598L188.172 32.7645L188.848 33.5021ZM190.765 31.5312L191.399 30.7573L190.608 30.1102L189.978 30.9149L190.765 31.5312ZM191.547 32.1705L192.356 32.757L192.909 31.9934L192.18 31.3965L191.547 32.1705ZM189.398 34.4609L190.067 35.2047L189.398 34.4609ZM185.953 36.6449L186.365 37.5561L185.953 36.6449ZM181.248 36.5682C179.037 36.5682 177.285 35.9971 175.92 34.919L174.68 36.4887C176.463 37.8964 178.677 38.5682 181.248 38.5682V36.5682ZM175.92 34.919C174.525 33.818 173.532 32.3154 172.957 30.361L171.038 30.9259C171.718 33.2329 172.926 35.1038 174.68 36.4887L175.92 34.919ZM172.957 30.361C172.381 28.4044 172.287 26.1586 172.717 23.6005L170.745 23.2688C170.276 26.061 170.36 28.6212 171.038 30.9259L172.957 30.361ZM172.717 23.6005C173.147 21.0449 173.997 18.7681 175.259 16.7575L173.565 15.6942C172.152 17.9449 171.215 20.474 170.745 23.2688L172.717 23.6005ZM175.259 16.7575C176.528 14.7363 178.051 13.159 179.824 12.0031L178.731 10.3279C176.692 11.6578 174.972 13.454 173.565 15.6942L175.259 16.7575ZM179.824 12.0031C181.576 10.8599 183.418 10.3011 185.368 10.3011V8.30113C183.008 8.30113 180.79 8.98525 178.731 10.3279L179.824 12.0031ZM185.368 10.3011C186.805 10.3011 188.042 10.6108 189.106 11.2043L190.08 9.4576C188.683 8.67802 187.102 8.30113 185.368 8.30113V10.3011ZM189.116 11.2098C190.215 11.8062 191.119 12.6303 191.836 13.6948L193.495 12.5779C192.602 11.2514 191.458 10.2052 190.07 9.45211L189.116 11.2098ZM191.842 13.7043C192.573 14.7637 193.087 16.0063 193.371 17.4489L195.333 17.0624C195.002 15.38 194.391 13.8764 193.488 12.5684L191.842 13.7043ZM193.371 17.4504C193.653 18.8703 193.668 20.4067 193.4 22.0682L195.375 22.3863C195.675 20.5203 195.666 18.7424 195.333 17.061L193.371 17.4504ZM193.405 22.043L193.191 23.1793L195.157 23.5479L195.37 22.4116L193.405 22.043ZM194.174 22.3636H172.299V24.3636H194.174V22.3636ZM173.282 23.5479L173.495 22.4116L171.53 22.043L171.316 23.1793L173.282 23.5479ZM172.512 23.2273H193.251V21.2273H172.512V23.2273ZM194.238 22.3882C194.614 20.0809 194.502 17.9392 193.864 15.9864L191.963 16.6074C192.485 18.2057 192.598 20.0176 192.264 22.0664L194.238 22.3882ZM193.867 15.9939C193.246 14.0408 192.201 12.4459 190.716 11.2553L189.465 12.8157C190.608 13.7321 191.445 14.9781 191.961 16.5998L193.867 15.9939ZM190.724 11.2616C189.225 10.0355 187.421 9.4375 185.368 9.4375V11.4375C187.007 11.4375 188.352 11.9049 189.457 12.8095L190.724 11.2616ZM185.368 9.4375C183.286 9.4375 181.302 10.0598 179.428 11.2657L180.511 12.9473C182.095 11.9279 183.708 11.4375 185.368 11.4375V9.4375ZM179.428 11.2657C177.569 12.4627 175.981 14.083 174.659 16.1045L176.332 17.1995C177.519 15.3858 178.914 13.9758 180.511 12.9473L179.428 11.2657ZM174.659 16.1045C173.326 18.1404 172.428 20.4322 171.955 22.9674L173.922 23.3337C174.349 21.0394 175.155 18.9988 176.332 17.1995L174.659 16.1045ZM172.231 22.4435L172.16 22.5145L173.575 23.9287L173.646 23.8577L172.231 22.4435ZM171.881 23.0556C171.46 25.5568 171.498 27.8914 172.02 30.0447L173.964 29.5732C173.515 27.7255 173.47 25.6686 173.854 23.3876L171.881 23.0556ZM172.02 30.0447C172.548 32.221 173.581 34.015 175.14 35.3745L176.454 33.867C175.244 32.8117 174.406 31.3978 173.964 29.5732L172.02 30.0447ZM175.14 35.3745C176.749 36.7774 178.844 37.4318 181.319 37.4318V35.4318C179.202 35.4318 177.615 34.8788 176.454 33.867L175.14 35.3745ZM181.319 37.4318C183.096 37.4318 184.702 37.1143 186.114 36.4485L185.261 34.6396C184.163 35.1575 182.857 35.4318 181.319 35.4318V37.4318ZM186.11 36.45C187.449 35.8245 188.593 35.0912 189.523 34.2397L188.172 32.7645C187.422 33.4519 186.458 34.0798 185.264 34.6381L186.11 36.45ZM189.518 34.2444C190.389 33.4581 191.076 32.7572 191.553 32.1476L189.978 30.9149C189.603 31.3944 189.011 32.0074 188.178 32.7599L189.518 34.2444ZM190.132 32.3052L190.913 32.9444L192.18 31.3965L191.399 30.7573L190.132 32.3052ZM190.737 31.5839C190.296 32.1929 189.635 32.9037 188.73 33.7172L190.067 35.2047C191.032 34.3373 191.803 33.5211 192.356 32.757L190.737 31.5839ZM188.73 33.7172C187.884 34.4775 186.826 35.1528 185.541 35.7337L186.365 37.5561C187.803 36.906 189.042 36.1253 190.067 35.2047L188.73 33.7172ZM185.541 35.7337C184.332 36.2807 182.908 36.5682 181.248 36.5682V38.5682C183.139 38.5682 184.853 38.2401 186.365 37.5561L185.541 35.7337ZM214.864 37L213.878 36.8362L213.684 38H214.864V37ZM220.901 0.636362V-0.363638H220.053L219.915 0.472589L220.901 0.636362ZM239.58 2.80256L239.023 3.63321L239.026 3.63531L239.58 2.80256ZM244.055 8.99929L243.099 9.29279L243.099 9.29396L244.055 8.99929ZM244.339 18.6761L245.324 18.8454L245.324 18.8435L244.339 18.6761ZM240.645 28.5661L239.81 28.0164L239.808 28.0189L240.645 28.5661ZM233.827 34.8338L233.363 33.9479L233.362 33.9487L233.827 34.8338ZM216.196 35.8636L215.209 35.7002L215.017 36.8636H216.196V35.8636ZM233.419 33.7685L232.945 32.8881L232.943 32.889L233.419 33.7685ZM243.202 18.6761L242.215 18.517L242.215 18.5171L243.202 18.6761ZM242.989 9.5142L242.028 9.78952L242.028 9.79072L242.989 9.5142ZM238.923 3.76136L238.366 4.5919L238.372 4.5957L238.923 3.76136ZM221.842 1.77273V0.772725H220.994L220.856 1.60933L221.842 1.77273ZM224.381 36H214.864V38H224.381V36ZM215.851 37.1638L221.888 0.800137L219.915 0.472589L213.878 36.8362L215.851 37.1638ZM220.901 1.63636H231.341V-0.363638H220.901V1.63636ZM231.341 1.63636C234.538 1.63636 237.075 2.32722 239.023 3.6332L240.137 1.97191C237.776 0.389632 234.821 -0.363638 231.341 -0.363638V1.63636ZM239.026 3.63531C240.97 4.92776 242.331 6.79318 243.099 9.29279L245.01 8.70579C244.121 5.80767 242.498 3.54194 240.134 1.9698L239.026 3.63531ZM243.099 9.29396C243.868 11.7878 243.975 14.8463 243.353 18.5087L245.324 18.8435C245.981 14.9775 245.898 11.5849 245.01 8.70461L243.099 9.29396ZM243.353 18.5068C242.709 22.2561 241.52 25.4174 239.81 28.0164L241.481 29.1157C243.369 26.246 244.642 22.814 245.324 18.8454L243.353 18.5068ZM239.808 28.0189C238.11 30.6177 235.963 32.5869 233.363 33.9479L234.291 35.7197C237.208 34.1924 239.606 31.9832 241.482 29.1132L239.808 28.0189ZM233.362 33.9487C230.779 35.3071 227.794 36 224.381 36V38C228.071 38 231.383 37.2488 234.293 35.7189L233.362 33.9487ZM216.196 36.8636H224.594V34.8636H216.196V36.8636ZM224.594 36.8636C228.042 36.8636 231.151 36.1333 233.895 34.6479L232.943 32.889C230.526 34.1972 227.752 34.8636 224.594 34.8636V36.8636ZM233.893 34.6488C236.638 33.1696 238.897 31.0698 240.665 28.3679L238.992 27.2728C237.398 29.7082 235.384 31.5738 232.945 32.8881L233.893 34.6488ZM240.665 28.3679C242.435 25.664 243.603 22.4787 244.19 18.8352L242.215 18.5171C241.665 21.9285 240.584 24.8393 238.992 27.2728L240.665 28.3679ZM244.189 18.8353C244.784 15.1453 244.726 11.9331 243.95 9.23769L242.028 9.79072C242.697 12.1142 242.78 15.01 242.215 18.517L244.189 18.8353ZM243.951 9.23889C243.17 6.513 241.682 4.38593 239.474 2.92703L238.372 4.5957C240.141 5.76464 241.364 7.4728 242.028 9.78952L243.951 9.23889ZM239.48 2.93085C237.29 1.46188 234.478 0.772725 231.128 0.772725V2.77273C234.218 2.77273 236.603 3.40933 238.366 4.59188L239.48 2.93085ZM231.128 0.772725H221.842V2.77273H231.128V0.772725ZM220.856 1.60933L215.209 35.7002L217.182 36.027L222.829 1.93612L220.856 1.60933ZM253.909 35.7038L253.272 36.4745L253.275 36.477L253.909 35.7038ZM250.677 30.608L249.719 30.8924L249.72 30.8972L250.677 30.608ZM250.393 23.2926L249.407 23.1254L249.407 23.1296L250.393 23.2926ZM253.057 16.1548L252.211 15.621L252.21 15.6223L253.057 16.1548ZM257.886 11.1477L258.43 11.987L258.431 11.9862L257.886 11.1477ZM269.41 11.1832L268.769 11.951L268.772 11.9534L269.41 11.1832ZM272.641 16.2969L271.682 16.5813L271.684 16.5862L272.641 16.2969ZM272.979 23.5767L273.965 23.744L273.966 23.7327L272.979 23.5767ZM270.297 30.7322L271.142 31.2682L271.143 31.2661L270.297 30.7322ZM265.45 35.7393L265.991 36.5802L265.995 36.5778L265.45 35.7393ZM264.971 34.7273L265.517 35.5646L265.521 35.5619L264.971 34.7273ZM269.41 30.0398L270.261 30.5647L270.262 30.5625L269.41 30.0398ZM271.842 23.2926L270.855 23.1298L270.855 23.1343L271.842 23.2926ZM271.611 16.723L270.65 16.9985L271.611 16.723ZM268.788 12.1243L268.141 12.8869L268.788 12.1243ZM258.437 12.1776L258.987 13.0122L258.991 13.0096L258.437 12.1776ZM253.98 16.8828L254.829 17.4114L254.83 17.4092L253.98 16.8828ZM251.53 23.5767L252.515 23.7489L252.517 23.7365L251.53 23.5767ZM251.725 30.1463L250.764 30.4218L250.765 30.4272L251.725 30.1463ZM254.566 34.745L253.919 35.5076L253.922 35.5105L254.566 34.745ZM259.413 36.5682C257.466 36.5682 255.861 36.0121 254.543 34.9307L253.275 36.477C254.987 37.8814 257.052 38.5682 259.413 38.5682V36.5682ZM254.546 34.9331C253.217 33.8341 252.238 32.3143 251.635 30.3187L249.72 30.8972C250.419 33.2103 251.594 35.0877 253.272 36.4745L254.546 34.9331ZM251.636 30.3235C251.049 28.3435 250.949 26.0622 251.38 23.4556L249.407 23.1296C248.938 25.9681 249.028 28.5636 249.719 30.8924L251.636 30.3235ZM251.379 23.4599C251.809 20.9276 252.653 18.6743 253.903 16.6874L252.21 15.6223C250.809 17.8494 249.877 20.3546 249.407 23.1254L251.379 23.4599ZM253.902 16.6886C255.172 14.6778 256.683 13.1187 258.43 11.987L257.342 10.3084C255.325 11.6152 253.617 13.3941 252.211 15.621L253.902 16.6886ZM258.431 11.9862C260.175 10.8526 261.988 10.3011 263.888 10.3011V8.30113C261.573 8.30113 259.385 8.98074 257.341 10.3093L258.431 11.9862ZM263.888 10.3011C265.859 10.3011 267.466 10.8633 268.769 11.951L270.05 10.4155C268.347 8.99366 266.272 8.30113 263.888 8.30113V10.3011ZM268.772 11.9534C270.113 13.0643 271.091 14.5892 271.682 16.5813L273.6 16.0124C272.913 13.6958 271.736 11.8117 270.047 10.413L268.772 11.9534ZM271.684 16.5862C272.283 18.5687 272.398 20.8394 271.991 23.4207L273.966 23.7327C274.411 20.9163 274.301 18.3337 273.598 16.0076L271.684 16.5862ZM271.993 23.4095C271.563 25.9404 270.714 28.1993 269.452 30.1984L271.143 31.2661C272.556 29.0275 273.494 26.5161 273.964 23.744L271.993 23.4095ZM269.453 30.1963C268.184 32.195 266.667 33.7559 264.905 34.9009L265.995 36.5778C268.021 35.2607 269.735 33.4835 271.142 31.2682L269.453 30.1963ZM264.909 34.8985C263.167 36.0201 261.341 36.5682 259.413 36.5682V38.5682C261.747 38.5682 263.946 37.8971 265.991 36.5802L264.909 34.8985ZM259.413 37.4318C261.584 37.4318 263.625 36.8007 265.517 35.5645L264.424 33.89C262.837 34.9266 261.173 35.4318 259.413 35.4318V37.4318ZM265.521 35.5619C267.396 34.3249 268.974 32.6512 270.261 30.5647L268.559 29.5148C267.407 31.382 266.025 32.8333 264.42 33.8926L265.521 35.5619ZM270.262 30.5625C271.556 28.4527 272.408 26.0779 272.83 23.451L270.855 23.1343C270.471 25.5263 269.702 27.6495 268.557 29.5171L270.262 30.5625ZM272.829 23.4555C273.25 20.9029 273.178 18.5595 272.573 16.4475L270.65 16.9985C271.157 18.7691 271.239 20.8054 270.855 23.1298L272.829 23.4555ZM272.573 16.4475C271.971 14.3478 270.935 12.6336 269.435 11.3617L268.141 12.8869C269.293 13.864 270.139 15.2156 270.65 16.9985L272.573 16.4475ZM269.435 11.3617C267.912 10.0698 266.067 9.4375 263.959 9.4375V11.4375C265.638 11.4375 267.013 11.9298 268.141 12.8869L269.435 11.3617ZM263.959 9.4375C261.805 9.4375 259.773 10.0848 257.882 11.3455L258.991 13.0096C260.58 11.9502 262.23 11.4375 263.959 11.4375V9.4375ZM257.886 11.3429C256.011 12.5802 254.428 14.2597 253.13 16.3565L254.83 17.4092C255.994 15.5287 257.382 14.0713 258.987 13.0122L257.886 11.3429ZM253.131 16.3542C251.824 18.4524 250.964 20.8109 250.543 23.4169L252.517 23.7365C252.9 21.3709 253.673 19.2668 254.829 17.4114L253.131 16.3542ZM250.545 23.4046C250.098 25.9591 250.157 28.3059 250.764 30.4218L252.686 29.8708C252.18 28.1041 252.109 26.0712 252.515 23.7489L250.545 23.4046ZM250.765 30.4272C251.379 32.5248 252.421 34.237 253.919 35.5076L255.213 33.9824C254.059 33.004 253.207 31.6504 252.685 29.8654L250.765 30.4272ZM253.922 35.5105C255.456 36.7996 257.305 37.4318 259.413 37.4318V35.4318C257.733 35.4318 256.351 34.9395 255.209 33.9796L253.922 35.5105Z" fill="white" mask="url(#path-1-outside-1_2_111)"/>
</svg>
