<svg width="260" height="39" viewBox="0 0 260 39" fill="none" xmlns="http://www.w3.org/2000/svg">
<path d="M38.7465 3C39.3798 3.63333 39.6965 4.45 39.6965 5.45C39.6965 6.28333 39.5132 7.13333 39.1465 8L27.3465 38L26.7965 38.25L20.1965 17.3L12.0465 38L11.4965 38.25L0.396484 3H4.64648L13.5965 32.6L19.9465 16.5L15.6965 3H19.9465L28.8965 32.6L38.5465 8C38.9132 7.16667 39.0965 6.3 39.0965 5.4C39.0965 4.5 38.8465 3.8 38.3465 3.3L38.7465 3ZM64.1816 38C62.815 38 61.765 37.7 61.0316 37.1C60.3316 36.5 59.965 35.9 59.9316 35.3L59.8816 34.45V18.75C59.8816 16.1167 59.1816 14.4333 57.7816 13.7C57.115 13.3667 56.265 13.2 55.2316 13.2C53.165 13.2 51.2983 14.05 49.6316 15.75C47.9983 17.4167 47.1816 18.9167 47.1816 20.25V38H43.6816V0.549999H47.1816V18.7C47.715 17.2667 48.7316 15.9333 50.2316 14.7C51.7316 13.4333 53.415 12.8 55.2816 12.8C58.515 12.8 60.665 13.3667 61.7316 14.5C62.8316 15.6 63.3816 17.0333 63.3816 18.8V34.45C63.3816 35.4167 63.565 36.1667 63.9316 36.7C64.3316 37.2 64.715 37.4667 65.0816 37.5L65.6816 37.6H67.2316V38H64.1816ZM90.6383 38C88.3716 38 86.8216 37.5667 85.9883 36.7C85.2216 35.9667 84.8383 35.3333 84.8383 34.8V33.75C83.2049 36.7167 80.5883 38.2 76.9883 38.2C72.7883 38.2 70.4049 36.3 69.8383 32.5C69.7716 32.1 69.7383 31.7 69.7383 31.3C69.7383 30.8667 69.8049 30.4 69.9383 29.9C70.0716 29.4 70.4549 28.85 71.0883 28.25C72.3549 27.05 75.1383 26.3167 79.4383 26.05C80.5049 25.95 81.4883 25.9 82.3883 25.9C83.2883 25.9 84.1049 25.9333 84.8383 26V17.7C84.7716 17.6667 84.7716 17.5167 84.8383 17.25C84.9049 16.95 84.8383 16.5833 84.6383 16.15C84.4716 15.6833 84.2383 15.2333 83.9383 14.8C83.6383 14.3667 83.1049 14 82.3383 13.7C81.5716 13.3667 80.5716 13.2 79.3383 13.2C78.1049 13.2 76.6549 13.4333 74.9883 13.9C73.3549 14.3333 72.1549 14.7667 71.3883 15.2L71.1883 14.85C74.1549 13.4833 77.1716 12.8 80.2383 12.8C83.6716 12.8 85.9383 13.4167 87.0383 14.65C87.9049 15.6167 88.3383 16.6333 88.3383 17.7V34.45C88.3383 35.4167 88.5216 36.1667 88.8883 36.7C89.2883 37.2 89.6883 37.4667 90.0883 37.5L90.6383 37.6H92.1883V38H90.6383ZM77.7883 37.8C79.5549 37.8 81.1383 37.2 82.5383 36C83.9716 34.7667 84.7383 33.5833 84.8383 32.45V26.4C83.9383 26.3333 83.0216 26.3 82.0883 26.3C81.1883 26.3 80.2883 26.35 79.3883 26.45C76.8549 26.75 75.2049 27.3167 74.4383 28.15C73.6716 28.9833 73.2883 30.1333 73.2883 31.6C73.2883 31.8667 73.3049 32.1667 73.3383 32.5C73.6383 36.0333 75.1216 37.8 77.7883 37.8ZM95.666 13.4V13H96.716V8H100.216V13H107.866V13.4H100.216V31.6C100.216 33.7667 100.449 35.3333 100.916 36.3C101.416 37.2667 102.433 37.75 103.966 37.75C105.533 37.75 107.116 37.4333 108.716 36.8L108.866 37.2C107.199 37.8333 105.283 38.15 103.116 38.15C100.983 38.15 99.3827 37.7167 98.316 36.85C97.2493 35.95 96.716 34.1833 96.716 31.55V13.4H95.666ZM165.407 3C166.04 3.63333 166.357 4.45 166.357 5.45C166.357 6.28333 166.173 7.13333 165.807 8L154.007 38L153.457 38.25L146.857 17.3L138.707 38L138.157 38.25L127.057 3H131.307L140.257 32.6L146.607 16.5L142.357 3H146.607L155.557 32.6L165.207 8C165.573 7.16667 165.757 6.3 165.757 5.4C165.757 4.5 165.507 3.8 165.007 3.3L165.407 3ZM171.24 25.8C171.24 29.9333 171.957 32.9667 173.39 34.9C174.857 36.8333 176.773 37.8 179.14 37.8C182.473 37.8 185.44 37.3 188.04 36.3L188.19 36.65C185.523 37.6833 182.507 38.2 179.14 38.2C175.807 38.2 173.09 37.2 170.99 35.2C168.89 33.2 167.84 30.1167 167.84 25.95C167.84 21.7833 168.94 18.55 171.14 16.25C173.34 13.95 176.14 12.8 179.54 12.8C182.273 12.8 184.573 13.6167 186.44 15.25C188.307 16.8833 189.24 19.3 189.24 22.5C189.24 22.6667 189.24 22.8333 189.24 23H171.39C171.29 23.9 171.24 24.8333 171.24 25.8ZM185.84 22.6C185.807 19.4 185.19 17.0333 183.99 15.5C182.79 13.9667 181.24 13.2 179.34 13.2C177.44 13.2 175.74 14.0333 174.24 15.7C172.773 17.3667 171.84 19.6667 171.44 22.6H185.84ZM207.732 26.4C207.732 22.0667 208.782 18.7167 210.882 16.35C212.982 13.9833 216.132 12.8 220.332 12.8C222.299 12.8 224.282 13.3 226.282 14.3V0.549999H229.782V34.45C229.782 35.4167 229.966 36.1667 230.332 36.7C230.732 37.2 231.132 37.4667 231.532 37.5L232.082 37.6H233.632V38H230.582C229.216 38 228.166 37.7 227.432 37.1C226.732 36.5 226.366 35.9 226.332 35.3L226.282 34.45V33.65C225.649 34.8167 224.599 35.85 223.132 36.75C221.666 37.65 219.932 38.1 217.932 38.1C211.132 37.9333 207.732 34.0333 207.732 26.4ZM217.982 37.7C220.216 37.7 222.132 37.1 223.732 35.9C225.332 34.7 226.182 33.5167 226.282 32.35V14.75C223.916 13.7167 221.882 13.2 220.182 13.2C217.216 13.2 214.982 14.3667 213.482 16.7C211.982 19 211.232 22.2333 211.232 26.4C211.232 33.9333 213.482 37.7 217.982 37.7ZM246.975 38.2C243.475 38.2 240.625 37.2 238.425 35.2C236.225 33.2 235.125 30.1167 235.125 25.95C235.125 21.7833 236.258 18.55 238.525 16.25C240.825 13.95 243.725 12.8 247.225 12.8C250.758 12.8 253.625 13.8 255.825 15.8C258.025 17.8 259.125 20.8833 259.125 25.05C259.125 29.2167 257.975 32.45 255.675 34.75C253.408 37.05 250.508 38.2 246.975 38.2ZM247.325 13.2C244.792 13.2 242.692 14.3333 241.025 16.6C239.358 18.8333 238.525 21.9667 238.525 26C238.525 30 239.292 32.9667 240.825 34.9C242.358 36.8333 244.392 37.8 246.925 37.8C249.458 37.8 251.558 36.6833 253.225 34.45C254.892 32.1833 255.725 29.05 255.725 25.05C255.725 21.0167 254.958 18.0333 253.425 16.1C251.892 14.1667 249.858 13.2 247.325 13.2Z" fill="white"/>
</svg>
