<svg width="32" height="36" viewBox="0 0 32 36" fill="none" xmlns="http://www.w3.org/2000/svg">
<path d="M4.09521 12.394L21.1876 1.93111C25.5187 -0.720177 31.0811 2.39668 31.0811 7.4749L31.0811 28.4008C31.0811 33.479 25.5187 36.5958 21.1876 33.9446L4.09521 23.4816C-0.0466795 20.9462 -0.0466781 14.9295 4.09521 12.394Z" fill="#8F6060"/>
<path d="M4.09521 12.394L21.1876 1.93111C25.5187 -0.720177 31.0811 2.39668 31.0811 7.4749L31.0811 28.4008C31.0811 33.479 25.5187 36.5958 21.1876 33.9446L4.09521 23.4816C-0.0466795 20.9462 -0.0466781 14.9295 4.09521 12.394Z" fill="#8F6060"/>
<path d="M4.09521 12.394L21.1876 1.93111C25.5187 -0.720177 31.0811 2.39668 31.0811 7.4749L31.0811 28.4008C31.0811 33.479 25.5187 36.5958 21.1876 33.9446L4.09521 23.4816C-0.0466795 20.9462 -0.0466781 14.9295 4.09521 12.394Z" fill="#F5F1E4"/>
<path d="M4.09521 12.394L21.1876 1.93111C25.5187 -0.720177 31.0811 2.39668 31.0811 7.4749L31.0811 28.4008C31.0811 33.479 25.5187 36.5958 21.1876 33.9446L4.09521 23.4816C-0.0466795 20.9462 -0.0466781 14.9295 4.09521 12.394Z" stroke="white"/>
</svg>
